#N canvas 126 30 1176 694 10;
#X obj 186 420 line~;
#X msg 262 367 set _lin;
#X msg 262 388 set _linsqrt;
#X msg 262 409 set _sqrt;
#X msg 262 429 set _sin;
#X msg 263 450 set _sinhann;
#X msg 263 472 set _hann;
#X obj 186 499 fade~ _lin;
#X obj 216 535 Scope~ 130 130 256 3 128 -0.01 1 0 0 0 0 102 255 51
135 135 135 0;
#X obj 167 324 sel 0 1;
#X obj 125 556 *~;
#X obj 41 482 osc~ 440;
#X obj 119 588 dac~;
#X obj 167 281 tgl 30 0 empty empty empty 17 7 0 10 -228856 -1 -1 0
1;
#X text 207 286 ON / OFF;
#X obj 167 160 bng 30 250 50 0 empty empty empty 17 7 0 10 -203904
-1 -1;
#X obj 209 233 delay 650;
#X obj 580 440 line~;
#X obj 599 505 Scope~ 130 130 256 3 128 -0.01 1 0 0 0 0 102 255 51
135 135 135 0;
#X obj 561 364 sel 0 1;
#X obj 519 526 *~;
#X obj 435 452 osc~ 440;
#X obj 513 558 dac~;
#X obj 561 321 tgl 30 0 empty empty empty 17 7 0 10 -228856 -1 -1 0
1;
#X text 601 326 ON / OFF;
#X obj 561 200 bng 30 250 50 0 empty empty empty 17 7 0 10 -203904
-1 -1;
#X obj 603 273 delay 650;
#X obj 580 469 expr~ pow($v1 \, 4);
#X text 251 120 Nesse caso \, o tipo de envelope é ASR \, e o ataque
e o release correspondem ao fade in e fade out respectivamente.;
#X obj 361 259 loadbang;
#X msg 361 283 \; pd dsp 1;
#X text 249 65 Neste exemplo \, apenas ressaltamos o uso de diferentes
funções para o fade in/out de um note on/off \, como elevar à quarta
potência ou as funções do objeto [fade~].;
#X msg 123 360 0 500;
#X msg 186 359 1 500;
#X msg 517 400 0 500;
#X msg 580 399 1 500;
#X obj 943 476 Scope~ 130 130 256 3 128 -0.01 1 0 0 0 0 102 255 51
135 135 135 0;
#X obj 863 497 *~;
#X obj 779 423 osc~ 440;
#X obj 857 529 dac~;
#X obj 924 345 tgl 30 0 empty empty empty 17 7 0 10 -228856 -1 -1 0
1;
#X text 964 350 ON / OFF;
#X obj 924 224 bng 30 250 50 0 empty empty empty 17 7 0 10 -203904
-1 -1;
#X obj 966 297 delay 650;
#X obj 924 440 slide~ 5000 5000;
#X text 712 108 O uso do objeto [slide~] também se aplica aqui \, e
de uma forma bem prática \, aliás.;
#X connect 0 0 7 0;
#X connect 1 0 7 0;
#X connect 2 0 7 0;
#X connect 3 0 7 0;
#X connect 4 0 7 0;
#X connect 5 0 7 0;
#X connect 6 0 7 0;
#X connect 7 0 8 0;
#X connect 7 0 10 1;
#X connect 9 0 32 0;
#X connect 9 1 33 0;
#X connect 10 0 12 0;
#X connect 10 0 12 1;
#X connect 11 0 10 0;
#X connect 13 0 9 0;
#X connect 15 0 13 0;
#X connect 15 0 16 0;
#X connect 16 0 13 0;
#X connect 17 0 27 0;
#X connect 19 0 34 0;
#X connect 19 1 35 0;
#X connect 20 0 22 0;
#X connect 20 0 22 1;
#X connect 21 0 20 0;
#X connect 23 0 19 0;
#X connect 25 0 23 0;
#X connect 25 0 26 0;
#X connect 26 0 23 0;
#X connect 27 0 18 0;
#X connect 27 0 20 1;
#X connect 29 0 30 0;
#X connect 32 0 0 0;
#X connect 33 0 0 0;
#X connect 34 0 17 0;
#X connect 35 0 17 0;
#X connect 37 0 39 0;
#X connect 37 0 39 1;
#X connect 38 0 37 0;
#X connect 40 0 44 0;
#X connect 42 0 40 0;
#X connect 42 0 43 0;
#X connect 43 0 40 0;
#X connect 44 0 36 0;
#X connect 44 0 37 1;
