#N canvas 232 28 617 663 10;
#X obj 29 425 cnv 15 448 198 empty empty empty 20 12 0 14 -212352 -66577
0;
#X obj 112 320 t b f;
#N canvas 0 22 450 300 (subpatch) 0;
#X array Fase-Inicial 441 float 0;
#X coords 0 1 440 -1 450 200 1;
#X restore 28 424 graph;
#X text 15 417 1;
#X text 8 610 -1;
#X obj 124 352 osc~ 100;
#X obj 115 252 hsl 200 20 0 1 0 1 empty empty empty -2 -8 0 10 -228856
-1 -1 3000 1;
#X obj 112 289 nbx 5 18 -1e+37 1e+37 0 0 empty empty empty 0 -8 0 13
-228856 -1 -1 0.150754 256;
#X text 28 253 Fase Inicial;
#X obj 112 382 tabwrite~ Fase-Inicial;
#X text 196 350 [osc~] => Fase Inicial de Cosseno;
#X text 67 120 Apesar de estarmos aqui adotando um ponto de referência
de Cosseno como Fase Inicial "0" \, é bem comum que essa referência
seja da fase inicial de Seno. Em outras palavras \, quando falamos
em um oscilador senoidal \, é mais comum que a Fase Inicial "0" dele
seja a de Seno. O caso aqui do Pd é uma exceção \, mas que vem bem
a calhar para ilustrar essa questão.;
#X msg 376 284 \; pd dsp 1;
#X obj 376 258 loadbang;
#X text 66 23 Fase Inicial é apenas a posição em que o ciclo se inicia
e é medida com um ângulo \, por exmeplo \, 90 graus. Porém é necessário
um ponto de referência para o valor de 0 graus. No caso do objeto [osc~]
\, o 0 graus indica a fase inicial de cosseno. Portanto os valores
de Fase Inicial são dados em relação a esse ponto de referência.;
#X connect 1 0 9 0;
#X connect 1 1 5 1;
#X connect 5 0 9 0;
#X connect 6 0 7 0;
#X connect 7 0 1 0;
#X connect 13 0 12 0;
