#N canvas 54 54 1290 609 10;
#X obj 194 273 *~ 1000;
#X obj 194 300 +~ 1400;
#X obj 108 412 vcf~ 10;
#X obj 76 287 blosc~ saw;
#X obj 76 259 sig~ 100;
#X obj 176 413 hsl 128 15 0 1 0 0 empty ganho empty -2 -8 0 10 -204786
-1 -1 0 1;
#N canvas 0 22 655 392 output 0;
#X obj 206 206 *~;
#X obj 225 175 line~;
#X msg 225 149 \$1 10;
#X obj 225 113 pow 4;
#X obj 190 245 dac~;
#X obj 300 56 inlet;
#X obj 177 60 inlet~;
#X obj 336 212 *~;
#X obj 355 181 line~;
#X msg 355 155 \$1 10;
#X obj 355 119 pow 4;
#X obj 320 251 dac~;
#X obj 242 56 inlet~;
#X connect 0 0 4 0;
#X connect 0 0 4 1;
#X connect 1 0 0 1;
#X connect 2 0 1 0;
#X connect 3 0 2 0;
#X connect 5 0 3 0;
#X connect 5 0 10 0;
#X connect 6 0 0 0;
#X connect 7 0 11 0;
#X connect 7 0 11 1;
#X connect 8 0 7 1;
#X connect 9 0 8 0;
#X connect 10 0 9 0;
#X connect 12 0 7 0;
#X restore 122 450 pd output;
#X text 207 221 LFO;
#X text 81 232 Sinal;
#X obj 210 338 unsig~ 1;
#X floatatom 210 367 0 0 0 0 - - -;
#X text 264 367 Hz;
#X obj 243 476 loadbang;
#X msg 243 501 \; pd dsp 1;
#X obj 194 246 osc~ 0.2;
#X obj 570 134 blosc~ saw;
#X obj 570 106 sig~ 100;
#X obj 1040 186 blosc~ saw;
#X obj 652 100 osc~ 0.1;
#X obj 652 123 *~ 500;
#X obj 652 147 +~ 1000;
#X obj 1119 198 +~ 1000;
#X obj 1119 151 osc~ 0.1;
#X obj 1119 174 *~ 500;
#X obj 569 209 output~;
#X obj 1058 264 output~;
#X obj 586 172 reson~ 1.5 1000 8;
#X obj 869 226 moog~;
#X obj 788 176 blosc~ saw;
#X obj 882 162 *~ 500;
#X obj 882 186 +~ 1000;
#X obj 953 195 +~ 2;
#X obj 869 262 output~;
#X obj 953 170 *~ 1;
#X obj 882 139 osc~ 1;
#X obj 953 144 osc~ 0.57;
#X text 884 116 Cutoff;
#X text 952 118 Q/Ressonância;
#X obj 980 465 resofilt~ 3;
#X obj 917 421 blosc~ saw;
#X obj 1011 407 *~ 500;
#X obj 1011 431 +~ 1000;
#X text 1013 361 Cutoff;
#X text 1081 363 Q/Ressonância;
#X obj 1082 415 *~ 0.5;
#X obj 1082 440 +~ 1;
#X obj 917 400 sig~ 100;
#X obj 972 515 output~;
#X obj 788 155 sig~ 50;
#X obj 1082 389 osc~ 13;
#X obj 1011 384 osc~ 0.11;
#X obj 593 396 blosc~ saw;
#X obj 593 368 sig~ 100;
#X obj 675 355 osc~ 0.1;
#X obj 675 378 *~ 500;
#X obj 675 402 +~ 1000;
#X obj 746 411 +~ 0.5;
#X obj 746 360 osc~ 0.5;
#X obj 457 387 tof/menubutton 105 28 \$0-menu \$0-menu-set 1 black
red orange purple 0 \, nenhum \, lowpass \, highpass \, bandpass \,
notch;
#X obj 600 527 output~;
#X msg 457 425 choice \$1;
#X obj 616 487 polygate~ 4 100 linear;
#X obj 746 386 *~ 0.4;
#X obj 644 447 svf~ 1000 1;
#X obj 1186 173 *~ 0.5;
#X obj 1186 198 +~ 0.5;
#X obj 1040 158 sig~ 50;
#X obj 1076 229 lores~ 1000 0.9;
#X obj 1186 147 osc~ 0.77;
#X text 1118 130 Cutoff;
#X text 1176 124 Q/Ressonância;
#X obj 210 539 s \$0-menu-set;
#X msg 210 510 1;
#X text 864 29 Filtros de Passa Baixa Ressonantes são comumente e largamente
usados em Filter Sweeps. Além do disponível no [svf~] \, temos o [lores~]
\, [moog~] e [resofilt~].;
#X text 711 124 LFO;
#X text 681 334 Freq;
#X text 739 336 Q/Ressonância;
#X text 471 23 A seguir \, outros exemplos de "Filter Sweep" com outros
objetos \, começando com o [reson~]. Note como todos os objetos a seguir
permitem usar um sinal como LFO para controlar todos os parâmetros!
;
#X text 498 285 Vamos então usar ainda outro LFO para controlar o Q/Ressonância
dos próximos filtros.;
#X text 58 52 O "filter sweep" (que traduz literamente para "varredura
de filtro") consiste apenas em usar um LFO para controlar a frequência
do filtro. Vejamos abaixo um exemplo com o [vcf~] \, que possui entrada
pra controle de áudio na frequência \, porém o parâmetro de Q não pode
ser modulado com um sinal de áudio.;
#X text 58 139 E assim temos abaixo uma onda dente de serra de banda
limitada sendo filtrada e um LFO \, que é uma senóide que gera valores
a 0.2 Hz. Os valores dados pelo LFO variam de 400 a 2400 e são usados
como frequência central do filtro.;
#X connect 0 0 1 0;
#X connect 1 0 2 1;
#X connect 1 0 9 0;
#X connect 2 0 6 0;
#X connect 2 1 6 1;
#X connect 3 0 2 0;
#X connect 4 0 3 0;
#X connect 5 0 6 2;
#X connect 9 0 10 0;
#X connect 12 0 13 0;
#X connect 12 0 72 0;
#X connect 14 0 0 0;
#X connect 15 0 26 0;
#X connect 16 0 15 0;
#X connect 17 0 67 0;
#X connect 18 0 19 0;
#X connect 19 0 20 0;
#X connect 20 0 26 2;
#X connect 21 0 67 1;
#X connect 22 0 23 0;
#X connect 23 0 21 0;
#X connect 26 0 24 0;
#X connect 26 0 24 1;
#X connect 27 0 32 0;
#X connect 27 0 32 1;
#X connect 28 0 27 0;
#X connect 29 0 30 0;
#X connect 30 0 27 1;
#X connect 31 0 27 2;
#X connect 33 0 31 0;
#X connect 34 0 29 0;
#X connect 35 0 33 0;
#X connect 38 0 47 0;
#X connect 38 0 47 1;
#X connect 39 0 38 0;
#X connect 40 0 41 0;
#X connect 41 0 38 1;
#X connect 44 0 45 0;
#X connect 45 0 38 2;
#X connect 46 0 39 0;
#X connect 48 0 28 0;
#X connect 49 0 44 0;
#X connect 50 0 40 0;
#X connect 51 0 63 0;
#X connect 52 0 51 0;
#X connect 53 0 54 0;
#X connect 54 0 55 0;
#X connect 55 0 63 1;
#X connect 56 0 63 2;
#X connect 57 0 62 0;
#X connect 58 0 60 0;
#X connect 60 0 61 0;
#X connect 61 0 59 0;
#X connect 61 0 59 1;
#X connect 62 0 56 0;
#X connect 63 0 61 0;
#X connect 63 1 61 1;
#X connect 63 2 61 2;
#X connect 63 3 61 3;
#X connect 64 0 65 0;
#X connect 65 0 67 2;
#X connect 66 0 17 0;
#X connect 67 0 25 0;
#X connect 67 0 25 1;
#X connect 68 0 64 0;
#X connect 72 0 71 0;
