#N canvas 232 61 891 651 12;
#X obj 217 562 output~;
#X obj 144 388 mtof;
#X obj 144 424 nbx 5 14 -1e+37 1e+37 0 0 empty empty empty 0 -8 0 10
-261682 -1 -1 82.4069 256;
#X text 117 421 Hz;
#X obj 144 267 tgl 30 0 empty empty empty 0 -6 0 8 -261682 -1 -1 1
1;
#X text 183 271 Gerador de Notas Aleatóreas;
#N canvas 423 114 943 448 oscilador 0;
#X obj 60 197 phasor~;
#X obj 60 230 expr~ if ($v1 < 0.5 \, -1 \, 1);
#X obj 267 228 phasor~;
#X obj 267 253 triangle~ 1;
#X obj 267 173 *~ 2;
#X obj 267 283 *~ 0.5;
#X text 124 196 Onda Quadrada;
#X text 361 254 Dente de Serra;
#X text 316 173 uma oitava acima;
#X text 333 199 Detuning;
#X obj 267 199 +~ 0.5;
#X obj 267 36 inlet;
#X obj 267 406 outlet~;
#X text 472 136 Oscilador de Banda Limitada via Oversamplig/Anti-Aliasing
;
#X obj 267 103 vline~;
#X text 320 104 Portamento;
#X msg 267 70 \$1 125;
#X obj 602 209 block~ 64 1 16;
#X obj 267 339 lp10_butt~ 16000 1;
#X text 413 337 <= Filtro Passa Baixa (Anti-Aliasing);
#X connect 0 0 1 0;
#X connect 1 0 5 0;
#X connect 2 0 3 0;
#X connect 3 0 5 0;
#X connect 4 0 10 0;
#X connect 5 0 18 0;
#X connect 10 0 2 0;
#X connect 11 0 16 0;
#X connect 14 0 0 0;
#X connect 14 0 4 0;
#X connect 16 0 14 0;
#X connect 18 0 12 0;
#X restore 144 462 pd oscilador;
#X obj 233 521 lores~;
#X obj 144 305 metro;
#X obj 144 336 expr random(24 \, 51) \; random(550 \, 900);
#X obj 337 475 +~ 0.8;
#X obj 337 442 *~ 0.2;
#X obj 252 469 +~ 2400;
#X obj 252 436 *~ 1800;
#X obj 144 240 loadbang;
#X obj 618 405 *~ 500;
#X obj 618 436 +~ 1000;
#X obj 618 465 blosc~ saw;
#X obj 612 561 output~;
#X obj 618 367 noish~ 8;
#X obj 618 517 vcf~ 7;
#X obj 722 403 noisi~ 15;
#X obj 722 464 +~ 1600;
#X obj 722 433 *~ 1500;
#X obj 646 271 output~;
#X obj 589 100 noisi~ 1.5;
#X obj 589 166 blosc~ saw;
#X obj 650 230 vcf~ 15;
#X obj 673 174 noish~ 15;
#X obj 589 198 *~ 5;
#X obj 589 135 expr~ $v1 * 50 + 80;
#X obj 673 203 expr~ $v1 * 250 + 350;
#X text 564 57 Mais exemplos:;
#X text 68 85 Temos aqui outros exemplos de Filter Sweep \, porém usamos
geradores aleatóreos para o oscilador e controles cdo filtro. Estamos
usando também osciladores de banda limitada.;
#X text 68 147 Abaixo estamos usando um ocilador com um filtro passa
baixa (Anti-Aliasing) e upsampling como já demonstrado para obtermos
uma onda sonora de boa qualidade.;
#X obj 337 414 noisi~ 0.5;
#X obj 252 406 noish~ 5;
#X connect 1 0 2 0;
#X connect 2 0 6 0;
#X connect 4 0 8 0;
#X connect 6 0 7 0;
#X connect 7 0 0 1;
#X connect 7 0 0 0;
#X connect 8 0 9 0;
#X connect 9 0 1 0;
#X connect 9 1 8 1;
#X connect 10 0 7 2;
#X connect 11 0 10 0;
#X connect 12 0 7 1;
#X connect 13 0 12 0;
#X connect 14 0 4 0;
#X connect 15 0 16 0;
#X connect 16 0 17 0;
#X connect 17 0 20 0;
#X connect 19 0 15 0;
#X connect 20 0 18 0;
#X connect 20 1 18 1;
#X connect 21 0 23 0;
#X connect 22 0 20 1;
#X connect 23 0 22 0;
#X connect 25 0 30 0;
#X connect 26 0 29 0;
#X connect 27 0 24 0;
#X connect 27 1 24 1;
#X connect 28 0 31 0;
#X connect 29 0 27 0;
#X connect 30 0 26 0;
#X connect 31 0 27 1;
#X connect 35 0 11 0;
#X connect 36 0 13 0;
