#N canvas 171 29 656 678 12;
#X obj 116 579 output~;
#X obj 145 519 *~;
#X obj 99 287 mtof;
#X obj 99 436 vcf~ 10;
#X obj 99 323 nbx 5 14 -1e+37 1e+37 0 0 empty empty empty 0 -8 0 10
-261682 -1 -1 34.6478 256;
#X text 72 320 Hz;
#X text 345 427 Frequência Central;
#X obj 282 372 nbx 8 14 -1e+37 1e+37 0 0 empty empty empty 0 -8 0 10
-262130 -1 -1 0 256;
#X text 373 369 Frequência Máxima;
#X obj 99 211 tgl 30 0 empty empty empty 0 -6 0 8 -261682 -1 -1 1 1
;
#X obj 189 288 tgl 15 0 empty empty empty 17 7 0 10 -228856 -1 -1 1
1;
#X text 379 314 Envelope Filter;
#N canvas 93 23 366 336 note_in 0;
#X obj 99 67 tgl 15 0 empty empty empty 0 -6 0 8 -261682 -1 -1 1 1
;
#X floatatom 99 188 5 0 0 0 - - -;
#X text 60 187 MIDI;
#X obj 173 266 outlet;
#X obj 99 264 outlet;
#X obj 99 36 inlet;
#X obj 99 224 trigger f b;
#X obj 99 89 metro;
#X obj 99 120 expr random(24 \, 51) \; random(250 \, 900);
#X connect 0 0 7 0;
#X connect 1 0 6 0;
#X connect 5 0 0 0;
#X connect 6 0 4 0;
#X connect 6 1 3 0;
#X connect 7 0 8 0;
#X connect 8 0 1 0;
#X connect 8 1 7 1;
#X restore 99 256 pd note_in;
#X text 138 215 Gerador de Notas Aleatóreas;
#X text 211 286 Note On/Off;
#N canvas 88 38 728 375 oscilador 0;
#X obj 60 127 phasor~;
#X obj 60 160 expr~ if ($v1 < 0.5 \, -1 \, 1);
#X obj 267 158 phasor~;
#X obj 267 183 triangle~ 1;
#X obj 267 103 *~ 2;
#X obj 267 213 *~ 0.5;
#X text 124 126 Onda Quadrada;
#X text 361 184 Dente de Serra;
#X text 316 103 uma oitava acima;
#X text 333 129 Detuning;
#X obj 267 129 +~ 0.5;
#X obj 267 36 inlet;
#X obj 267 73 sig~;
#X obj 267 286 outlet~;
#X obj 533 154 block~ 64 1 16;
#X obj 267 246 lp10_butt~ 16000 1;
#X text 405 245 <= anti alias filter;
#X text 538 124 Oversampling;
#X connect 0 0 1 0;
#X connect 1 0 5 0;
#X connect 2 0 3 0;
#X connect 3 0 5 0;
#X connect 4 0 10 0;
#X connect 5 0 15 0;
#X connect 10 0 2 0;
#X connect 11 0 12 0;
#X connect 12 0 0 0;
#X connect 12 0 4 0;
#X connect 15 0 13 0;
#X restore 99 351 pd oscilador;
#X obj 285 351 hsl 128 15 500 5000 0 0 empty empty empty -2 -8 0 10
-262130 -1 -1 0 1;
#X obj 205 396 unsig~ 1;
#X obj 208 428 hsl 128 15 0 2000 0 0 empty empty empty -2 -8 0 10 -228856
-1 -1 8664 1;
#X obj 189 474 aenv~ 50 200 0.8 250;
#X obj 205 317 aenv~ 150 250 0.7 250;
#X obj 205 355 *~ 1500;
#X text 231 556 Este exemplo é baseado no e similar ao J08.classicsynth
\, confira ele também. O osilador é exatamente o mesmo \, por mais
que não pareça.;
#X text 87 12 O "envelope filter" é nada mais que um controle do filtro
a partir de um Envelope. Já foi realçado como um envelope pode ser
usado para controles diversos \, como o índice de FM. Pois bem \, o
uso de envelope para controle de filtro é bem comum.;
#X text 88 97 Podemos usar o mesmo envelope que controla a amplitude
para controlar o filtro \, ou ainda \, como neste exemplo \, termos
um envelope para cada um. Seja criativo! Experimente \, tente outros
envelopes e outros filtros também!;
#X obj 99 185 loadbang;
#X obj 145 545 tanh~;
#X text 357 474 Envelope de Ampltitude;
#X connect 1 0 26 0;
#X connect 2 0 4 0;
#X connect 3 0 1 0;
#X connect 3 1 1 0;
#X connect 4 0 15 0;
#X connect 7 0 21 1;
#X connect 9 0 12 0;
#X connect 10 0 19 0;
#X connect 10 0 20 0;
#X connect 12 0 2 0;
#X connect 12 1 10 0;
#X connect 15 0 3 0;
#X connect 16 0 7 0;
#X connect 17 0 18 0;
#X connect 19 0 1 1;
#X connect 20 0 21 0;
#X connect 21 0 3 1;
#X connect 21 0 17 0;
#X connect 25 0 9 0;
#X connect 26 0 0 1;
#X connect 26 0 0 0;
