#N canvas 110 44 472 433 10;
#X text 58 25 O [freeverb~] é um external que implementa o modelo de
Schroeder/Moorer com Filtros Pente e Passa Tudo. É um objeto em estéreo
\, e cada canal passa por 8 comb fiters em paralelo e depois por 4
estágios de allpass filters em série. A saída do canal direito é levemente
"desafinada" para criar um efeito de estéreo.;
#X obj 190 222 bng 30 250 50 0 empty empty empty 17 7 0 10 -261682
-1 -1;
#N canvas 797 186 322 336 teste 0;
#X obj 36 155 osc~;
#X obj 36 257 outlet~;
#X obj 36 211 *~;
#X obj 152 151 vline~;
#X obj 36 37 inlet;
#X obj 36 125 vline~;
#X obj 36 68 trigger bang bang;
#X msg 211 122 0 50;
#X obj 211 84 delay 500;
#X msg 36 97 440 \, 880 500;
#X msg 152 111 0.5 50;
#X connect 0 0 2 0;
#X connect 2 0 1 0;
#X connect 3 0 2 1;
#X connect 4 0 6 0;
#X connect 5 0 0 0;
#X connect 6 0 9 0;
#X connect 6 1 10 0;
#X connect 6 1 8 0;
#X connect 7 0 3 0;
#X connect 8 0 7 0;
#X connect 9 0 5 0;
#X connect 10 0 3 0;
#X restore 190 265 pd teste;
#X obj 200 347 dac~;
#X obj 190 294 freeverb~;
#X text 62 126 O [freeverb~] possu diversos controles. O seu help é
bem competo \, abra-o e estude bem cada parâmetro. Não deixe de clicar
no subpatch [pd More_Info]!;
#X connect 1 0 2 0;
#X connect 2 0 4 0;
#X connect 4 0 3 0;
#X connect 4 1 3 1;
