#N canvas 205 64 844 712 10;
#X obj 87 281 nbx 5 14 16 110 0 0 \$0-note \$0-note-set empty 0 -8
0 10 -228856 -1 -1 64 256;
#X text 62 258 Frequência em MIDI;
#N canvas 176 195 392 370 Load-sample 0;
#X obj 105 267 outlet~;
#X obj 101 101 cnv 15 102 49 empty empty empty 20 12 0 14 -233017 -66577
0;
#X obj 105 225 readsf~;
#X msg 105 203 open \$1 \, 1;
#X obj 105 159 openpanel;
#X obj 105 104 bng 18 250 50 0 empty empty empty 17 7 0 10 -261234
-1 -1;
#X text 126 104 Load Sample;
#X obj 144 246 spigot;
#X obj 105 128 tgl 18 0 empty empty empty 17 7 0 10 -262130 -1 -1 1
1;
#X text 124 128 Loop;
#X obj 155 128 bng 18 250 50 0 empty empty empty 17 7 0 10 -204786
-1 -1;
#X text 174 128 Play;
#X obj 65 54 loadbang;
#X msg 65 82 1;
#X obj 107 147 cnv 5 96 5 empty empty empty 20 12 0 14 -233017 -66577
0;
#X msg 11 156 \; pd dsp 1;
#X obj 105 182 symbol ../../../../samples/numbers.wav;
#X connect 2 0 0 0;
#X connect 2 1 7 0;
#X connect 3 0 2 0;
#X connect 4 0 16 0;
#X connect 5 0 4 0;
#X connect 7 0 16 0;
#X connect 8 0 7 1;
#X connect 10 0 16 0;
#X connect 12 0 13 0;
#X connect 12 0 15 0;
#X connect 12 0 16 0;
#X connect 13 0 8 0;
#X connect 16 0 3 0;
#X coords 0 -1 1 1 104 53 2 100 100;
#X restore 190 260 pd Load-sample;
#N canvas 80 88 780 557 gate 0;
#X obj 253 204 blosc~ saw;
#X msg 102 211 choice \$1;
#X obj 319 69 inlet~;
#X obj 253 145 mtof;
#X obj 253 167 nbx 5 14 -1e+37 1e+37 0 0 \$0-ramp_freq \$0-ramp_freq-set
empty 0 -8 0 10 -217086 -1 -1 329.628 256;
#X text 228 166 Hz;
#X obj 253 69 inlet;
#X obj 222 204 osc~;
#X obj 254 315 outlet~;
#X obj 254 267 polygate~ 5 200;
#X obj 274 227 adc~ 1;
#X obj 101 116 cnv 15 108 33 empty empty empty 20 12 0 14 -1 -66577
0;
#X obj 102 121 tof/menubutton 105 25 \$0-menu \$0-menu-set 1 black
red orange purple 0 \, seno \, saw \, mic \, sample;
#X obj 102 182 + 1;
#X msg 102 156 \$1;
#X obj 57 72 loadbang;
#X msg 57 98 0;
#X connect 0 0 9 1;
#X connect 1 0 9 0;
#X connect 2 0 9 3;
#X connect 3 0 4 0;
#X connect 4 0 0 0;
#X connect 4 0 7 0;
#X connect 6 0 3 0;
#X connect 7 0 9 0;
#X connect 9 0 8 0;
#X connect 10 0 9 2;
#X connect 12 0 14 0;
#X connect 13 0 1 0;
#X connect 14 0 13 0;
#X connect 15 0 16 0;
#X connect 16 0 12 0;
#X coords 0 -1 1 1 110 50 1 100 100;
#X restore 87 327 pd gate;
#X obj 65 634 output~;
#X text 245 107 O exemplo funciona então como uma espécie de analisador
espectral \, em que é possível visualizar a energia em cada banda de
frequência. A largura de cada banda é definida pelo parâmetro Q. As
frequências centrais estão dispostas em intervalos iguais de terças
maiores \, que dividem a oitava em 3 partes iguais. Temos então 3 filtros
por oitava e 8 oitavas. A frequência mais grave e o número MIDI 20
(em torno de 26Hz).;
#X text 317 263 À esquerda você pode escolher o som a ser analizado
\, entre um oscilador senoidal \, uma dente de serra \, um sample ou
a entrada de microfone.;
#X text 255 348 Abra o subpatch abaixo para entender melhor a implementação
do exemplo:;
#N canvas 15 83 774 411 band-analyzer 0;
#X obj 78 40 inlet~;
#X obj 79 362 outlet~;
#X obj 151 95 cnv 15 538 194 empty empty empty 20 12 0 14 -128992 -66577
0;
#X obj 636 245 nbx 3 18 3 500 0 0 empty empty empty 47 9 0 12 -261682
-1 -1 80.0023 256;
#X obj 156 101 vsl 15 180 20 100 0 0 empty \$0-amp-1 empty 0 -9 0 10
-228856 -1 -1 0 1;
#X obj 175 101 vsl 15 180 20 100 0 0 empty \$0-amp-2 empty 0 -9 0 10
-196150 -1 -1 0 1;
#X obj 195 101 vsl 15 180 20 100 0 0 empty \$0-amp-3 empty 0 -9 0 10
-196150 -1 -1 0 1;
#X obj 214 101 vsl 15 180 20 100 0 0 empty \$0-amp-4 empty 0 -9 0 10
-196150 -1 -1 0 1;
#X obj 234 101 vsl 15 180 20 100 0 0 empty \$0-amp-5 empty 0 -9 0 10
-196150 -1 -1 0 1;
#X obj 253 101 vsl 15 180 20 100 0 0 empty \$0-amp-6 empty 0 -9 0 10
-196150 -1 -1 0 1;
#X obj 273 101 vsl 15 180 20 100 0 0 empty \$0-amp-7 empty 0 -9 0 10
-196150 -1 -1 0 1;
#X obj 292 101 vsl 15 180 20 100 0 0 empty \$0-amp-8 empty 0 -9 0 10
-196150 -1 -1 0 1;
#X obj 312 101 vsl 15 180 20 100 0 0 empty \$0-amp-9 empty 0 -9 0 10
-228856 -1 -1 1311 1;
#X obj 331 101 vsl 15 180 20 100 0 0 empty \$0-amp-10 empty 0 -9 0
10 -196150 -1 -1 3055 1;
#X obj 351 101 vsl 15 180 20 100 0 0 empty \$0-amp-11 empty 0 -9 0
10 -196150 -1 -1 5849 1;
#X obj 370 101 vsl 15 180 20 100 0 0 empty \$0-amp-12 empty 0 -9 0
10 -196150 -1 -1 17226 1;
#X obj 390 101 vsl 15 180 20 100 0 0 empty \$0-amp-13 empty 0 -9 0
10 -196150 -1 -1 5847 1;
#X obj 409 101 vsl 15 180 20 100 0 0 empty \$0-amp-14 empty 0 -9 0
10 -196150 -1 -1 3056 1;
#X obj 429 101 vsl 15 180 20 100 0 0 empty \$0-amp-15 empty 0 -9 0
10 -196150 -1 -1 1313 1;
#X obj 448 101 vsl 15 180 20 100 0 0 empty \$0-amp-16 empty 0 -9 0
10 -196150 -1 -1 0 1;
#X obj 468 101 vsl 15 180 20 100 0 0 empty \$0-amp-17 empty 0 -9 0
10 -228856 -1 -1 0 1;
#X obj 487 101 vsl 15 180 20 100 0 0 empty \$0-amp-18 empty 0 -9 0
10 -196150 -1 -1 0 1;
#X obj 507 101 vsl 15 180 20 100 0 0 empty \$0-amp-19 empty 0 -9 0
10 -196150 -1 -1 0 1;
#X obj 526 101 vsl 15 180 20 100 0 0 empty \$0-amp-20 empty 0 -9 0
10 -196150 -1 -1 0 1;
#X obj 546 101 vsl 15 180 20 100 0 0 empty \$0-amp-21 empty 0 -9 0
10 -196150 -1 -1 0 1;
#X obj 565 101 vsl 15 180 20 100 0 0 empty \$0-amp-22 empty 0 -9 0
10 -196150 -1 -1 0 1;
#X obj 584 101 vsl 15 180 20 100 0 0 empty \$0-amp-23 empty 0 -9 0
10 -196150 -1 -1 0 1;
#X obj 603 101 vsl 15 180 20 100 0 0 empty \$0-amp-24 empty 0 -9 0
10 -196150 -1 -1 0 1;
#X obj 636 135 vsl 25 100 3 100 0 0 \$0-Q \$0-Q-set Q 5 -18 0 18 -261682
-1 -261682 7859 1;
#N canvas 283 29 1083 697 Banco_de_Filtros 0;
#X obj 577 88 r \$0-band-freq2;
#X obj 691 89 r \$0-band-freq3;
#X obj 799 89 r \$0-band-freq4;
#X obj 577 146 s \$0-amp-2;
#X obj 691 146 s \$0-amp-3;
#X obj 799 147 s \$0-amp-4;
#X text 37 102 Temos à direita 24 Filtros Passa Banda \, cada um em
um subpatch ([pd bandpass]). Cada subpatch recebe uma freuência central
em MIDI e envia um valor de amplitude.;
#X obj 446 75 cnv 15 110 100 empty empty empty 20 12 0 14 -233017 -66577
0;
#X obj 453 89 r \$0-band-freq1;
#X obj 453 147 s \$0-amp-1;
#N canvas 97 23 524 507 bandpass 0;
#X obj 194 70 inlet;
#X obj 194 133 mtof;
#X obj 194 191 line~;
#X text 235 104 Frequência central do Filtro em MIDI;
#X obj 245 201 line~;
#X msg 245 178 \$1 10;
#X msg 194 168 \$1 10;
#X obj 147 246 reson~ 1;
#X obj 184 295 reson~ 1;
#X text 101 340 Análise de \; Amplitude:;
#X floatatom 184 400 0 0 0 0 - - -;
#X obj 183 436 outlet;
#X floatatom 194 104 5 0 0 0 - - -;
#X obj 245 154 r \$0-Q;
#X obj 109 155 r~ \$0-filter;
#X text 57 20 Temos aqui dois filtros [reson~] em cascata. A análise
é bem simples e trivial com o objeto [env~] \, nenhuma novidade.;
#X obj 184 351 env~;
#X connect 0 0 12 0;
#X connect 1 0 6 0;
#X connect 2 0 7 2;
#X connect 2 0 8 2;
#X connect 4 0 7 3;
#X connect 4 0 8 3;
#X connect 5 0 4 0;
#X connect 6 0 2 0;
#X connect 7 0 8 0;
#X connect 8 0 16 0;
#X connect 10 0 11 0;
#X connect 12 0 1 0;
#X connect 13 0 5 0;
#X connect 14 0 7 0;
#X connect 16 0 10 0;
#X restore 453 117 pd bandpass;
#N canvas 97 23 314 448 bandpass 0;
#X obj 127 46 inlet;
#X obj 127 109 mtof;
#X obj 127 167 line~;
#X text 47 20 Frequência central do Filtro em MIDI;
#X obj 178 177 line~;
#X msg 178 154 \$1 10;
#X msg 127 144 \$1 10;
#X obj 80 222 reson~ 1;
#X obj 117 271 reson~ 1;
#X text 34 316 Análise de \; Amplitude:;
#X floatatom 117 376 0 0 0 0 - - -;
#X obj 116 412 outlet;
#X floatatom 127 80 5 0 0 0 - - -;
#X obj 178 130 r \$0-Q;
#X obj 42 131 r~ \$0-filter;
#X obj 117 327 env~;
#X connect 0 0 12 0;
#X connect 1 0 6 0;
#X connect 2 0 7 2;
#X connect 2 0 8 2;
#X connect 4 0 7 3;
#X connect 4 0 8 3;
#X connect 5 0 4 0;
#X connect 6 0 2 0;
#X connect 7 0 8 0;
#X connect 8 0 15 0;
#X connect 10 0 11 0;
#X connect 12 0 1 0;
#X connect 13 0 5 0;
#X connect 14 0 7 0;
#X connect 15 0 10 0;
#X restore 577 117 pd bandpass;
#N canvas 97 23 314 448 bandpass 0;
#X obj 127 46 inlet;
#X obj 127 109 mtof;
#X obj 127 167 line~;
#X text 47 20 Frequência central do Filtro em MIDI;
#X obj 178 177 line~;
#X msg 178 154 \$1 10;
#X msg 127 144 \$1 10;
#X obj 80 222 reson~ 1;
#X obj 117 271 reson~ 1;
#X text 34 316 Análise de \; Amplitude:;
#X floatatom 117 376 0 0 0 0 - - -;
#X obj 116 412 outlet;
#X floatatom 127 80 5 0 0 0 - - -;
#X obj 178 130 r \$0-Q;
#X obj 42 131 r~ \$0-filter;
#X obj 117 327 env~;
#X connect 0 0 12 0;
#X connect 1 0 6 0;
#X connect 2 0 7 2;
#X connect 2 0 8 2;
#X connect 4 0 7 3;
#X connect 4 0 8 3;
#X connect 5 0 4 0;
#X connect 6 0 2 0;
#X connect 7 0 8 0;
#X connect 8 0 15 0;
#X connect 10 0 11 0;
#X connect 12 0 1 0;
#X connect 13 0 5 0;
#X connect 14 0 7 0;
#X connect 15 0 10 0;
#X restore 691 118 pd bandpass;
#N canvas 97 23 314 448 bandpass 0;
#X obj 127 46 inlet;
#X obj 127 109 mtof;
#X obj 127 167 line~;
#X text 47 20 Frequência central do Filtro em MIDI;
#X obj 178 177 line~;
#X msg 178 154 \$1 10;
#X msg 127 144 \$1 10;
#X obj 80 222 reson~ 1;
#X obj 117 271 reson~ 1;
#X text 34 316 Análise de \; Amplitude:;
#X floatatom 117 376 0 0 0 0 - - -;
#X obj 116 412 outlet;
#X floatatom 127 80 5 0 0 0 - - -;
#X obj 178 130 r \$0-Q;
#X obj 42 131 r~ \$0-filter;
#X obj 117 327 env~;
#X connect 0 0 12 0;
#X connect 1 0 6 0;
#X connect 2 0 7 2;
#X connect 2 0 8 2;
#X connect 4 0 7 3;
#X connect 4 0 8 3;
#X connect 5 0 4 0;
#X connect 6 0 2 0;
#X connect 7 0 8 0;
#X connect 8 0 15 0;
#X connect 10 0 11 0;
#X connect 12 0 1 0;
#X connect 13 0 5 0;
#X connect 14 0 7 0;
#X connect 15 0 10 0;
#X restore 799 116 pd bandpass;
#N canvas 97 23 506 461 bandpass 0;
#X obj 127 46 inlet;
#X obj 127 109 mtof;
#X obj 127 167 line~;
#X text 170 47 Frequência central do Filtro em MIDI;
#X obj 178 177 line~;
#X msg 178 154 \$1 10;
#X msg 127 144 \$1 10;
#X obj 80 222 reson~ 1;
#X obj 117 271 reson~ 1;
#X text 34 316 Análise de \; Amplitude:;
#X floatatom 117 376 0 0 0 0 - - -;
#X obj 116 412 outlet;
#X floatatom 127 80 5 0 0 0 - - -;
#X obj 178 130 r \$0-Q;
#X obj 42 131 r~ \$0-filter;
#X obj 117 327 env~;
#X connect 0 0 12 0;
#X connect 1 0 6 0;
#X connect 2 0 7 2;
#X connect 2 0 8 2;
#X connect 4 0 7 3;
#X connect 4 0 8 3;
#X connect 5 0 4 0;
#X connect 6 0 2 0;
#X connect 7 0 8 0;
#X connect 8 0 15 0;
#X connect 10 0 11 0;
#X connect 12 0 1 0;
#X connect 13 0 5 0;
#X connect 14 0 7 0;
#X connect 15 0 10 0;
#X restore 453 218 pd bandpass;
#N canvas 97 23 314 448 bandpass 0;
#X obj 127 46 inlet;
#X obj 127 109 mtof;
#X obj 127 167 line~;
#X text 47 20 Frequência central do Filtro em MIDI;
#X obj 178 177 line~;
#X msg 178 154 \$1 10;
#X msg 127 144 \$1 10;
#X obj 80 222 reson~ 1;
#X obj 117 271 reson~ 1;
#X text 34 316 Análise de \; Amplitude:;
#X floatatom 117 376 0 0 0 0 - - -;
#X obj 116 412 outlet;
#X floatatom 127 80 5 0 0 0 - - -;
#X obj 178 130 r \$0-Q;
#X obj 42 131 r~ \$0-filter;
#X obj 117 327 env~;
#X connect 0 0 12 0;
#X connect 1 0 6 0;
#X connect 2 0 7 2;
#X connect 2 0 8 2;
#X connect 4 0 7 3;
#X connect 4 0 8 3;
#X connect 5 0 4 0;
#X connect 6 0 2 0;
#X connect 7 0 8 0;
#X connect 8 0 15 0;
#X connect 10 0 11 0;
#X connect 12 0 1 0;
#X connect 13 0 5 0;
#X connect 14 0 7 0;
#X connect 15 0 10 0;
#X restore 577 218 pd bandpass;
#N canvas 97 23 314 448 bandpass 0;
#X obj 127 46 inlet;
#X obj 127 109 mtof;
#X obj 127 167 line~;
#X text 47 20 Frequência central do Filtro em MIDI;
#X obj 178 177 line~;
#X msg 178 154 \$1 10;
#X msg 127 144 \$1 10;
#X obj 80 222 reson~ 1;
#X obj 117 271 reson~ 1;
#X text 34 316 Análise de \; Amplitude:;
#X floatatom 117 376 0 0 0 0 - - -;
#X obj 116 412 outlet;
#X floatatom 127 80 5 0 0 0 - - -;
#X obj 178 130 r \$0-Q;
#X obj 42 131 r~ \$0-filter;
#X obj 117 327 env~;
#X connect 0 0 12 0;
#X connect 1 0 6 0;
#X connect 2 0 7 2;
#X connect 2 0 8 2;
#X connect 4 0 7 3;
#X connect 4 0 8 3;
#X connect 5 0 4 0;
#X connect 6 0 2 0;
#X connect 7 0 8 0;
#X connect 8 0 15 0;
#X connect 10 0 11 0;
#X connect 12 0 1 0;
#X connect 13 0 5 0;
#X connect 14 0 7 0;
#X connect 15 0 10 0;
#X restore 691 219 pd bandpass;
#N canvas 97 23 314 448 bandpass 0;
#X obj 127 46 inlet;
#X obj 127 109 mtof;
#X obj 127 167 line~;
#X text 47 20 Frequência central do Filtro em MIDI;
#X obj 178 177 line~;
#X msg 178 154 \$1 10;
#X msg 127 144 \$1 10;
#X obj 80 222 reson~ 1;
#X obj 117 271 reson~ 1;
#X text 34 316 Análise de \; Amplitude:;
#X floatatom 117 376 0 0 0 0 - - -;
#X obj 116 412 outlet;
#X floatatom 127 80 5 0 0 0 - - -;
#X obj 178 130 r \$0-Q;
#X obj 42 131 r~ \$0-filter;
#X obj 117 327 env~;
#X connect 0 0 12 0;
#X connect 1 0 6 0;
#X connect 2 0 7 2;
#X connect 2 0 8 2;
#X connect 4 0 7 3;
#X connect 4 0 8 3;
#X connect 5 0 4 0;
#X connect 6 0 2 0;
#X connect 7 0 8 0;
#X connect 8 0 15 0;
#X connect 10 0 11 0;
#X connect 12 0 1 0;
#X connect 13 0 5 0;
#X connect 14 0 7 0;
#X connect 15 0 10 0;
#X restore 799 217 pd bandpass;
#N canvas 97 23 506 461 bandpass 0;
#X obj 127 46 inlet;
#X obj 127 109 mtof;
#X obj 127 167 line~;
#X text 170 47 Frequência central do Filtro em MIDI;
#X obj 178 177 line~;
#X msg 178 154 \$1 10;
#X msg 127 144 \$1 10;
#X obj 80 222 reson~ 1;
#X obj 117 271 reson~ 1;
#X text 34 316 Análise de \; Amplitude:;
#X floatatom 117 376 0 0 0 0 - - -;
#X obj 116 412 outlet;
#X floatatom 127 80 5 0 0 0 - - -;
#X obj 178 130 r \$0-Q;
#X obj 42 131 r~ \$0-filter;
#X obj 117 327 env~;
#X connect 0 0 12 0;
#X connect 1 0 6 0;
#X connect 2 0 7 2;
#X connect 2 0 8 2;
#X connect 4 0 7 3;
#X connect 4 0 8 3;
#X connect 5 0 4 0;
#X connect 6 0 2 0;
#X connect 7 0 8 0;
#X connect 8 0 15 0;
#X connect 10 0 11 0;
#X connect 12 0 1 0;
#X connect 13 0 5 0;
#X connect 14 0 7 0;
#X connect 15 0 10 0;
#X restore 453 318 pd bandpass;
#N canvas 97 23 314 448 bandpass 0;
#X obj 127 46 inlet;
#X obj 127 109 mtof;
#X obj 127 167 line~;
#X text 47 20 Frequência central do Filtro em MIDI;
#X obj 178 177 line~;
#X msg 178 154 \$1 10;
#X msg 127 144 \$1 10;
#X obj 80 222 reson~ 1;
#X obj 117 271 reson~ 1;
#X text 34 316 Análise de \; Amplitude:;
#X floatatom 117 376 0 0 0 0 - - -;
#X obj 116 412 outlet;
#X floatatom 127 80 5 0 0 0 - - -;
#X obj 178 130 r \$0-Q;
#X obj 42 131 r~ \$0-filter;
#X obj 117 327 env~;
#X connect 0 0 12 0;
#X connect 1 0 6 0;
#X connect 2 0 7 2;
#X connect 2 0 8 2;
#X connect 4 0 7 3;
#X connect 4 0 8 3;
#X connect 5 0 4 0;
#X connect 6 0 2 0;
#X connect 7 0 8 0;
#X connect 8 0 15 0;
#X connect 10 0 11 0;
#X connect 12 0 1 0;
#X connect 13 0 5 0;
#X connect 14 0 7 0;
#X connect 15 0 10 0;
#X restore 577 318 pd bandpass;
#N canvas 97 23 314 448 bandpass 0;
#X obj 127 46 inlet;
#X obj 127 109 mtof;
#X obj 127 167 line~;
#X text 47 20 Frequência central do Filtro em MIDI;
#X obj 178 177 line~;
#X msg 178 154 \$1 10;
#X msg 127 144 \$1 10;
#X obj 80 222 reson~ 1;
#X obj 117 271 reson~ 1;
#X text 34 316 Análise de \; Amplitude:;
#X floatatom 117 376 0 0 0 0 - - -;
#X obj 116 412 outlet;
#X floatatom 127 80 5 0 0 0 - - -;
#X obj 178 130 r \$0-Q;
#X obj 42 131 r~ \$0-filter;
#X obj 117 327 env~;
#X connect 0 0 12 0;
#X connect 1 0 6 0;
#X connect 2 0 7 2;
#X connect 2 0 8 2;
#X connect 4 0 7 3;
#X connect 4 0 8 3;
#X connect 5 0 4 0;
#X connect 6 0 2 0;
#X connect 7 0 8 0;
#X connect 8 0 15 0;
#X connect 10 0 11 0;
#X connect 12 0 1 0;
#X connect 13 0 5 0;
#X connect 14 0 7 0;
#X connect 15 0 10 0;
#X restore 691 319 pd bandpass;
#N canvas 97 23 314 448 bandpass 0;
#X obj 127 46 inlet;
#X obj 127 109 mtof;
#X obj 127 167 line~;
#X text 47 20 Frequência central do Filtro em MIDI;
#X obj 178 177 line~;
#X msg 178 154 \$1 10;
#X msg 127 144 \$1 10;
#X obj 80 222 reson~ 1;
#X obj 117 271 reson~ 1;
#X text 34 316 Análise de \; Amplitude:;
#X floatatom 117 376 0 0 0 0 - - -;
#X obj 116 412 outlet;
#X floatatom 127 80 5 0 0 0 - - -;
#X obj 178 130 r \$0-Q;
#X obj 42 131 r~ \$0-filter;
#X obj 117 327 env~;
#X connect 0 0 12 0;
#X connect 1 0 6 0;
#X connect 2 0 7 2;
#X connect 2 0 8 2;
#X connect 4 0 7 3;
#X connect 4 0 8 3;
#X connect 5 0 4 0;
#X connect 6 0 2 0;
#X connect 7 0 8 0;
#X connect 8 0 15 0;
#X connect 10 0 11 0;
#X connect 12 0 1 0;
#X connect 13 0 5 0;
#X connect 14 0 7 0;
#X connect 15 0 10 0;
#X restore 799 317 pd bandpass;
#N canvas 97 23 506 461 bandpass 0;
#X obj 127 46 inlet;
#X obj 127 109 mtof;
#X obj 127 167 line~;
#X text 170 47 Frequência central do Filtro em MIDI;
#X obj 178 177 line~;
#X msg 178 154 \$1 10;
#X msg 127 144 \$1 10;
#X obj 80 222 reson~ 1;
#X obj 117 271 reson~ 1;
#X text 34 316 Análise de \; Amplitude:;
#X floatatom 117 376 0 0 0 0 - - -;
#X obj 116 412 outlet;
#X floatatom 127 80 5 0 0 0 - - -;
#X obj 178 130 r \$0-Q;
#X obj 42 131 r~ \$0-filter;
#X obj 117 327 env~;
#X connect 0 0 12 0;
#X connect 1 0 6 0;
#X connect 2 0 7 2;
#X connect 2 0 8 2;
#X connect 4 0 7 3;
#X connect 4 0 8 3;
#X connect 5 0 4 0;
#X connect 6 0 2 0;
#X connect 7 0 8 0;
#X connect 8 0 15 0;
#X connect 10 0 11 0;
#X connect 12 0 1 0;
#X connect 13 0 5 0;
#X connect 14 0 7 0;
#X connect 15 0 10 0;
#X restore 453 418 pd bandpass;
#N canvas 97 23 314 448 bandpass 0;
#X obj 127 46 inlet;
#X obj 127 109 mtof;
#X obj 127 167 line~;
#X text 47 20 Frequência central do Filtro em MIDI;
#X obj 178 177 line~;
#X msg 178 154 \$1 10;
#X msg 127 144 \$1 10;
#X obj 80 222 reson~ 1;
#X obj 117 271 reson~ 1;
#X text 34 316 Análise de \; Amplitude:;
#X floatatom 117 376 0 0 0 0 - - -;
#X obj 116 412 outlet;
#X floatatom 127 80 5 0 0 0 - - -;
#X obj 178 130 r \$0-Q;
#X obj 42 131 r~ \$0-filter;
#X obj 117 327 env~;
#X connect 0 0 12 0;
#X connect 1 0 6 0;
#X connect 2 0 7 2;
#X connect 2 0 8 2;
#X connect 4 0 7 3;
#X connect 4 0 8 3;
#X connect 5 0 4 0;
#X connect 6 0 2 0;
#X connect 7 0 8 0;
#X connect 8 0 15 0;
#X connect 10 0 11 0;
#X connect 12 0 1 0;
#X connect 13 0 5 0;
#X connect 14 0 7 0;
#X connect 15 0 10 0;
#X restore 577 418 pd bandpass;
#N canvas 97 23 314 448 bandpass 0;
#X obj 127 46 inlet;
#X obj 127 109 mtof;
#X obj 127 167 line~;
#X text 47 20 Frequência central do Filtro em MIDI;
#X obj 178 177 line~;
#X msg 178 154 \$1 10;
#X msg 127 144 \$1 10;
#X obj 80 222 reson~ 1;
#X obj 117 271 reson~ 1;
#X text 34 316 Análise de \; Amplitude:;
#X floatatom 117 376 0 0 0 0 - - -;
#X obj 116 412 outlet;
#X floatatom 127 80 5 0 0 0 - - -;
#X obj 178 130 r \$0-Q;
#X obj 42 131 r~ \$0-filter;
#X obj 117 327 env~;
#X connect 0 0 12 0;
#X connect 1 0 6 0;
#X connect 2 0 7 2;
#X connect 2 0 8 2;
#X connect 4 0 7 3;
#X connect 4 0 8 3;
#X connect 5 0 4 0;
#X connect 6 0 2 0;
#X connect 7 0 8 0;
#X connect 8 0 15 0;
#X connect 10 0 11 0;
#X connect 12 0 1 0;
#X connect 13 0 5 0;
#X connect 14 0 7 0;
#X connect 15 0 10 0;
#X restore 691 419 pd bandpass;
#N canvas 97 23 314 448 bandpass 0;
#X obj 127 46 inlet;
#X obj 127 109 mtof;
#X obj 127 167 line~;
#X text 47 20 Frequência central do Filtro em MIDI;
#X obj 178 177 line~;
#X msg 178 154 \$1 10;
#X msg 127 144 \$1 10;
#X obj 80 222 reson~ 1;
#X obj 117 271 reson~ 1;
#X text 34 316 Análise de \; Amplitude:;
#X floatatom 117 376 0 0 0 0 - - -;
#X obj 116 412 outlet;
#X floatatom 127 80 5 0 0 0 - - -;
#X obj 178 130 r \$0-Q;
#X obj 42 131 r~ \$0-filter;
#X obj 117 327 env~;
#X connect 0 0 12 0;
#X connect 1 0 6 0;
#X connect 2 0 7 2;
#X connect 2 0 8 2;
#X connect 4 0 7 3;
#X connect 4 0 8 3;
#X connect 5 0 4 0;
#X connect 6 0 2 0;
#X connect 7 0 8 0;
#X connect 8 0 15 0;
#X connect 10 0 11 0;
#X connect 12 0 1 0;
#X connect 13 0 5 0;
#X connect 14 0 7 0;
#X connect 15 0 10 0;
#X restore 799 417 pd bandpass;
#N canvas 97 23 506 461 bandpass 0;
#X obj 127 46 inlet;
#X obj 127 109 mtof;
#X obj 127 167 line~;
#X text 170 47 Frequência central do Filtro em MIDI;
#X obj 178 177 line~;
#X msg 178 154 \$1 10;
#X msg 127 144 \$1 10;
#X obj 80 222 reson~ 1;
#X obj 117 271 reson~ 1;
#X text 34 316 Análise de \; Amplitude:;
#X floatatom 117 376 0 0 0 0 - - -;
#X obj 116 412 outlet;
#X floatatom 127 80 5 0 0 0 - - -;
#X obj 178 130 r \$0-Q;
#X obj 42 131 r~ \$0-filter;
#X obj 117 327 env~;
#X connect 0 0 12 0;
#X connect 1 0 6 0;
#X connect 2 0 7 2;
#X connect 2 0 8 2;
#X connect 4 0 7 3;
#X connect 4 0 8 3;
#X connect 5 0 4 0;
#X connect 6 0 2 0;
#X connect 7 0 8 0;
#X connect 8 0 15 0;
#X connect 10 0 11 0;
#X connect 12 0 1 0;
#X connect 13 0 5 0;
#X connect 14 0 7 0;
#X connect 15 0 10 0;
#X restore 453 518 pd bandpass;
#N canvas 97 23 314 448 bandpass 0;
#X obj 127 46 inlet;
#X obj 127 109 mtof;
#X obj 127 167 line~;
#X text 47 20 Frequência central do Filtro em MIDI;
#X obj 178 177 line~;
#X msg 178 154 \$1 10;
#X msg 127 144 \$1 10;
#X obj 80 222 reson~ 1;
#X obj 117 271 reson~ 1;
#X text 34 316 Análise de \; Amplitude:;
#X floatatom 117 376 0 0 0 0 - - -;
#X obj 116 412 outlet;
#X floatatom 127 80 5 0 0 0 - - -;
#X obj 178 130 r \$0-Q;
#X obj 42 131 r~ \$0-filter;
#X obj 117 327 env~;
#X connect 0 0 12 0;
#X connect 1 0 6 0;
#X connect 2 0 7 2;
#X connect 2 0 8 2;
#X connect 4 0 7 3;
#X connect 4 0 8 3;
#X connect 5 0 4 0;
#X connect 6 0 2 0;
#X connect 7 0 8 0;
#X connect 8 0 15 0;
#X connect 10 0 11 0;
#X connect 12 0 1 0;
#X connect 13 0 5 0;
#X connect 14 0 7 0;
#X connect 15 0 10 0;
#X restore 577 518 pd bandpass;
#N canvas 97 23 314 448 bandpass 0;
#X obj 127 46 inlet;
#X obj 127 109 mtof;
#X obj 127 167 line~;
#X text 47 20 Frequência central do Filtro em MIDI;
#X obj 178 177 line~;
#X msg 178 154 \$1 10;
#X msg 127 144 \$1 10;
#X obj 80 222 reson~ 1;
#X obj 117 271 reson~ 1;
#X text 34 316 Análise de \; Amplitude:;
#X floatatom 117 376 0 0 0 0 - - -;
#X obj 116 412 outlet;
#X floatatom 127 80 5 0 0 0 - - -;
#X obj 178 130 r \$0-Q;
#X obj 42 131 r~ \$0-filter;
#X obj 117 327 env~;
#X connect 0 0 12 0;
#X connect 1 0 6 0;
#X connect 2 0 7 2;
#X connect 2 0 8 2;
#X connect 4 0 7 3;
#X connect 4 0 8 3;
#X connect 5 0 4 0;
#X connect 6 0 2 0;
#X connect 7 0 8 0;
#X connect 8 0 15 0;
#X connect 10 0 11 0;
#X connect 12 0 1 0;
#X connect 13 0 5 0;
#X connect 14 0 7 0;
#X connect 15 0 10 0;
#X restore 691 519 pd bandpass;
#N canvas 97 23 314 448 bandpass 0;
#X obj 127 46 inlet;
#X obj 127 109 mtof;
#X obj 127 167 line~;
#X text 47 20 Frequência central do Filtro em MIDI;
#X obj 178 177 line~;
#X msg 178 154 \$1 10;
#X msg 127 144 \$1 10;
#X obj 80 222 reson~ 1;
#X obj 117 271 reson~ 1;
#X text 34 316 Análise de \; Amplitude:;
#X floatatom 117 376 0 0 0 0 - - -;
#X obj 116 412 outlet;
#X floatatom 127 80 5 0 0 0 - - -;
#X obj 178 130 r \$0-Q;
#X obj 42 131 r~ \$0-filter;
#X obj 117 327 env~;
#X connect 0 0 12 0;
#X connect 1 0 6 0;
#X connect 2 0 7 2;
#X connect 2 0 8 2;
#X connect 4 0 7 3;
#X connect 4 0 8 3;
#X connect 5 0 4 0;
#X connect 6 0 2 0;
#X connect 7 0 8 0;
#X connect 8 0 15 0;
#X connect 10 0 11 0;
#X connect 12 0 1 0;
#X connect 13 0 5 0;
#X connect 14 0 7 0;
#X connect 15 0 10 0;
#X restore 799 517 pd bandpass;
#N canvas 97 23 506 461 bandpass 0;
#X obj 127 46 inlet;
#X obj 127 109 mtof;
#X obj 127 167 line~;
#X text 170 47 Frequência central do Filtro em MIDI;
#X obj 178 177 line~;
#X msg 178 154 \$1 10;
#X msg 127 144 \$1 10;
#X obj 80 222 reson~ 1;
#X obj 117 271 reson~ 1;
#X text 34 316 Análise de \; Amplitude:;
#X floatatom 117 376 0 0 0 0 - - -;
#X obj 116 412 outlet;
#X floatatom 127 80 5 0 0 0 - - -;
#X obj 178 130 r \$0-Q;
#X obj 42 131 r~ \$0-filter;
#X obj 117 327 env~;
#X connect 0 0 12 0;
#X connect 1 0 6 0;
#X connect 2 0 7 2;
#X connect 2 0 8 2;
#X connect 4 0 7 3;
#X connect 4 0 8 3;
#X connect 5 0 4 0;
#X connect 6 0 2 0;
#X connect 7 0 8 0;
#X connect 8 0 15 0;
#X connect 10 0 11 0;
#X connect 12 0 1 0;
#X connect 13 0 5 0;
#X connect 14 0 7 0;
#X connect 15 0 10 0;
#X restore 453 618 pd bandpass;
#N canvas 97 23 314 448 bandpass 0;
#X obj 127 46 inlet;
#X obj 127 109 mtof;
#X obj 127 167 line~;
#X text 47 20 Frequência central do Filtro em MIDI;
#X obj 178 177 line~;
#X msg 178 154 \$1 10;
#X msg 127 144 \$1 10;
#X obj 80 222 reson~ 1;
#X obj 117 271 reson~ 1;
#X text 34 316 Análise de \; Amplitude:;
#X floatatom 117 376 0 0 0 0 - - -;
#X obj 116 412 outlet;
#X floatatom 127 80 5 0 0 0 - - -;
#X obj 178 130 r \$0-Q;
#X obj 42 131 r~ \$0-filter;
#X obj 117 327 env~;
#X connect 0 0 12 0;
#X connect 1 0 6 0;
#X connect 2 0 7 2;
#X connect 2 0 8 2;
#X connect 4 0 7 3;
#X connect 4 0 8 3;
#X connect 5 0 4 0;
#X connect 6 0 2 0;
#X connect 7 0 8 0;
#X connect 8 0 15 0;
#X connect 10 0 11 0;
#X connect 12 0 1 0;
#X connect 13 0 5 0;
#X connect 14 0 7 0;
#X connect 15 0 10 0;
#X restore 577 618 pd bandpass;
#N canvas 97 23 314 448 bandpass 0;
#X obj 127 46 inlet;
#X obj 127 109 mtof;
#X obj 127 167 line~;
#X text 47 20 Frequência central do Filtro em MIDI;
#X obj 178 177 line~;
#X msg 178 154 \$1 10;
#X msg 127 144 \$1 10;
#X obj 80 222 reson~ 1;
#X obj 117 271 reson~ 1;
#X text 34 316 Análise de \; Amplitude:;
#X floatatom 117 376 0 0 0 0 - - -;
#X obj 116 412 outlet;
#X floatatom 127 80 5 0 0 0 - - -;
#X obj 178 130 r \$0-Q;
#X obj 42 131 r~ \$0-filter;
#X obj 117 327 env~;
#X connect 0 0 12 0;
#X connect 1 0 6 0;
#X connect 2 0 7 2;
#X connect 2 0 8 2;
#X connect 4 0 7 3;
#X connect 4 0 8 3;
#X connect 5 0 4 0;
#X connect 6 0 2 0;
#X connect 7 0 8 0;
#X connect 8 0 15 0;
#X connect 10 0 11 0;
#X connect 12 0 1 0;
#X connect 13 0 5 0;
#X connect 14 0 7 0;
#X connect 15 0 10 0;
#X restore 691 619 pd bandpass;
#N canvas 97 23 314 448 bandpass 0;
#X obj 127 46 inlet;
#X obj 127 109 mtof;
#X obj 127 167 line~;
#X text 47 20 Frequência central do Filtro em MIDI;
#X obj 178 177 line~;
#X msg 178 154 \$1 10;
#X msg 127 144 \$1 10;
#X obj 80 222 reson~ 1;
#X obj 117 271 reson~ 1;
#X text 34 316 Análise de \; Amplitude:;
#X floatatom 117 376 0 0 0 0 - - -;
#X obj 116 412 outlet;
#X floatatom 127 80 5 0 0 0 - - -;
#X obj 178 130 r \$0-Q;
#X obj 42 131 r~ \$0-filter;
#X obj 117 327 env~;
#X connect 0 0 12 0;
#X connect 1 0 6 0;
#X connect 2 0 7 2;
#X connect 2 0 8 2;
#X connect 4 0 7 3;
#X connect 4 0 8 3;
#X connect 5 0 4 0;
#X connect 6 0 2 0;
#X connect 7 0 8 0;
#X connect 8 0 15 0;
#X connect 10 0 11 0;
#X connect 12 0 1 0;
#X connect 13 0 5 0;
#X connect 14 0 7 0;
#X connect 15 0 10 0;
#X restore 799 617 pd bandpass;
#X obj 160 461 until;
#X obj 160 487 f;
#X obj 237 566 + 1;
#X obj 182 590 pack float float \$0;
#X msg 223 458 0;
#X obj 160 535 t f b;
#X obj 196 557 float;
#X obj 160 386 loadbang;
#X obj 160 438 trigger f b;
#X text 230 494 step;
#X text 86 513 bottom-freq;
#X msg 182 612 \; \$3-band-freq\$2 \$1;
#X msg 160 415 24;
#X obj 197 496 + 4;
#X obj 160 514 + 20;
#X text 41 233 Temos aqui um contador que roda 24 vezes. O "bottom-freq"
é o número de partida \, e "step" o tamanho do incremento. Esses números
serão usados como frequência em MIDI e são enviados para a frequência
central dos filtros Pasa Banda.;
#X text 40 298 Um segundo contador gera números de 1 a 24 que são inseridos
dentro do símbolo que indica o endereço de envio do dado. É assim que
é possível endereçar cada número para um filtro Passa Banda diferente.
;
#X text 41 152 Abra o primeiro subpatch (realçado em um fundo cinza)
para entender melhor a implementação. Mas antes veja abaixo a lógica
que gera as frequências centrais.;
#X text 37 204 ============================================================
;
#X obj 453 190 r \$0-band-freq5;
#X obj 577 190 r \$0-band-freq6;
#X obj 691 190 r \$0-band-freq7;
#X obj 799 190 r \$0-band-freq8;
#X obj 453 290 r \$0-band-freq9;
#X obj 577 289 r \$0-band-freq10;
#X obj 691 290 r \$0-band-freq11;
#X obj 799 290 r \$0-band-freq12;
#X obj 453 390 r \$0-band-freq13;
#X obj 577 389 r \$0-band-freq14;
#X obj 691 390 r \$0-band-freq15;
#X obj 799 390 r \$0-band-freq16;
#X obj 453 490 r \$0-band-freq17;
#X obj 577 489 r \$0-band-freq18;
#X obj 691 490 r \$0-band-freq19;
#X obj 799 490 r \$0-band-freq20;
#X obj 453 248 s \$0-amp-5;
#X obj 577 247 s \$0-amp-6;
#X obj 691 247 s \$0-amp-7;
#X obj 799 248 s \$0-amp-8;
#X obj 453 348 s \$0-amp-9;
#X obj 577 347 s \$0-amp-10;
#X obj 691 347 s \$0-amp-11;
#X obj 799 348 s \$0-amp-12;
#X obj 453 448 s \$0-amp-13;
#X obj 577 447 s \$0-amp-14;
#X obj 691 447 s \$0-amp-15;
#X obj 799 448 s \$0-amp-16;
#X obj 453 548 s \$0-amp-17;
#X obj 577 547 s \$0-amp-18;
#X obj 691 547 s \$0-amp-19;
#X obj 799 548 s \$0-amp-20;
#X obj 453 648 s \$0-amp-21;
#X obj 577 647 s \$0-amp-22;
#X obj 691 647 s \$0-amp-23;
#X obj 799 648 s \$0-amp-24;
#X obj 939 194 s~ \$0-filter;
#X obj 938 16 inlet~;
#X obj 453 590 r \$0-band-freq21;
#X obj 577 589 r \$0-band-freq22;
#X obj 691 590 r \$0-band-freq23;
#X obj 799 590 r \$0-band-freq24;
#X connect 0 0 11 0;
#X connect 1 0 12 0;
#X connect 2 0 13 0;
#X connect 8 0 10 0;
#X connect 10 0 9 0;
#X connect 11 0 3 0;
#X connect 12 0 4 0;
#X connect 13 0 5 0;
#X connect 14 0 69 0;
#X connect 15 0 70 0;
#X connect 16 0 71 0;
#X connect 17 0 72 0;
#X connect 18 0 73 0;
#X connect 19 0 74 0;
#X connect 20 0 75 0;
#X connect 21 0 76 0;
#X connect 22 0 77 0;
#X connect 23 0 78 0;
#X connect 24 0 79 0;
#X connect 25 0 80 0;
#X connect 26 0 81 0;
#X connect 27 0 82 0;
#X connect 28 0 83 0;
#X connect 29 0 84 0;
#X connect 30 0 85 0;
#X connect 31 0 86 0;
#X connect 32 0 87 0;
#X connect 33 0 88 0;
#X connect 34 0 35 0;
#X connect 35 0 47 0;
#X connect 35 0 48 0;
#X connect 36 0 37 1;
#X connect 36 0 40 1;
#X connect 37 0 45 0;
#X connect 38 0 35 1;
#X connect 38 0 40 1;
#X connect 39 0 37 0;
#X connect 39 1 40 0;
#X connect 40 0 36 0;
#X connect 41 0 46 0;
#X connect 42 0 34 0;
#X connect 42 1 38 0;
#X connect 46 0 42 0;
#X connect 47 0 35 1;
#X connect 48 0 39 0;
#X connect 53 0 14 0;
#X connect 54 0 15 0;
#X connect 55 0 16 0;
#X connect 56 0 17 0;
#X connect 57 0 18 0;
#X connect 58 0 19 0;
#X connect 59 0 20 0;
#X connect 60 0 21 0;
#X connect 61 0 22 0;
#X connect 62 0 23 0;
#X connect 63 0 24 0;
#X connect 64 0 25 0;
#X connect 65 0 26 0;
#X connect 66 0 27 0;
#X connect 67 0 28 0;
#X connect 68 0 29 0;
#X connect 90 0 89 0;
#X connect 91 0 30 0;
#X connect 92 0 31 0;
#X connect 93 0 32 0;
#X connect 94 0 33 0;
#X restore 126 324 pd Banco_de_Filtros;
#X text 257 323 <=== Abra e confira a implementação;
#X connect 0 0 1 0;
#X connect 0 0 29 0;
#X connect 28 0 3 0;
#X coords 0 -1 1 1 540 213 1 150 80;
#X restore 87 396 pd band-analyzer;
#X obj 672 480 \$0;
#X obj 672 450 loadbang;
#X msg 672 502 \; \$1-Q-set 80 \; \$1-note-set 64;
#X text 245 24 Este exemplo serve mais como base para o Vocoder. Temos
aqui um banco de filtros com 24 filtros passa banda (objeto [reson~]).
Analisamos a amplitude da saída de cada filtro do banco e jogamos o
valor em dB nos sliders abaixo para visualização.;
#X connect 0 0 3 0;
#X connect 2 0 3 1;
#X connect 3 0 8 0;
#X connect 8 0 4 0;
#X connect 8 0 4 1;
#X connect 9 0 11 0;
#X connect 10 0 9 0;
