#N canvas 134 221 1187 601 10;
#X obj 220 155 hsl 128 15 0.1 0.9 0 0 empty empty empty -2 -8 0 10
-167145 -1 -1 0 1;
#X floatatom 217 182 5 0 0 0 - - -;
#X text 232 135 Tamanho do Pulso;
#X obj 177 326 Scope~ 130 130 256 3 128 -1 1 0 0 0 0 102 255 51 135
135 135 0;
#X obj 78 314 *~;
#X obj 78 247 osc~ 440;
#X obj 65 360 output~;
#X obj 177 213 train~ 500 0.6;
#X obj 301 235 hsl 128 15 100 2000 1 0 empty empty empty -2 -8 0 10
-228856 -1 -1 0 1;
#X obj 177 270 slide~ 500 500;
#X obj 503 90 *~ 0.5;
#X obj 503 113 +~ 0.5;
#X obj 657 88 /~ 2;
#X obj 657 114 sin~;
#X obj 503 146 Scope~ 130 130 256 3 128 -1 1 0 0 0 0 102 255 51 135
135 135 0;
#X obj 657 146 Scope~ 130 130 256 3 128 -1 1 0 0 0 0 102 255 51 135
135 135 0;
#X obj 808 146 Scope~ 130 130 256 3 128 -1 1 0 0 0 0 102 255 51 135
135 135 0;
#X obj 960 148 Scope~ 130 130 256 3 128 -1 1 0 0 0 0 102 255 51 135
135 135 0;
#X obj 960 56 phasor~ 2;
#X obj 960 81 trapezoid~ 0.33 0.66;
#X msg 878 45 lo 0;
#X obj 878 23 loadbang;
#X obj 657 63 phasor~ 2;
#X obj 503 64 osc~ 2;
#X text 588 108 hann;
#X text 727 114 Seno;
#X text 826 113 triangular;
#X text 987 119 trapezóide;
#X obj 808 35 phasor~ 2;
#X text 198 300 Trem de pulsos;
#X obj 458 385 expr~ if($v1 < 0 \, 0 \, $v1);
#X obj 458 414 Scope~ 130 130 256 3 128 -1 1 0 0 0 0 102 255 51 135
135 135 0;
#X obj 458 357 osc~ 2;
#X obj 1005 350 hsl 128 15 0.25 0.05 1 1 empty empty empty -2 -8 0
10 -203904 -1 -1 0 1;
#X obj 717 372 triangle~ 1;
#X floatatom 1002 374 5 0 0 0 - - -;
#X msg 1002 403 \$1 10;
#X obj 717 346 phasor~ 2;
#X obj 717 437 Scope~ 130 130 256 3 128 -1 1 0 0 0 0 102 255 51 135
135 135 0;
#X obj 1002 431 line~;
#X text 856 367 Gaussiana;
#X obj 808 77 triangle~;
#X floatatom 1046 50 5 0 0 0 - - -;
#X obj 1003 26 hsl 128 15 0 1 0 0 empty empty empty -2 -8 0 10 -203904
-1 -1 0 1;
#X text 81 44 A seguir uma série de exmeplo com objetos e fnções já
vistos. Abaixo temos um Trem de Pulsos como um envelope em loop. Porém
\, para evitar clicks \, é bom usar um [slide~] para suavizar a mudança
de áudio \, o que funciona como um controle de ataque/release.;
#X obj 717 404 expr~ exp(pow($v1 \, 2) / (2 * -pow($v2 \, 2)));
#X text 507 357 Somente parte positiva;
#X text 45 501 Veja outras opções ao lado. É bom notar que uma frequência
mais alta (acima de 20Hz) gera uma modulação de amplitude.;
#X connect 0 0 1 0;
#X connect 1 0 7 1;
#X connect 4 0 6 1;
#X connect 4 0 6 0;
#X connect 5 0 4 0;
#X connect 7 0 9 0;
#X connect 8 0 9 2;
#X connect 8 0 9 1;
#X connect 9 0 3 0;
#X connect 9 0 4 1;
#X connect 10 0 11 0;
#X connect 11 0 14 0;
#X connect 12 0 13 0;
#X connect 13 0 15 0;
#X connect 18 0 19 0;
#X connect 19 0 17 0;
#X connect 20 0 41 0;
#X connect 21 0 20 0;
#X connect 22 0 12 0;
#X connect 23 0 10 0;
#X connect 28 0 41 0;
#X connect 30 0 31 0;
#X connect 32 0 30 0;
#X connect 33 0 35 0;
#X connect 34 0 45 0;
#X connect 35 0 36 0;
#X connect 36 0 39 0;
#X connect 37 0 34 0;
#X connect 39 0 45 1;
#X connect 41 0 16 0;
#X connect 42 0 19 1;
#X connect 42 0 19 2;
#X connect 43 0 42 0;
#X connect 45 0 38 0;
