#N canvas 874 72 488 515 10;
#X obj 128 341 Scope~ 130 130 256 3 128 -1 1 0 0 0 0 102 255 51 135
135 135 0;
#X msg 198 137 lo 0;
#X obj 198 115 loadbang;
#X obj 128 127 phasor~ 2;
#X obj 128 302 fade~ _sin;
#X msg 278 132 set _lin;
#X msg 278 153 set _linsqrt;
#X msg 278 174 set _sqrt;
#X msg 278 194 set _sin;
#X msg 279 215 set _sinhann;
#X msg 279 237 set _hann;
#X obj 128 169 triangle~;
#X text 86 51 Uma onda triangular em um objeto [fade~] tambeem pode
gerar diversos envelopes em loop.;
#X connect 1 0 11 0;
#X connect 2 0 1 0;
#X connect 3 0 11 0;
#X connect 4 0 0 0;
#X connect 5 0 4 0;
#X connect 6 0 4 0;
#X connect 7 0 4 0;
#X connect 8 0 4 0;
#X connect 9 0 4 0;
#X connect 10 0 4 0;
#X connect 11 0 4 0;
