#N canvas 165 23 1089 709 10;
#X obj 670 244 v2db;
#X floatatom 670 268 0 0 0 0 - - -;
#X obj 43 537 cnv 15 498 148 empty empty empty 20 12 0 14 -216631 -66577
0;
#N canvas 0 22 450 300 (subpatch) 0;
#X array \$0-Fase 8192 float 0;
#X coords 0 3.14 8191 -3.14 500 150 1;
#X restore 42 536 graph;
#X obj 40 368 cnv 15 498 148 empty empty empty 20 12 0 14 -262011 -66577
0;
#N canvas 0 22 450 300 (subpatch) 0;
#X array \$0-Amp 8192 float 0;
#X coords 0 9.99884 8192 0 500 150 1;
#X restore 39 367 graph;
#X obj 145 300 tabplay~ \$0-IR;
#X obj 145 277 bng 15 250 50 0 empty empty empty 17 7 0 10 -204786
-1 -1;
#X obj 144 328 dac~;
#X text 166 275 Tocar IR;
#X obj 317 139 hsl 128 15 0.001 0.999 0 0 feedback fb empty -2 -6 0
8 -204800 -1 -1 11440 1;
#X text 352 120 feedback;
#X obj 246 142 nbx 5 14 20 1e+37 0 0 Hz hz-set empty 0 -8 0 10 -261809
-1 -1 400 256;
#X text 255 119 Hz;
#N canvas 81 160 548 498 FFT 0;
#X obj 227 108 bang~;
#X msg 290 171 1;
#X obj 57 106 rfft~;
#X msg 242 147 0;
#X obj 227 168 f;
#X obj 255 171 + 1;
#X msg 227 216 0;
#X obj 227 192 sel 1;
#X obj 335 267 switch~;
#X obj 206 76 trigger bang bang bang;
#X msg 335 170 set \$1 1;
#X obj 334 120 v w_size;
#X obj 57 72 tabreceive~ \$0-IR;
#X obj 57 133 cartopol~;
#X obj 57 207 tabwrite~ \$0-Amp;
#X obj 108 182 tabwrite~ \$0-Fase;
#X obj 206 7 inlet;
#X obj 407 162 / 2;
#X msg 407 185 resize \$1;
#X obj 407 238 s \$0-Amp;
#X obj 417 215 s \$0-Fase;
#X obj 165 444 s \$0-Amp;
#X obj 132 255 tabdump \$0-Amp;
#X obj 132 288 minmax;
#X obj 165 345 v w_size;
#X obj 165 371 / 2;
#X obj 165 396 pack;
#X msg 165 419 bounds 0 \$2 \$1 0;
#X obj 165 317 trigger bang float;
#X connect 0 0 4 0;
#X connect 1 0 8 0;
#X connect 2 0 13 0;
#X connect 2 1 13 1;
#X connect 3 0 4 1;
#X connect 4 0 5 0;
#X connect 4 0 7 0;
#X connect 5 0 4 1;
#X connect 6 0 8 0;
#X connect 7 0 6 0;
#X connect 7 0 22 0;
#X connect 9 0 14 0;
#X connect 9 0 15 0;
#X connect 9 1 1 0;
#X connect 9 2 3 0;
#X connect 9 2 11 0;
#X connect 10 0 8 0;
#X connect 11 0 10 0;
#X connect 11 0 17 0;
#X connect 12 0 2 0;
#X connect 13 0 14 0;
#X connect 13 1 15 0;
#X connect 16 0 9 0;
#X connect 17 0 18 0;
#X connect 18 0 19 0;
#X connect 18 0 20 0;
#X connect 22 0 23 0;
#X connect 23 1 28 0;
#X connect 24 0 25 0;
#X connect 25 0 26 0;
#X connect 26 0 27 0;
#X connect 27 0 21 0;
#X connect 28 0 24 0;
#X connect 28 1 26 1;
#X restore 306 310 pd FFT;
#X obj 306 281 bng 15 250 50 0 empty empty empty 17 7 0 10 -204800
-1 -1;
#N canvas 257 57 811 616 Gravar-IR 0;
#X msg 186 167 stop;
#X msg 134 167 start;
#X obj 54 208 expr $f1 * sr_khz;
#X obj 87 445 v w_size;
#X obj 54 289 expr (log($f1)/log(2));
#X floatatom 54 367 0 0 0 0 - - -;
#X obj 125 241 v length;
#X obj 54 244 t f f;
#X obj 72 468 s window-size;
#X obj 54 311 expr int($f1 + 1);
#X msg 93 394 resize \$1;
#X obj 93 418 s \$0-IR;
#X obj 54 337 expr pow(2 \, $f1);
#X obj 76 133 select 1 0;
#X obj 174 199 tabwrite~ \$0-IR;
#X obj 76 104 change;
#X msg 198 273 resize \$1;
#X msg 267 294 resize 88200;
#X obj 267 268 loadbang;
#X obj 198 327 s \$0-IR;
#X obj 54 178 timer;
#X obj 174 14 inlet~;
#X obj 76 58 env~ 2048 1024;
#X obj 174 95 delay~ 1024 1024;
#X obj 76 82 > 0;
#X text 385 155 Gravamos na tabela somente quando a análise de amplitude
RMS é maior que 0dB.;
#X text 385 195 Encontramos a maior potencia de dois acima do tamanho
do IR e redimensionamos a tabela gravada para análise.;
#X obj 270 397 cnv 15 198 98 empty empty empty 20 12 0 14 -233017 -66577
0;
#N canvas 0 22 450 300 (subpatch) 0;
#X array \$0-IR 88200 float 0;
#X coords 0 1 88199 -1 200 100 1;
#X restore 269 396 graph;
#X obj 197 56 dac~;
#X connect 0 0 14 0;
#X connect 1 0 14 0;
#X connect 2 0 7 0;
#X connect 4 0 9 0;
#X connect 5 0 8 0;
#X connect 5 0 3 0;
#X connect 5 0 10 0;
#X connect 7 0 4 0;
#X connect 7 1 6 0;
#X connect 7 1 16 0;
#X connect 9 0 12 0;
#X connect 10 0 11 0;
#X connect 12 0 5 0;
#X connect 13 0 1 0;
#X connect 13 0 20 0;
#X connect 13 1 0 0;
#X connect 13 1 20 1;
#X connect 15 0 13 0;
#X connect 16 0 19 0;
#X connect 17 0 19 0;
#X connect 18 0 17 0;
#X connect 20 0 2 0;
#X connect 21 0 22 0;
#X connect 21 0 23 0;
#X connect 21 0 29 0;
#X connect 21 0 29 1;
#X connect 22 0 24 0;
#X connect 23 0 14 0;
#X connect 24 0 15 0;
#X restore 194 235 pd Gravar-IR;
#X text 327 278 Analisar;
#X obj 194 117 bng 15 250 50 0 empty empty empty 17 7 0 10 -261234
-1 -1;
#X text 77 115 Gerar e Gravar IR;
#X text 103 14 Abaixo gravamos um IR gerado por um Comb Filter. Você
pode tocar o IR e depois analisar para ver a resposta de frequência
e o formato de pente que temos na tabela de amplitude!;
#X obj 194 141 click~;
#X floatatom 670 219 0 0 0 0 - feedback -;
#X floatatom 749 254 0 0 0 0 - Hz -;
#X obj 749 283 expr 1 / $f1;
#X obj 670 291 t b f;
#X obj 776 328 v del_t;
#X obj 697 314 v dB;
#X obj 749 307 t b f;
#X text 610 218 feedback;
#X text 778 252 hertz;
#X text 832 285 período em seg;
#X obj 706 357 expr 60 * del_t/-dB;
#X text 672 381 T60;
#X obj 706 381 nbx 8 16 -1e+37 1e+37 0 0 empty empty empty 0 -8 0 12
-203904 -1 -1 0.163883 256;
#X obj 706 451 db2v;
#X floatatom 706 473 0 0 0 0 - - -;
#N canvas 217 82 501 518 Comb-Filter-IIR 0;
#X obj 221 335 block~ 1;
#X obj 135 415 outlet~;
#X obj 190 296 *~;
#X obj 135 332 +~;
#X obj 190 239 line~;
#X msg 190 212 \$1 10;
#X obj 135 91 inlet~;
#X obj 300 300 line~;
#X msg 300 273 \$1 10;
#X obj 190 90 inlet;
#X obj 300 91 inlet;
#X text 192 68 tempo;
#X text 291 70 feedback;
#X text 133 67 input;
#X obj 190 140 expr 1000 / $f1;
#X obj 190 269 vd~ \$0-fb3;
#X obj 165 371 delwrite~ \$0-fb3 1000;
#X connect 2 0 3 1;
#X connect 3 0 1 0;
#X connect 3 0 16 0;
#X connect 4 0 15 0;
#X connect 5 0 4 0;
#X connect 6 0 3 0;
#X connect 7 0 2 1;
#X connect 8 0 7 0;
#X connect 9 0 14 0;
#X connect 10 0 8 0;
#X connect 14 0 5 0;
#X connect 15 0 2 0;
#X restore 194 202 pd Comb-Filter-IIR;
#N canvas 97 23 272 339 init 0;
#X msg 70 215 \; pd dsp 1 \; hz-set 400 \; fb 0.9;
#X obj 70 72 t b b;
#X msg 97 166 \; pd dsp 1;
#X obj 108 96 samplerate~;
#X obj 108 118 / 1000;
#X obj 108 143 v sr_khz;
#X obj 70 46 loadbang;
#X connect 1 0 0 0;
#X connect 1 1 3 0;
#X connect 1 1 2 0;
#X connect 3 0 4 0;
#X connect 4 0 5 0;
#X connect 6 0 1 0;
#X restore 319 200 pd init;
#X obj 706 408 expr -60 * del_t/$f1 \; exp(log(0.001) * del_t/$f1)
;
#X floatatom 865 449 0 0 0 0 - - -;
#X obj 314 164 nbx 8 14 -1e+37 1e+37 0 0 empty fb-set empty 0 -8 0
10 -204800 -1 -1 0.899986 256;
#X msg 706 499 \; fb set \$1 \; fb-set \$1;
#X text 614 77 Como um bom filtro ressonante \, é possível também calcular
o tempo de amortecimento após a excitação do filtro com o objeto [click~].
;
#X text 613 131 Confira abaixo a fórmula do cálculo do tempo de decaimento
de 60dB (T60) em função do tempo de delay e valor do coeficiente de
feedback.;
#X text 643 571 A conversão de T60 para coeficiente de feedback também
é dada acima. Desse modo \, dado uma frequência ou período de delay
\, é possível especificar o valor de feedback a partir do tempo de
ressonância (T60).;
#X text 875 421 <= outra fórmula equivalente;
#X connect 0 0 1 0;
#X connect 1 0 25 0;
#X connect 6 0 8 0;
#X connect 6 0 8 1;
#X connect 7 0 6 0;
#X connect 10 0 41 0;
#X connect 12 0 37 1;
#X connect 15 0 14 0;
#X connect 18 0 21 0;
#X connect 21 0 37 0;
#X connect 22 0 0 0;
#X connect 23 0 24 0;
#X connect 24 0 28 0;
#X connect 25 0 32 0;
#X connect 25 1 27 0;
#X connect 28 0 32 0;
#X connect 28 1 26 0;
#X connect 32 0 34 0;
#X connect 34 0 39 0;
#X connect 35 0 36 0;
#X connect 36 0 42 0;
#X connect 37 0 16 0;
#X connect 39 0 35 0;
#X connect 39 1 40 0;
#X connect 41 0 37 2;
