#N canvas 134 29 1003 702 10;
#X obj 21 56 cnv 15 375 20 empty empty empty 20 12 0 14 -233017 -66577
0;
#X text 30 57 y[n] = a0 * x[n] + a2 * x[n-2]) + b1 * y[n-1] + b2 *
y[n-2];
#N canvas 74 96 603 581 Z-Plane-biquad 0;
#X obj 101 101 cnv 15 450 450 empty empty empty 20 12 1 14 -191407
-66577 0;
#X obj 176 176 bng 300 1000 1000 0 \$0-bng \$0-bng-set empty 17 7 0
10 -191407 -245500 -1;
#N canvas 0 22 450 300 (subpatch) 0;
#X coords 0 1 100 -1 75 75 1;
#X restore 101 101 graph;
#N canvas 0 22 450 300 (subpatch) 0;
#X coords 0 1 100 -1 75 75 1;
#X restore 176 101 graph;
#N canvas 0 22 450 300 (subpatch) 0;
#X coords 0 1 100 -1 75 75 1;
#X restore 251 101 graph;
#N canvas 0 22 450 300 (subpatch) 0;
#X coords 0 1 100 -1 75 75 1;
#X restore 326 101 graph;
#N canvas 0 22 450 300 (subpatch) 0;
#X coords 0 1 100 -1 75 75 1;
#X restore 401 101 graph;
#N canvas 0 22 450 300 (subpatch) 0;
#X coords 0 1 100 -1 75 75 1;
#X restore 476 101 graph;
#N canvas 0 22 450 300 (subpatch) 0;
#X coords 0 1 100 -1 75 75 1;
#X restore 101 176 graph;
#N canvas 0 22 450 300 (subpatch) 0;
#X coords 0 1 100 -1 75 75 1;
#X restore 176 176 graph;
#N canvas 0 22 450 300 (subpatch) 0;
#X coords 0 1 100 -1 75 75 1;
#X restore 251 176 graph;
#N canvas 0 22 450 300 (subpatch) 0;
#X coords 0 1 100 -1 75 75 1;
#X restore 326 176 graph;
#N canvas 0 22 450 300 (subpatch) 0;
#X coords 0 1 100 -1 75 75 1;
#X restore 401 176 graph;
#N canvas 0 22 450 300 (subpatch) 0;
#X coords 0 1 100 -1 75 75 1;
#X restore 476 176 graph;
#N canvas 0 22 450 300 (subpatch) 0;
#X coords 0 1 100 -1 75 75 1;
#X restore 101 251 graph;
#N canvas 0 22 450 300 (subpatch) 0;
#X coords 0 1 100 -1 75 75 1;
#X restore 176 251 graph;
#N canvas 0 22 450 300 (subpatch) 0;
#X coords 0 1 100 -1 75 75 1;
#X restore 251 251 graph;
#N canvas 0 22 450 300 (subpatch) 0;
#X coords 0 1 100 -1 75 75 1;
#X restore 326 251 graph;
#N canvas 0 22 450 300 (subpatch) 0;
#X coords 0 1 100 -1 75 75 1;
#X restore 401 251 graph;
#N canvas 0 22 450 300 (subpatch) 0;
#X coords 0 1 100 -1 75 75 1;
#X restore 476 251 graph;
#N canvas 0 22 450 300 (subpatch) 0;
#X coords 0 1 100 -1 75 75 1;
#X restore 101 326 graph;
#N canvas 0 22 450 300 (subpatch) 0;
#X coords 0 1 100 -1 75 75 1;
#X restore 176 326 graph;
#N canvas 0 22 450 300 (subpatch) 0;
#X coords 0 1 100 -1 75 75 1;
#X restore 251 326 graph;
#N canvas 0 22 450 300 (subpatch) 0;
#X coords 0 1 100 -1 75 75 1;
#X restore 326 326 graph;
#N canvas 0 22 450 300 (subpatch) 0;
#X coords 0 1 100 -1 75 75 1;
#X restore 401 326 graph;
#N canvas 0 22 450 300 (subpatch) 0;
#X coords 0 1 100 -1 75 75 1;
#X restore 476 326 graph;
#N canvas 0 22 450 300 (subpatch) 0;
#X coords 0 1 100 -1 75 75 1;
#X restore 101 401 graph;
#N canvas 0 22 450 300 (subpatch) 0;
#X coords 0 1 100 -1 75 75 1;
#X restore 176 401 graph;
#N canvas 0 22 450 300 (subpatch) 0;
#X coords 0 1 100 -1 75 75 1;
#X restore 251 401 graph;
#N canvas 0 22 450 300 (subpatch) 0;
#X coords 0 1 100 -1 75 75 1;
#X restore 326 401 graph;
#N canvas 0 22 450 300 (subpatch) 0;
#X coords 0 1 100 -1 75 75 1;
#X restore 401 401 graph;
#N canvas 0 22 450 300 (subpatch) 0;
#X coords 0 1 100 -1 75 75 1;
#X restore 476 401 graph;
#N canvas 0 22 450 300 (subpatch) 0;
#X coords 0 1 100 -1 75 75 1;
#X restore 101 476 graph;
#N canvas 0 22 450 300 (subpatch) 0;
#X coords 0 1 100 -1 75 75 1;
#X restore 176 476 graph;
#N canvas 0 22 450 300 (subpatch) 0;
#X coords 0 1 100 -1 75 75 1;
#X restore 251 476 graph;
#N canvas 0 22 450 300 (subpatch) 0;
#X coords 0 1 100 -1 75 75 1;
#X restore 326 476 graph;
#N canvas 0 22 450 300 (subpatch) 0;
#X coords 0 1 100 -1 75 75 1;
#X restore 401 476 graph;
#N canvas 0 22 450 300 (subpatch) 0;
#X coords 0 1 100 -1 75 75 1;
#X restore 476 476 graph;
#X obj 325 101 cnv 1 2 450 empty empty empty 20 12 0 14 -258113 -66577
0;
#X obj 100 325 cnv 1 450 2 empty empty empty 20 12 0 14 -258113 -66577
0;
#X obj 177 177 cnv 15 15 15 empty \$0-pole1 X 292 139 0 14 -191407
-66577 0;
#X obj 177 177 cnv 15 15 15 empty \$0-zero1 O 293 150 0 14 -191407
-66577 0;
#X obj 177 177 cnv 15 15 15 empty \$0-pole2 X 292 160 0 14 -191407
-66577 0;
#X obj 177 177 cnv 15 15 15 empty \$0-zero2 O -3 150 0 14 -191407 -66577
0;
#N canvas 576 25 310 167 z-plane 0;
#N canvas 502 195 417 257 BiquadCoefficients_to_Poles-Zeros 0;
#X msg 323 134 \$3;
#X text 352 132 gain;
#X obj 36 182 outlet;
#X obj 48 155 outlet;
#X obj 106 186 outlet;
#X obj 109 161 outlet;
#X obj 173 183 outlet;
#X obj 177 158 outlet;
#X obj 238 182 outlet;
#X obj 245 154 outlet;
#X obj 36 38 trigger list list;
#X obj 36 10 inlet;
#N canvas 256 22 607 380 Poles_&_Zeros 0;
#X obj 62 21 inlet;
#X text 67 324 polo 1;
#X text 106 20 a1 a2 b0 b1 b2;
#X text 177 324 polo 2;
#X text 246 325 zero 1;
#X text 357 324 zero 2;
#X obj 488 172 v kIm_\$0;
#X obj 269 174 v kRe_\$0;
#X obj 70 280 outlet;
#X obj 62 304 outlet;
#X obj 180 280 outlet;
#X obj 172 304 outlet;
#X obj 249 280 outlet;
#X obj 242 304 outlet;
#X obj 360 280 outlet;
#X obj 352 304 outlet;
#X obj 269 130 expr if($f1 >= 0 \, sqrt(abs($f1)) \, 0) \; if($f1 <
0 \, sqrt(abs($f1)) \, 0);
#X obj 62 203 expr ($f1 + kRe_\$0) / 2 \; kIm_\$0 / 2 \; ($f1 - kRe_\$0)
/ 2 \; 0 - kIm_\$0 / 2;
#X obj 242 203 expr ($f1 + kRe_\$0) / 2 \; kIm_\$0 / 2 \; ($f1 - kRe_\$0)
/ 2 \; 0 - kIm_\$0 / 2;
#X obj 62 50 expr $f1 \; pow($f1 \, 2) + (4 * $f2) \; -$f4 / $f3 \;
pow($f4 / $f3 \, 2) - (4 * $f5 / $f3);
#X text 324 89 zeros são divididos pelo ganho!!!!!;
#X connect 0 0 19 0;
#X connect 16 0 7 0;
#X connect 16 1 6 0;
#X connect 17 0 9 0;
#X connect 17 1 8 0;
#X connect 17 2 11 0;
#X connect 17 3 10 0;
#X connect 18 0 13 0;
#X connect 18 1 12 0;
#X connect 18 2 15 0;
#X connect 18 3 14 0;
#X connect 19 0 17 0;
#X connect 19 1 16 0;
#X connect 19 2 18 0;
#X connect 19 3 16 0;
#X restore 36 63 pd Poles_&_Zeros;
#X obj 323 175 s \$0-gain;
#X connect 0 0 13 0;
#X connect 10 0 12 0;
#X connect 10 1 0 0;
#X connect 11 0 10 0;
#X connect 12 0 2 0;
#X connect 12 1 3 0;
#X connect 12 2 4 0;
#X connect 12 3 5 0;
#X connect 12 4 6 0;
#X connect 12 5 7 0;
#X connect 12 6 8 0;
#X connect 12 7 9 0;
#X restore 36 70 pd BiquadCoefficients_to_Poles-Zeros;
#N canvas 349 405 696 221 GUI_(PLOT-POLES-AND-ZEROS) 0;
#X obj 37 44 inlet;
#X obj 88 44 inlet;
#X obj 138 44 inlet;
#X obj 189 43 inlet;
#X obj 243 43 inlet;
#X obj 294 43 inlet;
#X obj 352 43 inlet;
#X obj 403 42 inlet;
#N canvas 314 269 1082 494 Poles 0;
#X obj 183 305 s \$0-pole1;
#X obj 183 251 pack;
#X msg 183 277 label_pos \$1 \$2;
#X obj 183 165 * 150;
#X obj 180 197 + 150;
#X obj 238 214 + 150;
#X obj 177 224 - 5;
#X obj 190 58 inlet;
#X obj 265 57 inlet;
#X obj 311 88 r \$0-P1-im;
#X obj 61 104 r \$0-P1-re;
#X obj 231 169 * -150;
#X msg 387 364 set \$1;
#X obj 387 388 s \$0-p1-sl-set;
#X obj 805 256 pack;
#X msg 805 282 label_pos \$1 \$2;
#X obj 805 170 * 150;
#X obj 802 202 + 150;
#X obj 860 219 + 150;
#X obj 799 229 - 5;
#X obj 812 63 inlet;
#X obj 887 62 inlet;
#X obj 853 174 * -150;
#X obj 805 310 s \$0-pole2;
#X obj 683 109 r \$0-P2-re;
#X obj 933 93 r \$0-P2-im;
#X msg 671 364 set \$1;
#X obj 651 392 s \$0-p2-sl-set;
#X obj 520 193 ==;
#X obj 338 293 expr if ($f1 == $f3 \, sqrt($f1*$f1 + $f2*$f2) \, ($f1
/ 2) + 0.5) \; if ($f1 == $f3 \, atan2($f2 \, $f1) / pi_\$0 \, ($f3
/ 2) + 0.5) \;;
#X obj 520 215 s \$0-pair_p-set;
#X connect 1 0 2 0;
#X connect 2 0 0 0;
#X connect 3 0 4 0;
#X connect 4 0 6 0;
#X connect 5 0 1 1;
#X connect 6 0 1 0;
#X connect 7 0 3 0;
#X connect 7 0 28 0;
#X connect 7 0 29 0;
#X connect 8 0 11 0;
#X connect 8 0 29 1;
#X connect 9 0 11 0;
#X connect 10 0 3 0;
#X connect 11 0 5 0;
#X connect 12 0 13 0;
#X connect 14 0 15 0;
#X connect 15 0 23 0;
#X connect 16 0 17 0;
#X connect 17 0 19 0;
#X connect 18 0 14 1;
#X connect 19 0 14 0;
#X connect 20 0 16 0;
#X connect 20 0 28 1;
#X connect 20 0 29 2;
#X connect 21 0 22 0;
#X connect 22 0 18 0;
#X connect 24 0 16 0;
#X connect 25 0 22 0;
#X connect 26 0 27 0;
#X connect 28 0 30 0;
#X connect 29 0 12 0;
#X connect 29 1 26 0;
#X restore 93 98 pd Poles;
#N canvas 187 175 1207 527 Zeros 0;
#X obj 183 251 pack;
#X msg 183 277 label_pos \$1 \$2;
#X obj 183 165 * 150;
#X obj 180 197 + 150;
#X obj 238 214 + 150;
#X obj 177 224 - 5;
#X obj 190 58 inlet;
#X obj 265 57 inlet;
#X obj 231 169 * -150;
#X obj 183 305 s \$0-zero1;
#X obj 61 104 r \$0-Z1-re;
#X obj 373 84 r \$0-Z1-im;
#X obj 372 291 expr if ($f1 == $f3 \, sqrt($f1*$f1 + $f2*$f2) \, ($f1
/ 2) + 0.5) \; if ($f1 == $f3 \, atan2($f2 \, $f1) / pi_\$0 \, ($f3
/ 2) + 0.5) \;;
#X obj 821 281 pack;
#X msg 821 307 label_pos \$1 \$2;
#X obj 821 195 * 150;
#X obj 818 227 + 150;
#X obj 876 244 + 150;
#X obj 815 254 - 5;
#X obj 828 88 inlet;
#X obj 903 87 inlet;
#X obj 869 199 * -150;
#X obj 821 335 s \$0-zero2;
#X obj 699 134 r \$0-Z2-re;
#X obj 949 118 r \$0-Z2-im;
#X obj 547 150 ==;
#X msg 415 364 set \$1;
#X obj 395 395 s \$0-z1-sl-set;
#X msg 648 362 set \$1;
#X obj 619 397 s \$0-z2-sl-set;
#X obj 547 174 s \$0-pair_z-set;
#X floatatom 962 220 5 0 0 0 - - -;
#X floatatom 961 273 5 0 0 0 - - -;
#X floatatom 578 206 5 0 0 0 - - -;
#X floatatom 577 259 5 0 0 0 - - -;
#X obj 837 363 expr abs($f1) > 1.5 || abs($f2) > 1.5;
#X obj 838 390 sel 1 0;
#X msg 850 431 label O;
#X msg 749 402 label;
#X obj 94 368 expr abs($f1) > 1.5 || abs($f2) > 1.5;
#X obj 95 395 sel 1 0;
#X msg 107 436 label O;
#X msg 59 432 label;
#X connect 0 0 1 0;
#X connect 1 0 9 0;
#X connect 2 0 3 0;
#X connect 3 0 5 0;
#X connect 4 0 0 1;
#X connect 5 0 0 0;
#X connect 6 0 2 0;
#X connect 6 0 25 0;
#X connect 6 0 12 0;
#X connect 6 0 33 0;
#X connect 6 0 39 0;
#X connect 7 0 8 0;
#X connect 7 0 12 1;
#X connect 7 0 34 0;
#X connect 7 0 39 1;
#X connect 8 0 4 0;
#X connect 10 0 2 0;
#X connect 11 0 8 0;
#X connect 12 0 26 0;
#X connect 12 1 28 0;
#X connect 13 0 14 0;
#X connect 14 0 22 0;
#X connect 15 0 16 0;
#X connect 16 0 18 0;
#X connect 17 0 13 1;
#X connect 18 0 13 0;
#X connect 19 0 15 0;
#X connect 19 0 25 1;
#X connect 19 0 12 2;
#X connect 19 0 32 0;
#X connect 20 0 21 0;
#X connect 20 0 31 0;
#X connect 21 0 17 0;
#X connect 23 0 15 0;
#X connect 24 0 21 0;
#X connect 25 0 30 0;
#X connect 26 0 27 0;
#X connect 28 0 29 0;
#X connect 31 0 35 1;
#X connect 32 0 35 0;
#X connect 35 0 36 0;
#X connect 36 0 38 0;
#X connect 36 1 37 0;
#X connect 37 0 22 0;
#X connect 38 0 22 0;
#X connect 39 0 40 0;
#X connect 40 0 42 0;
#X connect 40 1 41 0;
#X connect 41 0 9 0;
#X connect 42 0 9 0;
#X restore 322 89 pd Zeros;
#N canvas 14 68 1299 625 GUI 0;
#X obj 117 211 s \$0-P1-im;
#X obj 6 211 s \$0-P1-re;
#X obj 228 211 s \$0-P2-re;
#X obj 339 211 s \$0-P2-im;
#X obj 924 205 s \$0-Z2-im;
#X obj 813 205 s \$0-Z2-re;
#X obj 702 205 s \$0-Z1-im;
#X obj 591 205 s \$0-Z1-re;
#X obj 591 122 expr if (z_pair_\$0 == 1 \, cos($f2 * pi_\$0) * $f1
\, $f1 *2 -1) \; if (z_pair_\$0 == 1 \, sin($f2 * pi_\$0) * $f1 \,
0) \; if (z_pair_\$0 == 1 \, cos($f2 * pi_\$0) * $f1 \, $f2 * 2 -1)
\; if (z_pair_\$0 == 1 \, sin($f2 * pi_\$0) * -$f1 \, 0);
#X obj 6 131 expr if (p_pair_\$0 == 1 \, cos($f2 * pi_\$0) * $f1 \,
$f1 *2 -1) \; if (p_pair_\$0 == 1 \, sin($f2 * pi_\$0) * $f1 \, 0)
\; if (p_pair_\$0 == 1 \, cos($f2 * pi_\$0) * $f1 \, $f2 * 2 -1) \;
if (p_pair_\$0 == 1 \, sin($f2 * pi_\$0) * -$f1 \, 0);
#X obj 486 205 s \$0-coef;
#X obj 234 73 trigger bang float;
#X obj 234 45 r \$0-p2-sl;
#X obj 6 104 r \$0-p1-sl;
#X obj 234 101 s \$0-p1-sl-set;
#X obj 1073 156 s \$0-bng-set;
#X obj 1073 106 tgl 15 0 empty empty empty 17 7 0 10 -1 -262144 -1
1 1;
#X obj 1073 130 metro 1000;
#X obj 1073 81 loadbang;
#X obj 486 67 r \$0-z1-sl;
#X obj 819 65 trigger bang float;
#X obj 819 37 r \$0-z2-sl;
#X obj 819 93 s \$0-z1-sl-set;
#X obj 486 92 trigger bang float;
#X obj 363 62 r \$0-p2-sl-set;
#X obj 363 85 route set;
#X obj 952 73 route set;
#X obj 952 50 r \$0-z2-sl-set;
#X obj 1004 314 v z_pair_\$0;
#X obj 898 309 v p_pair_\$0;
#X obj 895 274 r \$0-pair_p;
#X obj 1013 271 r \$0-pair_z;
#X obj 629 319 unpack;
#X obj 671 366 s \$0-z2-sl-set;
#X msg 671 344 set \$1;
#X obj 631 449 s \$0-z1-sl-set;
#X msg 629 292 1 \$1;
#X obj 627 365 t f f;
#X obj 678 406 s \$0-pair_z-set;
#X msg 517 397 -1 1 0;
#X obj 517 433 unpack f f f;
#X obj 547 496 s \$0-z2-sl-set;
#X msg 547 474 set \$1;
#X obj 523 542 s \$0-z1-sl-set;
#X obj 465 264 r \$0-type;
#X obj 381 303 sel 3 2;
#X msg 424 378 1;
#X obj 400 527 s \$0-z1-sl-set;
#X obj 418 488 s \$0-pair_z-set;
#X obj 259 428 spigot;
#X msg 350 374 0;
#X obj 354 405 tgl 15 0 empty empty empty 17 7 0 10 -262144 -1 -1 0
1;
#X obj 284 458 f;
#X obj 385 430 t f b f;
#X obj 286 533 s \$0-z2-sl-set;
#X msg 305 502 set \$1;
#X floatatom 492 324 5 0 0 0 - - -;
#X obj 795 459 s \$0-p1-sl-set;
#X msg 828 429 label amp;
#X msg 815 403 label amp_1;
#X msg 953 435 label angle;
#X msg 915 412 label amp_2;
#X obj 920 465 s \$0-p2-sl-set;
#X obj 868 336 sel 0 1;
#X msg 1067 440 label amp;
#X msg 1054 414 label amp_1;
#X msg 1192 446 label angle;
#X msg 1154 423 label amp_2;
#X obj 1107 347 sel 0 1;
#X obj 1034 470 s \$0-z1-sl-set;
#X obj 1159 476 s \$0-z2-sl-set;
#X obj 1166 114 expr atan(1) * 4;
#X obj 1166 145 v pi_\$0;
#X obj 447 327 sel 4;
#X obj 506 364 s \$0-reset;
#X obj 683 490 r \$0-reset;
#X msg 683 513 0.5;
#X obj 688 536 t f f;
#X msg 735 527 0;
#X obj 686 564 t f f;
#X obj 782 543 s \$0-pair_p-set;
#X msg 730 312 set \$1;
#X obj 730 334 s \$0-p2-sl-set;
#X obj 683 590 s \$0-p1-sl-set;
#X connect 8 0 7 0;
#X connect 8 1 6 0;
#X connect 8 2 5 0;
#X connect 8 3 4 0;
#X connect 9 0 1 0;
#X connect 9 1 0 0;
#X connect 9 2 2 0;
#X connect 9 3 3 0;
#X connect 11 0 14 0;
#X connect 11 1 9 1;
#X connect 11 1 49 0;
#X connect 11 1 52 1;
#X connect 12 0 11 0;
#X connect 13 0 9 0;
#X connect 16 0 17 0;
#X connect 17 0 15 0;
#X connect 18 0 16 0;
#X connect 18 0 71 0;
#X connect 19 0 23 0;
#X connect 20 0 22 0;
#X connect 20 1 8 1;
#X connect 21 0 20 0;
#X connect 23 0 10 0;
#X connect 23 1 8 0;
#X connect 24 0 25 0;
#X connect 25 0 9 1;
#X connect 26 0 8 1;
#X connect 27 0 26 0;
#X connect 30 0 29 0;
#X connect 30 0 63 0;
#X connect 31 0 28 0;
#X connect 31 0 68 0;
#X connect 32 0 37 0;
#X connect 32 1 34 0;
#X connect 34 0 33 0;
#X connect 36 0 32 0;
#X connect 37 0 35 0;
#X connect 37 1 38 0;
#X connect 39 0 40 0;
#X connect 40 0 43 0;
#X connect 40 1 42 0;
#X connect 40 2 38 0;
#X connect 42 0 41 0;
#X connect 44 0 45 0;
#X connect 44 0 56 0;
#X connect 45 0 46 0;
#X connect 45 1 39 0;
#X connect 45 1 50 0;
#X connect 45 2 36 0;
#X connect 45 2 50 0;
#X connect 45 2 73 0;
#X connect 46 0 53 0;
#X connect 46 0 51 0;
#X connect 49 0 54 0;
#X connect 50 0 51 0;
#X connect 51 0 49 1;
#X connect 52 0 55 0;
#X connect 53 0 47 0;
#X connect 53 1 52 0;
#X connect 53 2 48 0;
#X connect 55 0 54 0;
#X connect 58 0 57 0;
#X connect 59 0 57 0;
#X connect 60 0 62 0;
#X connect 61 0 62 0;
#X connect 63 0 59 0;
#X connect 63 0 61 0;
#X connect 63 1 58 0;
#X connect 63 1 60 0;
#X connect 64 0 69 0;
#X connect 65 0 69 0;
#X connect 66 0 70 0;
#X connect 67 0 70 0;
#X connect 68 0 65 0;
#X connect 68 0 67 0;
#X connect 68 1 64 0;
#X connect 68 1 66 0;
#X connect 71 0 72 0;
#X connect 73 0 74 0;
#X connect 75 0 76 0;
#X connect 76 0 77 0;
#X connect 77 0 79 0;
#X connect 77 1 34 0;
#X connect 77 1 78 0;
#X connect 77 1 81 0;
#X connect 78 0 38 0;
#X connect 78 0 80 0;
#X connect 79 0 83 0;
#X connect 79 1 35 0;
#X connect 81 0 82 0;
#X restore 590 89 pd GUI;
#X connect 0 0 8 0;
#X connect 1 0 8 1;
#X connect 2 0 8 2;
#X connect 3 0 8 3;
#X connect 4 0 9 0;
#X connect 5 0 9 1;
#X connect 6 0 9 2;
#X connect 7 0 9 3;
#X restore 36 100 pd GUI_(PLOT-POLES-AND-ZEROS);
#X obj 36 34 r \$0-coefficients;
#X connect 0 0 1 0;
#X connect 0 1 1 1;
#X connect 0 2 1 2;
#X connect 0 3 1 3;
#X connect 0 4 1 4;
#X connect 0 5 1 5;
#X connect 0 6 1 6;
#X connect 0 7 1 7;
#X connect 2 0 0 0;
#X restore 191 67 pd z-plane;
#X coords 0 -1 1 1 452 452 2 100 100;
#X restore 483 239 pd Z-Plane-biquad;
#X obj 134 365 hsl 128 15 0 1 0 0 empty ganho empty -2 -8 0 10 -204786
-1 -1 0 1;
#N canvas 0 22 450 300 output 0;
#X obj 206 206 *~;
#X obj 225 175 line~;
#X msg 225 149 \$1 10;
#X obj 225 113 pow 4;
#X obj 190 245 dac~;
#X obj 226 60 inlet;
#X obj 177 60 inlet~;
#X connect 0 0 4 0;
#X connect 0 0 4 1;
#X connect 1 0 0 1;
#X connect 2 0 1 0;
#X connect 3 0 2 0;
#X connect 5 0 3 0;
#X connect 6 0 0 0;
#X restore 80 388 pd output;
#X obj 210 311 nbx 5 14 1 100 0 0 \$0-Q \$0-Q-Set empty 0 -8 0 10 -261234
-1 -1 5 256;
#X obj 142 311 nbx 5 14 20 20000 0 0 \$0-freq \$0-freq-set empty 0
-8 0 10 -261682 -1 -1 500 256;
#X obj 145 286 hsl 200 15 20 20000 1 0 empty \$0-freq-slider-set empty
-2 -8 0 10 -261682 -1 -1 9273 1;
#X obj 26 265 noise~;
#X text 172 285 Frequência central (Hz);
#X obj 80 334 reson~ 1 500 0.5;
#X text 269 309 Q;
#X obj 83 277 nbx 5 14 0.125 8 0 0 \$0-ganho \$0-ganho-Set empty 0
-8 0 10 -262130 -1 -1 0.999931 256;
#X obj 86 256 hsl 128 15 0.125 8 0 0 empty \$0-g-set empty -2 -8 0
10 -262130 -1 -1 1411 1;
#N canvas 535 118 742 448 poles&zeros 0;
#X obj 127 122 inlet;
#X text 113 387 polo 1;
#X obj 127 151 expr $f1 \; pow($f1 \, 2) + (4 * $f2) \; -$f4 / $f3
\; pow($f4 / $f3 \, 2) - (4 * $f5 / $f3);
#X text 207 387 polo 2;
#X text 271 387 zero 1;
#X text 365 387 zero 2;
#X obj 416 234 expr if($f1 >= 0 \, sqrt(abs($f1)) \, 0) \; if($f1 <
0 \, sqrt(abs($f1)) \, 0);
#X obj 107 369 outlet;
#X obj 201 370 outlet;
#X obj 265 369 outlet;
#X obj 359 369 outlet;
#X obj 367 340 outlet;
#X obj 273 340 outlet;
#X obj 209 340 outlet;
#X obj 115 340 outlet;
#X text 168 121 (a1 a2 b0 b1 b2);
#X obj 416 272 v Re_\$0;
#X obj 635 270 v Im_\$0;
#X obj 107 247 expr ($f1 + Re_\$0) / 2 \; Im_\$0 / 2 \; ($f1 - Re_\$0)
/ 2 \; -Im_\$0 / 2;
#X obj 265 247 expr ($f1 + Re_\$0) / 2 \; Im_\$0 / 2 \; ($f1 - Re_\$0)
/ 2 \; -Im_\$0 / 2;
#X text 91 24 Neste subpatch \, extraímos também os zeros além dos
polos. O cálculo dos zeros segue a mesma estrutura do cálculo dos polos
apresentado anteriormente. A única diferença é um ajuste de acordo
com o coeficiente de ganho b0 para os zeros.;
#X connect 0 0 2 0;
#X connect 2 0 18 0;
#X connect 2 1 6 0;
#X connect 2 2 19 0;
#X connect 2 3 6 0;
#X connect 6 0 16 0;
#X connect 6 1 17 0;
#X connect 18 0 7 0;
#X connect 18 1 14 0;
#X connect 18 2 8 0;
#X connect 18 3 13 0;
#X connect 19 0 9 0;
#X connect 19 1 12 0;
#X connect 19 2 10 0;
#X connect 19 3 11 0;
#X restore 230 445 pd poles&zeros;
#X msg 198 445 \$3;
#X obj 183 472 *~;
#X obj 252 576 czero~;
#X obj 274 608 czero~;
#X obj 208 516 cpole~;
#X obj 230 544 cpole~;
#N canvas 896 23 356 578 coeficientes 1;
#X text 91 103 Hz;
#X obj 113 130 expr $f1 * 2*pi / sr;
#X obj 72 230 t b f;
#X obj 99 254 v r;
#X obj 113 157 t b f;
#X obj 140 181 v w;
#X obj 72 184 nbx 5 14 -1e+37 1e+37 0 0 empty \$0-Q empty 0 -8 0 10
-262144 -1 -1 5 256;
#X obj 113 106 nbx 5 14 -1e+37 1e+37 0 0 empty \$0-freq empty 0 -8
0 10 -262144 -1 -1 500 256;
#X obj 50 447 outlet;
#N canvas 105 31 380 298 init 0;
#X obj 123 184 s \$0-freq-slider-set;
#X msg 123 136 500;
#X obj 301 92 pi;
#X obj 301 116 v pi;
#X obj 222 116 v sr;
#X obj 222 94 samplerate~;
#X obj 123 37 loadbang;
#X obj 123 60 trigger bang bang;
#X msg 164 130 5;
#X obj 163 152 s \$0-Q-Set;
#X obj 76 218 s \$0-g-set;
#X msg 76 195 1;
#X connect 1 0 0 0;
#X connect 2 0 3 0;
#X connect 5 0 4 0;
#X connect 6 0 7 0;
#X connect 7 0 8 0;
#X connect 7 0 1 0;
#X connect 7 0 11 0;
#X connect 7 1 5 0;
#X connect 7 1 2 0;
#X connect 8 0 9 0;
#X connect 11 0 10 0;
#X restore 221 258 pd init;
#X obj 140 358 v a0;
#X msg 50 389 \$3 \$4 \$2 0 \$1;
#X obj 50 358 pack f f f f;
#X text 46 182 Q;
#X obj 72 208 expr exp(w * -1/$f1);
#X obj 72 280 expr -r * a0 \; (1 - r) * g \; 2 * r * cos(w) \; -(r*r)
;
#X obj 183 99 v g;
#X obj 156 75 t b f;
#X obj 156 48 r \$0-ganho;
#X obj 80 423 s \$0-coefficients;
#X obj 140 383 v a2;
#X obj 184 355 v b1;
#X obj 228 355 v b2;
#X connect 1 0 4 0;
#X connect 2 0 15 0;
#X connect 2 1 3 0;
#X connect 4 0 6 0;
#X connect 4 1 5 0;
#X connect 6 0 14 0;
#X connect 7 0 1 0;
#X connect 11 0 8 0;
#X connect 11 0 19 0;
#X connect 12 0 11 0;
#X connect 14 0 2 0;
#X connect 15 0 12 0;
#X connect 15 0 20 0;
#X connect 15 1 10 0;
#X connect 15 1 12 1;
#X connect 15 2 12 2;
#X connect 15 2 21 0;
#X connect 15 3 12 3;
#X connect 15 3 22 0;
#X connect 17 0 7 0;
#X connect 17 1 16 0;
#X connect 18 0 17 0;
#X restore 230 419 pd coeficientes;
#X obj 274 638 output~;
#X obj 183 407 noise~;
#X text 30 13 O [reson~] é um filtro ressonante de segunda ordem. Sua
fórmula é:;
#X obj 460 241 vsl 22 157 0 3.5 0 0 \$0-gain-send \$0-gain empty 0
-9 0 10 -66577 -258113 -1 63 1;
#X obj 467 289 cnv 5 5 5 empty empty G 0 0 0 14 -66577 -262144 0;
#X obj 467 305 cnv 5 5 5 empty empty A 0 0 0 14 -66577 -262144 0;
#X obj 467 321 cnv 5 5 5 empty empty N 0 0 0 14 -66577 -262144 0;
#X obj 467 338 cnv 5 5 5 empty empty H 0 0 0 14 -66577 -262144 0;
#X obj 467 355 cnv 5 5 5 empty empty O 0 0 0 14 -66577 -262144 0;
#X text 132 255 Ganho;
#X floatatom 436 427 5 0 0 0 - - -;
#X text 31 90 Ele possui dois polos e dois zeros \, definidos pelos
parâmetros de Frequência Central e Q. O parâmetro de ganho é um coeficiente
que não interfere na disposição dos polos e zeros no Plano Z \, por
isso temos um slider à parte que acusa o valor de ganho. Perceba que
esse coeficiente de ganho não possui o mesmo valor do parâmetro de
ganho de entrada \, apesar de depender do mesmo.;
#X text 33 195 Abaixo temos o [reson~] e uma implementação a partir
de objetos de Polos e Zeros.;
#X obj 564 127 fexpr~ a0*$x + a2*$x[-2] + b1*$y[-1] + b2*$y[-2];
#X obj 564 98 noise~;
#X obj 559 164 output~;
#X text 488 32 Enfim \, abaixo \, uma implementação em [fexpr~] e a
disposição dos Polos e Zeros.;
#X connect 3 0 4 1;
#X connect 5 0 10 3;
#X connect 6 0 10 2;
#X connect 7 0 6 0;
#X connect 8 0 10 0;
#X connect 10 0 4 0;
#X connect 12 0 10 1;
#X connect 13 0 12 0;
#X connect 14 0 19 2;
#X connect 14 1 19 3;
#X connect 14 2 20 2;
#X connect 14 3 20 3;
#X connect 14 4 17 2;
#X connect 14 5 17 3;
#X connect 14 6 18 2;
#X connect 14 7 18 3;
#X connect 15 0 16 1;
#X connect 16 0 19 0;
#X connect 17 0 18 0;
#X connect 17 1 18 1;
#X connect 18 0 22 0;
#X connect 18 0 22 1;
#X connect 19 0 20 0;
#X connect 19 1 20 1;
#X connect 20 0 17 0;
#X connect 20 1 17 1;
#X connect 21 0 14 0;
#X connect 21 0 15 0;
#X connect 23 0 16 0;
#X connect 25 0 32 0;
#X connect 35 0 37 0;
#X connect 35 0 37 1;
#X connect 36 0 35 0;
