#N canvas 590 169 919 541 10;
#X obj 120 106 rpole~;
#X obj 120 81 rzero_rev~;
#X obj 120 155 rpole~;
#X obj 120 130 rzero_rev~;
#X obj 120 203 rpole~;
#X obj 120 178 rzero_rev~;
#X obj 120 252 rpole~;
#X obj 120 227 rzero_rev~;
#X obj 105 288 +~;
#X obj 207 97 r~ \$0-coef;
#X obj 318 211 s~ \$0-coef;
#X obj 204 139 r~ \$0-coef;
#X obj 202 182 r~ \$0-coef;
#X obj 204 239 r~ \$0-coef;
#X obj 105 320 output~;
#X text 448 45 O "Phaser" é um tipo de processamento muito querido
que consiste apenas em somar um sinal filtrado com um passa tudo com
o sinal original. O que ocorre assim são reforços e cancelamentos de
fase em algumas frequências dependendo da resposta de fase do filtro.
;
#X obj 104 52 blosc~ saw;
#X obj 318 136 triangle~ 0.5;
#X text 334 83 LFO;
#X text 449 128 A resposta de fase \, por sua vez \, depende do coeficiente
\, e esse coeficiente \, que está sendo controlado por um LFO \, para
dar mais movimento ao processamento. No caso \, estamos usndo uma onda
triangular gerando um sinal de 0.71 a 0.99 em uma frequência de 0.2
Hz.;
#X text 449 207 Perceba que o tipo de filtro Passa Tudo é o mesmo apresentado
no exemplo passado. Porém com mais estágios. Em vez de um sistema com
apenas um estágio de primeira ordem \, temos 4 desses estágios em cascata.
Isso quer dizer que esse é um sistema de quarta ordem!;
#X text 450 287 Muitas configurações e variações são possíveis. Podemos
ter qualquer outro número de estágios (6 \, 8 \, 10 \, 12 \, etc) e
é providencial criar efeitos de estéreo com tais variações.;
#N canvas 133 23 773 397 phaser-stereo 0;
#X obj 53 280 +~;
#X obj 53 81 blosc~ saw;
#N canvas 172 23 283 355 4stages 0;
#X obj 62 107 rpole~;
#X obj 62 82 rzero_rev~;
#X obj 62 156 rpole~;
#X obj 62 131 rzero_rev~;
#X obj 62 204 rpole~;
#X obj 62 179 rzero_rev~;
#X obj 62 253 rpole~;
#X obj 62 228 rzero_rev~;
#X obj 149 98 r~ \$0-coef;
#X obj 146 140 r~ \$0-coef;
#X obj 144 183 r~ \$0-coef;
#X obj 146 240 r~ \$0-coef;
#X obj 62 45 inlet~;
#X obj 62 283 outlet~;
#X connect 0 0 3 0;
#X connect 1 0 0 0;
#X connect 2 0 5 0;
#X connect 3 0 2 0;
#X connect 4 0 7 0;
#X connect 5 0 4 0;
#X connect 6 0 13 0;
#X connect 7 0 6 0;
#X connect 8 0 1 1;
#X connect 8 0 0 1;
#X connect 9 0 3 1;
#X connect 9 0 2 1;
#X connect 10 0 5 1;
#X connect 10 0 4 1;
#X connect 11 0 7 1;
#X connect 11 0 6 1;
#X connect 12 0 1 0;
#X restore 68 114 pd 4stages;
#N canvas 172 23 283 355 4stages 0;
#X obj 62 107 rpole~;
#X obj 62 82 rzero_rev~;
#X obj 62 156 rpole~;
#X obj 62 131 rzero_rev~;
#X obj 62 204 rpole~;
#X obj 62 179 rzero_rev~;
#X obj 62 253 rpole~;
#X obj 62 228 rzero_rev~;
#X obj 149 98 r~ \$0-coef;
#X obj 146 140 r~ \$0-coef;
#X obj 144 183 r~ \$0-coef;
#X obj 146 240 r~ \$0-coef;
#X obj 62 45 inlet~;
#X obj 62 283 outlet~;
#X connect 0 0 3 0;
#X connect 1 0 0 0;
#X connect 2 0 5 0;
#X connect 3 0 2 0;
#X connect 4 0 7 0;
#X connect 5 0 4 0;
#X connect 6 0 13 0;
#X connect 7 0 6 0;
#X connect 8 0 1 1;
#X connect 8 0 0 1;
#X connect 9 0 3 1;
#X connect 9 0 2 1;
#X connect 10 0 5 1;
#X connect 10 0 4 1;
#X connect 11 0 7 1;
#X connect 11 0 6 1;
#X connect 12 0 1 0;
#X restore 80 145 pd 4stages;
#N canvas 172 23 283 355 4stages 0;
#X obj 62 107 rpole~;
#X obj 62 82 rzero_rev~;
#X obj 62 156 rpole~;
#X obj 62 131 rzero_rev~;
#X obj 62 204 rpole~;
#X obj 62 179 rzero_rev~;
#X obj 62 253 rpole~;
#X obj 62 228 rzero_rev~;
#X obj 149 98 r~ \$0-coef;
#X obj 146 140 r~ \$0-coef;
#X obj 144 183 r~ \$0-coef;
#X obj 146 240 r~ \$0-coef;
#X obj 62 45 inlet~;
#X obj 62 283 outlet~;
#X connect 0 0 3 0;
#X connect 1 0 0 0;
#X connect 2 0 5 0;
#X connect 3 0 2 0;
#X connect 4 0 7 0;
#X connect 5 0 4 0;
#X connect 6 0 13 0;
#X connect 7 0 6 0;
#X connect 8 0 1 1;
#X connect 8 0 0 1;
#X connect 9 0 3 1;
#X connect 9 0 2 1;
#X connect 10 0 5 1;
#X connect 10 0 4 1;
#X connect 11 0 7 1;
#X connect 11 0 6 1;
#X connect 12 0 1 0;
#X restore 91 182 pd 4stages;
#X obj 53 341 outlet~;
#X obj 212 284 +~;
#X obj 210 89 blosc~ saw;
#N canvas 172 23 283 355 4stages 0;
#X obj 62 107 rpole~;
#X obj 62 82 rzero_rev~;
#X obj 62 156 rpole~;
#X obj 62 131 rzero_rev~;
#X obj 62 204 rpole~;
#X obj 62 179 rzero_rev~;
#X obj 62 253 rpole~;
#X obj 62 228 rzero_rev~;
#X obj 149 98 r~ \$0-coef;
#X obj 146 140 r~ \$0-coef;
#X obj 144 183 r~ \$0-coef;
#X obj 146 240 r~ \$0-coef;
#X obj 62 45 inlet~;
#X obj 62 283 outlet~;
#X connect 0 0 3 0;
#X connect 1 0 0 0;
#X connect 2 0 5 0;
#X connect 3 0 2 0;
#X connect 4 0 7 0;
#X connect 5 0 4 0;
#X connect 6 0 13 0;
#X connect 7 0 6 0;
#X connect 8 0 1 1;
#X connect 8 0 0 1;
#X connect 9 0 3 1;
#X connect 9 0 2 1;
#X connect 10 0 5 1;
#X connect 10 0 4 1;
#X connect 11 0 7 1;
#X connect 11 0 6 1;
#X connect 12 0 1 0;
#X restore 237 153 pd 4stages;
#X obj 212 340 outlet~;
#N canvas 172 23 258 280 2stages 0;
#X obj 62 107 rpole~;
#X obj 62 82 rzero_rev~;
#X obj 62 156 rpole~;
#X obj 62 131 rzero_rev~;
#X obj 149 98 r~ \$0-coef;
#X obj 146 140 r~ \$0-coef;
#X obj 62 45 inlet~;
#X obj 62 203 outlet~;
#X connect 0 0 3 0;
#X connect 1 0 0 0;
#X connect 2 0 7 0;
#X connect 3 0 2 0;
#X connect 4 0 1 1;
#X connect 4 0 0 1;
#X connect 5 0 3 1;
#X connect 5 0 2 1;
#X connect 6 0 1 0;
#X restore 225 122 pd 2stages;
#N canvas 172 23 283 355 4stages 0;
#X obj 62 107 rpole~;
#X obj 62 82 rzero_rev~;
#X obj 62 156 rpole~;
#X obj 62 131 rzero_rev~;
#X obj 62 204 rpole~;
#X obj 62 179 rzero_rev~;
#X obj 62 253 rpole~;
#X obj 62 228 rzero_rev~;
#X obj 149 98 r~ \$0-coef;
#X obj 146 140 r~ \$0-coef;
#X obj 144 183 r~ \$0-coef;
#X obj 146 240 r~ \$0-coef;
#X obj 62 45 inlet~;
#X obj 62 283 outlet~;
#X connect 0 0 3 0;
#X connect 1 0 0 0;
#X connect 2 0 5 0;
#X connect 3 0 2 0;
#X connect 4 0 7 0;
#X connect 5 0 4 0;
#X connect 6 0 13 0;
#X connect 7 0 6 0;
#X connect 8 0 1 1;
#X connect 8 0 0 1;
#X connect 9 0 3 1;
#X connect 9 0 2 1;
#X connect 10 0 5 1;
#X connect 10 0 4 1;
#X connect 11 0 7 1;
#X connect 11 0 6 1;
#X connect 12 0 1 0;
#X restore 249 189 pd 4stages;
#N canvas 172 23 283 355 4stages 0;
#X obj 62 107 rpole~;
#X obj 62 82 rzero_rev~;
#X obj 62 156 rpole~;
#X obj 62 131 rzero_rev~;
#X obj 62 204 rpole~;
#X obj 62 179 rzero_rev~;
#X obj 62 253 rpole~;
#X obj 62 228 rzero_rev~;
#X obj 149 98 r~ \$0-coef;
#X obj 146 140 r~ \$0-coef;
#X obj 144 183 r~ \$0-coef;
#X obj 146 240 r~ \$0-coef;
#X obj 62 45 inlet~;
#X obj 62 283 outlet~;
#X connect 0 0 3 0;
#X connect 1 0 0 0;
#X connect 2 0 5 0;
#X connect 3 0 2 0;
#X connect 4 0 7 0;
#X connect 5 0 4 0;
#X connect 6 0 13 0;
#X connect 7 0 6 0;
#X connect 8 0 1 1;
#X connect 8 0 0 1;
#X connect 9 0 3 1;
#X connect 9 0 2 1;
#X connect 10 0 5 1;
#X connect 10 0 4 1;
#X connect 11 0 7 1;
#X connect 11 0 6 1;
#X connect 12 0 1 0;
#X restore 267 225 pd 4stages;
#N canvas 172 23 283 355 4stages 0;
#X obj 62 107 rpole~;
#X obj 62 82 rzero_rev~;
#X obj 62 156 rpole~;
#X obj 62 131 rzero_rev~;
#X obj 62 204 rpole~;
#X obj 62 179 rzero_rev~;
#X obj 62 253 rpole~;
#X obj 62 228 rzero_rev~;
#X obj 149 98 r~ \$0-coef;
#X obj 146 140 r~ \$0-coef;
#X obj 144 183 r~ \$0-coef;
#X obj 146 240 r~ \$0-coef;
#X obj 62 45 inlet~;
#X obj 62 283 outlet~;
#X connect 0 0 3 0;
#X connect 1 0 0 0;
#X connect 2 0 5 0;
#X connect 3 0 2 0;
#X connect 4 0 7 0;
#X connect 5 0 4 0;
#X connect 6 0 13 0;
#X connect 7 0 6 0;
#X connect 8 0 1 1;
#X connect 8 0 0 1;
#X connect 9 0 3 1;
#X connect 9 0 2 1;
#X connect 10 0 5 1;
#X connect 10 0 4 1;
#X connect 11 0 7 1;
#X connect 11 0 6 1;
#X connect 12 0 1 0;
#X restore 103 224 pd 4stages;
#X obj 212 311 tanh~;
#X obj 53 309 tanh~;
#X obj 139 25 sig~ 40;
#X text 387 111 No canal esquerdo \, temos a soma do sinal original
com a saída do quarto \, oitavo \, décimo segundo e décimo sexto estágio.
Já no canal direito temos a soma com o segundo \, sexto \, décimo e
décimo quarto.;
#X text 391 188 No final há uma compressão de todas essas somas com
o [tanh~].;
#X obj 210 62 +~ 0.5;
#X connect 0 0 15 0;
#X connect 1 0 0 0;
#X connect 1 0 2 0;
#X connect 2 0 0 1;
#X connect 2 0 3 0;
#X connect 3 0 0 1;
#X connect 3 0 4 0;
#X connect 4 0 0 1;
#X connect 4 0 13 0;
#X connect 6 0 14 0;
#X connect 7 0 6 0;
#X connect 7 0 10 0;
#X connect 8 0 6 1;
#X connect 8 0 11 0;
#X connect 10 0 6 1;
#X connect 10 0 8 0;
#X connect 11 0 6 1;
#X connect 11 0 12 0;
#X connect 12 0 6 1;
#X connect 13 0 0 1;
#X connect 14 0 9 0;
#X connect 15 0 5 0;
#X connect 16 0 1 0;
#X connect 16 0 19 0;
#X connect 19 0 7 0;
#X restore 429 418 pd phaser-stereo;
#X obj 451 456 output~;
#X text 315 369 Abaixo temos um sistema de décima sexta ordem em estéreo
\, abra e veja:;
#X obj 318 112 phasor~ 0.07;
#X obj 318 159 *~ 0.18;
#X obj 318 181 +~ 0.8;
#X obj 104 27 sig~ 80;
#X connect 0 0 3 0;
#X connect 1 0 0 0;
#X connect 2 0 5 0;
#X connect 3 0 2 0;
#X connect 4 0 7 0;
#X connect 5 0 4 0;
#X connect 6 0 8 1;
#X connect 7 0 6 0;
#X connect 8 0 14 0;
#X connect 8 0 14 1;
#X connect 9 0 1 1;
#X connect 9 0 0 1;
#X connect 11 0 3 1;
#X connect 11 0 2 1;
#X connect 12 0 5 1;
#X connect 12 0 4 1;
#X connect 13 0 7 1;
#X connect 13 0 6 1;
#X connect 16 0 8 0;
#X connect 16 0 1 0;
#X connect 17 0 26 0;
#X connect 22 0 23 0;
#X connect 22 1 23 1;
#X connect 25 0 17 0;
#X connect 26 0 27 0;
#X connect 27 0 10 0;
#X connect 28 0 16 0;
