#N canvas 54 106 1305 524 10;
#X obj 543 183 bng 30 250 50 0 \$0-bng empty empty 17 7 0 10 -228856
-1 -1;
#X obj 543 93 loadbang;
#X obj 543 157 metro 6000;
#X obj 543 119 tgl 30 0 empty empty empty 17 7 0 10 -204786 -1 -1 1
1;
#X obj 443 235 catch~ \$0-osc;
#X obj 443 266 /~ 16;
#X text 48 459 Por fim \, ao somar e mixar todos os parciais com [throw~]
e [catch~] \, dividimos por 16 que é o número de vozes/parciais.;
#X obj 691 92 osc~;
#X obj 691 65 expr random(200 \, 1500);
#X floatatom 735 91 0 0 0 0 - - -;
#X obj 691 115 throw~ \$0-osc;
#X obj 691 43 bng 15 250 50 0 empty \$0-bng empty 17 7 0 10 -228856
-1 -1;
#X obj 839 92 osc~;
#X obj 839 65 expr random(200 \, 1500);
#X floatatom 883 91 0 0 0 0 - - -;
#X obj 839 115 throw~ \$0-osc;
#X obj 839 43 bng 15 250 50 0 empty \$0-bng empty 17 7 0 10 -228856
-1 -1;
#X obj 984 91 osc~;
#X obj 984 64 expr random(200 \, 1500);
#X floatatom 1028 90 0 0 0 0 - - -;
#X obj 984 114 throw~ \$0-osc;
#X obj 984 42 bng 15 250 50 0 empty \$0-bng empty 17 7 0 10 -228856
-1 -1;
#X obj 1132 91 osc~;
#X obj 1132 64 expr random(200 \, 1500);
#X floatatom 1176 90 0 0 0 0 - - -;
#X obj 1132 114 throw~ \$0-osc;
#X obj 1132 42 bng 15 250 50 0 empty \$0-bng empty 17 7 0 10 -228856
-1 -1;
#X obj 691 202 osc~;
#X obj 691 175 expr random(200 \, 1500);
#X floatatom 735 201 0 0 0 0 - - -;
#X obj 691 225 throw~ \$0-osc;
#X obj 691 153 bng 15 250 50 0 empty \$0-bng empty 17 7 0 10 -228856
-1 -1;
#X obj 839 202 osc~;
#X obj 839 175 expr random(200 \, 1500);
#X floatatom 883 201 0 0 0 0 - - -;
#X obj 839 225 throw~ \$0-osc;
#X obj 839 153 bng 15 250 50 0 empty \$0-bng empty 17 7 0 10 -228856
-1 -1;
#X obj 984 201 osc~;
#X obj 984 174 expr random(200 \, 1500);
#X floatatom 1028 200 0 0 0 0 - - -;
#X obj 984 224 throw~ \$0-osc;
#X obj 984 152 bng 15 250 50 0 empty \$0-bng empty 17 7 0 10 -228856
-1 -1;
#X obj 1132 201 osc~;
#X obj 1132 174 expr random(200 \, 1500);
#X floatatom 1176 200 0 0 0 0 - - -;
#X obj 1132 224 throw~ \$0-osc;
#X obj 1132 152 bng 15 250 50 0 empty \$0-bng empty 17 7 0 10 -228856
-1 -1;
#X obj 694 309 osc~;
#X obj 694 282 expr random(200 \, 1500);
#X floatatom 738 308 0 0 0 0 - - -;
#X obj 694 332 throw~ \$0-osc;
#X obj 694 260 bng 15 250 50 0 empty \$0-bng empty 17 7 0 10 -228856
-1 -1;
#X obj 842 309 osc~;
#X obj 842 282 expr random(200 \, 1500);
#X floatatom 886 308 0 0 0 0 - - -;
#X obj 842 332 throw~ \$0-osc;
#X obj 842 260 bng 15 250 50 0 empty \$0-bng empty 17 7 0 10 -228856
-1 -1;
#X obj 987 308 osc~;
#X obj 987 281 expr random(200 \, 1500);
#X floatatom 1031 307 0 0 0 0 - - -;
#X obj 987 331 throw~ \$0-osc;
#X obj 987 259 bng 15 250 50 0 empty \$0-bng empty 17 7 0 10 -228856
-1 -1;
#X obj 1135 308 osc~;
#X obj 1135 281 expr random(200 \, 1500);
#X floatatom 1179 307 0 0 0 0 - - -;
#X obj 1135 331 throw~ \$0-osc;
#X obj 1135 259 bng 15 250 50 0 empty \$0-bng empty 17 7 0 10 -228856
-1 -1;
#X obj 694 419 osc~;
#X obj 694 392 expr random(200 \, 1500);
#X floatatom 738 418 0 0 0 0 - - -;
#X obj 694 442 throw~ \$0-osc;
#X obj 694 370 bng 15 250 50 0 empty \$0-bng empty 17 7 0 10 -228856
-1 -1;
#X obj 842 419 osc~;
#X obj 842 392 expr random(200 \, 1500);
#X floatatom 886 418 0 0 0 0 - - -;
#X obj 842 442 throw~ \$0-osc;
#X obj 842 370 bng 15 250 50 0 empty \$0-bng empty 17 7 0 10 -228856
-1 -1;
#X obj 987 418 osc~;
#X obj 987 391 expr random(200 \, 1500);
#X floatatom 1031 417 0 0 0 0 - - -;
#X obj 987 441 throw~ \$0-osc;
#X obj 987 369 bng 15 250 50 0 empty \$0-bng empty 17 7 0 10 -228856
-1 -1;
#X obj 1135 418 osc~;
#X obj 1135 391 expr random(200 \, 1500);
#X floatatom 1179 417 0 0 0 0 - - -;
#X obj 1135 441 throw~ \$0-osc;
#X obj 1135 369 bng 15 250 50 0 empty \$0-bng empty 17 7 0 10 -228856
-1 -1;
#X obj 508 304 *~;
#X obj 543 261 curve~;
#X msg 543 234 1 100 0.5 0 5900 -0.7;
#X obj 483 340 output~;
#X text 589 258 envelope;
#X text 42 27 Já abordamos o conceito de Síntese Aditiva \, pois é
o princípio que está por trás dos comandos "sinesum" e "cosinesum"
\, por exemplo - usados para gerar tabelas em um oscilador de tabela.
;
#X text 43 88 Vimos também formas de onda que são formadas por uma
somatória de parciais harmônicos. Dessas incluem as ondas dente-de-serra
\, triangulares e quadradas.;
#X text 47 246 Todavia \, para expandir o leque de possibilidades \,
não há outra saída além de trabalharmos com diversos osciladores senoidais
\, como aqui neste exemplo.;
#X text 47 295 E o interessante mesmo em Síntese Aditiva é justamente
criar sonoridades ricas com controles independentes de cada oscilador.
As possibilidades são inúmeras. É fato que \, inclusive \, qualquer
som pode ser recrido de forma aceitável com um bom número de osciladores
- princípio que veremos depois com ressíntese e até FFT.;
#X text 47 386 Por enquanto temos aqui um patch bem simples que cria
uma sonoridade inarmônica a partir de 16 osciladores com frequências
aleatórias entre 200 e 1500 Hz. Fora isso temos apenas um envelope
simples de AR logarítmico com duração de 6 segundos.;
#X text 45 139 Porém \, com os osciladores de tabela e os comandos
"sinesum" e "cosinesum" \, temos certas restrições. Primeiramente temos
somente a possibilidade de duas Fases Iniciais - a de Seno ou Seno
com fase invertida (no caso do "sinesum) ou Cosseno e Cosseno com fase
invertida ("cosinesum"). Outra restrição \, mais relevante \, é a possibilidade
de gerar apenas uma série com parciais harmônicos.;
#X connect 0 0 89 0;
#X connect 1 0 3 0;
#X connect 2 0 0 0;
#X connect 3 0 2 0;
#X connect 4 0 5 0;
#X connect 5 0 87 0;
#X connect 7 0 10 0;
#X connect 8 0 9 0;
#X connect 8 0 7 0;
#X connect 11 0 8 0;
#X connect 12 0 15 0;
#X connect 13 0 14 0;
#X connect 13 0 12 0;
#X connect 16 0 13 0;
#X connect 17 0 20 0;
#X connect 18 0 19 0;
#X connect 18 0 17 0;
#X connect 21 0 18 0;
#X connect 22 0 25 0;
#X connect 23 0 24 0;
#X connect 23 0 22 0;
#X connect 26 0 23 0;
#X connect 27 0 30 0;
#X connect 28 0 29 0;
#X connect 28 0 27 0;
#X connect 31 0 28 0;
#X connect 32 0 35 0;
#X connect 33 0 34 0;
#X connect 33 0 32 0;
#X connect 36 0 33 0;
#X connect 37 0 40 0;
#X connect 38 0 39 0;
#X connect 38 0 37 0;
#X connect 41 0 38 0;
#X connect 42 0 45 0;
#X connect 43 0 44 0;
#X connect 43 0 42 0;
#X connect 46 0 43 0;
#X connect 47 0 50 0;
#X connect 48 0 49 0;
#X connect 48 0 47 0;
#X connect 51 0 48 0;
#X connect 52 0 55 0;
#X connect 53 0 54 0;
#X connect 53 0 52 0;
#X connect 56 0 53 0;
#X connect 57 0 60 0;
#X connect 58 0 59 0;
#X connect 58 0 57 0;
#X connect 61 0 58 0;
#X connect 62 0 65 0;
#X connect 63 0 64 0;
#X connect 63 0 62 0;
#X connect 66 0 63 0;
#X connect 67 0 70 0;
#X connect 68 0 69 0;
#X connect 68 0 67 0;
#X connect 71 0 68 0;
#X connect 72 0 75 0;
#X connect 73 0 74 0;
#X connect 73 0 72 0;
#X connect 76 0 73 0;
#X connect 77 0 80 0;
#X connect 78 0 79 0;
#X connect 78 0 77 0;
#X connect 81 0 78 0;
#X connect 82 0 85 0;
#X connect 83 0 84 0;
#X connect 83 0 82 0;
#X connect 86 0 83 0;
#X connect 87 0 90 0;
#X connect 87 0 90 1;
#X connect 88 0 87 1;
#X connect 89 0 88 0;
