#N canvas 542 77 636 478 10;
#X obj 215 370 hsl 128 15 0 1 0 0 empty ganho empty -2 -8 0 10 -204786
-1 -1 8800 1;
#N canvas 0 22 237 305 ganho 0;
#X obj 79 176 *~;
#X obj 67 208 dac~;
#X obj 108 146 line~;
#X msg 108 120 \$1 10;
#X obj 108 94 pow 4;
#X obj 108 67 inlet;
#X obj 79 36 inlet~;
#X connect 0 0 1 0;
#X connect 0 0 1 1;
#X connect 2 0 0 1;
#X connect 3 0 2 0;
#X connect 4 0 3 0;
#X connect 5 0 4 0;
#X connect 6 0 0 0;
#X restore 167 397 pd ganho;
#X obj 167 357 *~;
#X obj 182 312 curve~;
#X obj 77 218 mtof;
#X obj 77 255 trigger float bang;
#X obj 77 184 nbx 5 16 -1e+37 1e+37 0 0 empty empty empty 0 -8 0 13
-204786 -1 -1 40 256;
#X obj 77 106 metro;
#X msg 182 283 1 400 0.5 0.7 100 -0.5 0.7 1000 0 0 2500 -0.7;
#X obj 77 64 tgl 25 0 empty empty empty 17 7 0 10 -204786 -1 -1 1 1
;
#X obj 77 139 expr random (36 \, 73) \; random (4000 \, 6000);
#X obj 77 38 loadbang;
#X obj 68 287 cnv 15 100 40 empty empty empty 20 12 0 14 -192239 -66577
0;
#N canvas 216 57 604 298 additive 0;
#N canvas 425 108 446 322 parcial 0;
#X obj 94 179 osc~;
#X obj 94 250 throw~ \$0-osc;
#X obj 144 201 osc~;
#X obj 144 173 +~;
#X obj 94 76 noisi~ 0.1;
#X obj 277 118 *~ 20;
#X obj 94 111 expr~ fund * 1.9 + $v1 * 30;
#X obj 277 93 noisi~ 0.4;
#X connect 0 0 1 0;
#X connect 2 0 1 0;
#X connect 3 0 2 0;
#X connect 4 0 6 0;
#X connect 5 0 3 1;
#X connect 6 0 0 0;
#X connect 6 0 3 0;
#X connect 7 0 5 0;
#X restore 120 72 pd parcial;
#N canvas 829 23 446 337 parcial 0;
#X obj 94 179 osc~;
#X obj 94 250 throw~ \$0-osc;
#X obj 94 76 noisi~ 1;
#X obj 144 201 osc~;
#X obj 144 173 +~;
#X obj 252 118 *~ 10;
#X obj 252 93 noisi~ 0.1;
#X obj 94 111 expr~ fund + $v1 * 20;
#X connect 0 0 1 0;
#X connect 2 0 7 0;
#X connect 3 0 1 0;
#X connect 4 0 3 0;
#X connect 5 0 4 1;
#X connect 6 0 5 0;
#X connect 7 0 0 0;
#X connect 7 0 4 0;
#X restore 53 72 pd parcial;
#N canvas 825 62 446 322 parcial 0;
#X obj 94 179 osc~;
#X obj 94 250 throw~ \$0-osc;
#X obj 94 76 noisi~ 1;
#X obj 144 201 osc~;
#X obj 144 173 +~;
#X obj 94 111 expr~ fund * 4.1 + $v1 * 50;
#X obj 276 93 noisi~ 0.9;
#X obj 276 118 *~ 40;
#X connect 0 0 1 0;
#X connect 2 0 5 0;
#X connect 3 0 1 0;
#X connect 4 0 3 0;
#X connect 5 0 0 0;
#X connect 5 0 4 0;
#X connect 6 0 7 0;
#X connect 7 0 4 1;
#X restore 120 92 pd parcial;
#N canvas 425 108 446 322 parcial 0;
#X obj 94 179 osc~;
#X obj 94 250 throw~ \$0-osc;
#X obj 144 201 osc~;
#X obj 144 173 +~;
#X obj 94 111 expr~ fund * 2.8 + $v1 * 40;
#X obj 94 76 noisi~ 2;
#X obj 274 92 noisi~ 0.7;
#X obj 274 117 *~ 30;
#X connect 0 0 1 0;
#X connect 2 0 1 0;
#X connect 3 0 2 0;
#X connect 4 0 0 0;
#X connect 4 0 3 0;
#X connect 5 0 4 0;
#X connect 6 0 7 0;
#X connect 7 0 3 1;
#X restore 53 92 pd parcial;
#N canvas 425 108 446 322 parcial 0;
#X obj 94 179 osc~;
#X obj 94 250 throw~ \$0-osc;
#X obj 144 201 osc~;
#X obj 144 173 +~;
#X obj 286 93 noisi~ 0.1;
#X obj 94 76 noisi~ 0.1;
#X obj 286 118 *~ 60;
#X obj 94 111 expr~ fund * 5.9 + $v1 * 90;
#X connect 0 0 1 0;
#X connect 2 0 1 0;
#X connect 3 0 2 0;
#X connect 4 0 6 0;
#X connect 5 0 7 0;
#X connect 6 0 3 1;
#X connect 7 0 0 0;
#X connect 7 0 3 0;
#X restore 120 112 pd parcial;
#N canvas 425 108 446 322 parcial 0;
#X obj 94 179 osc~;
#X obj 94 250 throw~ \$0-osc;
#X obj 144 201 osc~;
#X obj 144 173 +~;
#X obj 94 76 noisi~ 0.5;
#X obj 281 93 noisi~ 1;
#X obj 281 118 *~ 50;
#X obj 94 111 expr~ fund * 5.2 + $v1 * 70;
#X connect 0 0 1 0;
#X connect 2 0 1 0;
#X connect 3 0 2 0;
#X connect 4 0 7 0;
#X connect 5 0 6 0;
#X connect 6 0 3 1;
#X connect 7 0 0 0;
#X connect 7 0 3 0;
#X restore 53 112 pd parcial;
#N canvas 425 108 446 322 parcial 0;
#X obj 94 179 osc~;
#X obj 94 250 throw~ \$0-osc;
#X obj 144 201 osc~;
#X obj 144 173 +~;
#X obj 276 118 *~ 100;
#X obj 94 76 noisi~ 1.5;
#X obj 276 93 noisi~ 0.5;
#X obj 94 111 expr~ fund * 6.7 + $v1 * 120;
#X connect 0 0 1 0;
#X connect 2 0 1 0;
#X connect 3 0 2 0;
#X connect 4 0 3 1;
#X connect 5 0 7 0;
#X connect 6 0 4 0;
#X connect 7 0 0 0;
#X connect 7 0 3 0;
#X restore 53 132 pd parcial;
#N canvas 425 108 446 322 parcial 0;
#X obj 94 179 osc~;
#X obj 94 250 throw~ \$0-osc;
#X obj 144 201 osc~;
#X obj 144 173 +~;
#X obj 271 93 noisi~ 0.1;
#X obj 94 76 noisi~ 1.3;
#X obj 271 118 *~ 200;
#X obj 94 111 expr~ fund * 7.5 + $v1 * 200;
#X connect 0 0 1 0;
#X connect 2 0 1 0;
#X connect 3 0 2 0;
#X connect 4 0 6 0;
#X connect 5 0 7 0;
#X connect 6 0 3 1;
#X connect 7 0 0 0;
#X connect 7 0 3 0;
#X restore 120 132 pd parcial;
#X obj 86 171 catch~ \$0-osc;
#X obj 86 208 /~ 16;
#X obj 86 243 outlet~;
#X obj 299 29 inlet;
#X obj 299 67 v fund;
#X obj 307 176 loadbang;
#X msg 307 205 \; pd dsp 1 \; ganho 0.5;
#X text 212 105 Cada subpatch [pd parcial] contém uma dupla de osciladores
com parâmetros diferentes de controle aleatóreo \, confira.;
#X connect 8 0 9 0;
#X connect 9 0 10 0;
#X connect 11 0 12 0;
#X connect 13 0 14 0;
#X restore 77 300 pd additive;
#X text 245 75 Mais um exemplo de Síntese Aditiva. Aqui temos um patch
que recebe uma frequência fundamental \, com a qual uma série inarmônica
fixa e arbitrária de 8 parciais é gerada. Para cada parcial \, temos
uma dupla de osciladores desafinada de modo aleatóreo \, temos ainda
alguns desvios aleatóreos de frequência para cada parcial.;
#X text 228 312 Envelope ADSR logarítmico;
#X text 247 166 O que estamos de fato fazendo é uma modulação da frequência
com um objeto [noisi~] (gerador ruido de baixa frequência interpolado).
Abra o subpatch [pd additive] para mais detalhes.;
#X connect 0 0 1 1;
#X connect 2 0 1 0;
#X connect 3 0 2 1;
#X connect 4 0 5 0;
#X connect 5 0 13 0;
#X connect 5 1 8 0;
#X connect 6 0 4 0;
#X connect 7 0 10 0;
#X connect 8 0 3 0;
#X connect 9 0 7 0;
#X connect 10 0 6 0;
#X connect 10 1 7 1;
#X connect 11 0 9 0;
#X connect 13 0 2 0;
