#N canvas 736 132 476 513 10;
#X obj 162 351 mtof;
#X obj 162 319 nbx 5 16 -1e+37 1e+37 0 0 empty empty empty 0 -8 0 13
-204786 -1 -1 60 256;
#X obj 162 241 metro;
#X obj 162 199 tgl 25 0 empty empty empty 17 7 0 10 -204786 -1 -1 1
1;
#X obj 162 173 loadbang;
#N canvas 216 57 513 475 additive 0;
#N canvas 425 108 506 541 parcial 0;
#X obj 94 179 osc~;
#X obj 144 201 osc~;
#X obj 144 173 +~;
#X obj 94 76 noisi~ 0.1;
#X obj 277 118 *~ 20;
#X obj 94 111 expr~ fund * 1.9 + $v1 * 30;
#X obj 277 93 noisi~ 0.4;
#X obj 94 351 *~;
#X obj 94 462 throw~ \$0-osc-L;
#X obj 94 395 pansig~;
#X obj 133 431 throw~ \$0-osc-R;
#X obj 249 299 curve~;
#X obj 249 179 r \$0-env;
#X obj 249 250 delay;
#X obj 249 200 t b b;
#X obj 94 250 +~;
#X obj 133 368 noisi~ 1.5;
#X msg 249 276 1 2500 -0.5 0 1500 -0.5;
#X obj 276 225 random 1500;
#X connect 0 0 15 0;
#X connect 1 0 15 1;
#X connect 2 0 1 0;
#X connect 3 0 5 0;
#X connect 4 0 2 1;
#X connect 5 0 0 0;
#X connect 5 0 2 0;
#X connect 6 0 4 0;
#X connect 7 0 9 0;
#X connect 9 0 8 0;
#X connect 9 1 10 0;
#X connect 11 0 7 1;
#X connect 12 0 14 0;
#X connect 13 0 17 0;
#X connect 14 0 13 0;
#X connect 14 1 18 0;
#X connect 15 0 7 0;
#X connect 16 0 9 1;
#X connect 17 0 11 0;
#X connect 18 0 13 1;
#X restore 240 219 pd parcial;
#N canvas 829 23 442 537 parcial 0;
#X obj 94 179 osc~;
#X obj 94 76 noisi~ 1;
#X obj 144 201 osc~;
#X obj 144 173 +~;
#X obj 252 118 *~ 10;
#X obj 252 93 noisi~ 0.1;
#X obj 94 111 expr~ fund + $v1 * 20;
#X obj 94 341 *~;
#X obj 94 452 throw~ \$0-osc-L;
#X obj 94 385 pansig~;
#X obj 133 421 throw~ \$0-osc-R;
#X obj 133 358 noisi~ 1.3;
#X obj 239 289 curve~;
#X obj 239 234 r \$0-env;
#X obj 94 250 +~;
#X msg 239 261 1 1000 -0.7 0 5000 0.5;
#X connect 0 0 14 0;
#X connect 1 0 6 0;
#X connect 2 0 14 1;
#X connect 3 0 2 0;
#X connect 4 0 3 1;
#X connect 5 0 4 0;
#X connect 6 0 0 0;
#X connect 6 0 3 0;
#X connect 7 0 9 0;
#X connect 9 0 8 0;
#X connect 9 1 10 0;
#X connect 11 0 9 1;
#X connect 12 0 7 1;
#X connect 13 0 15 0;
#X connect 14 0 7 0;
#X connect 15 0 12 0;
#X restore 173 219 pd parcial;
#N canvas 825 62 450 537 parcial 0;
#X obj 94 179 osc~;
#X obj 94 76 noisi~ 1;
#X obj 144 201 osc~;
#X obj 144 173 +~;
#X obj 94 111 expr~ fund * 4.1 + $v1 * 50;
#X obj 276 93 noisi~ 0.9;
#X obj 276 118 *~ 40;
#X obj 124 371 *~;
#X obj 124 482 throw~ \$0-osc-L;
#X obj 124 415 pansig~;
#X obj 163 451 throw~ \$0-osc-R;
#X obj 269 319 curve~;
#X obj 269 199 r \$0-env;
#X obj 269 270 delay;
#X obj 269 220 t b b;
#X obj 296 245 random 1500;
#X msg 269 296 1 3500 -0.8 0 500 0.5;
#X obj 163 388 noisi~ 0.6;
#X connect 0 0 7 0;
#X connect 1 0 4 0;
#X connect 2 0 7 0;
#X connect 3 0 2 0;
#X connect 4 0 0 0;
#X connect 4 0 3 0;
#X connect 5 0 6 0;
#X connect 6 0 3 1;
#X connect 7 0 9 0;
#X connect 9 0 8 0;
#X connect 9 1 10 0;
#X connect 11 0 7 1;
#X connect 12 0 14 0;
#X connect 13 0 16 0;
#X connect 14 0 13 0;
#X connect 14 1 15 0;
#X connect 15 0 13 1;
#X connect 16 0 11 0;
#X connect 17 0 9 1;
#X restore 240 239 pd parcial;
#N canvas 425 108 535 512 parcial 0;
#X obj 94 179 osc~;
#X obj 144 201 osc~;
#X obj 144 173 +~;
#X obj 94 111 expr~ fund * 2.8 + $v1 * 40;
#X obj 94 76 noisi~ 2;
#X obj 274 92 noisi~ 0.7;
#X obj 274 117 *~ 30;
#X obj 114 361 *~;
#X obj 114 472 throw~ \$0-osc-L;
#X obj 114 405 pansig~;
#X obj 153 441 throw~ \$0-osc-R;
#X obj 259 309 curve~;
#X obj 259 189 r \$0-env;
#X obj 259 260 delay;
#X obj 259 210 t b b;
#X obj 153 378 noisi~ 0.5;
#X msg 259 286 1 1500 0.5 0 2000 -0.5;
#X obj 286 235 random 500;
#X connect 0 0 7 0;
#X connect 1 0 7 0;
#X connect 2 0 1 0;
#X connect 3 0 0 0;
#X connect 3 0 2 0;
#X connect 4 0 3 0;
#X connect 5 0 6 0;
#X connect 6 0 2 1;
#X connect 7 0 9 0;
#X connect 9 0 8 0;
#X connect 9 1 10 0;
#X connect 11 0 7 1;
#X connect 12 0 14 0;
#X connect 13 0 16 0;
#X connect 14 0 13 0;
#X connect 14 1 17 0;
#X connect 15 0 9 1;
#X connect 16 0 11 0;
#X connect 17 0 13 1;
#X restore 173 239 pd parcial;
#N canvas 425 108 558 542 parcial 0;
#X obj 94 179 osc~;
#X obj 144 201 osc~;
#X obj 144 173 +~;
#X obj 286 93 noisi~ 0.1;
#X obj 94 76 noisi~ 0.1;
#X obj 286 118 *~ 60;
#X obj 94 111 expr~ fund * 5.9 + $v1 * 90;
#X obj 135 352 *~;
#X obj 135 463 throw~ \$0-osc-L;
#X obj 135 396 pansig~;
#X obj 174 432 throw~ \$0-osc-R;
#X obj 280 300 curve~;
#X obj 280 180 r \$0-env;
#X obj 280 251 delay;
#X obj 280 201 t b b;
#X obj 307 226 random 1000;
#X msg 280 277 1 2500 0.5 0 2500 0.5;
#X obj 174 369 osc~ 2.7;
#X connect 0 0 7 0;
#X connect 1 0 7 0;
#X connect 2 0 1 0;
#X connect 3 0 5 0;
#X connect 4 0 6 0;
#X connect 5 0 2 1;
#X connect 6 0 0 0;
#X connect 6 0 2 0;
#X connect 7 0 9 0;
#X connect 9 0 8 0;
#X connect 9 1 10 0;
#X connect 11 0 7 1;
#X connect 12 0 14 0;
#X connect 13 0 16 0;
#X connect 14 0 13 0;
#X connect 14 1 15 0;
#X connect 15 0 13 1;
#X connect 16 0 11 0;
#X connect 17 0 9 1;
#X restore 240 259 pd parcial;
#N canvas 425 108 526 518 parcial 0;
#X obj 94 179 osc~;
#X obj 144 201 osc~;
#X obj 144 173 +~;
#X obj 94 76 noisi~ 0.5;
#X obj 281 93 noisi~ 1;
#X obj 281 118 *~ 50;
#X obj 94 111 expr~ fund * 5.2 + $v1 * 70;
#X obj 125 342 *~;
#X obj 125 453 throw~ \$0-osc-L;
#X obj 125 386 pansig~;
#X obj 164 422 throw~ \$0-osc-R;
#X obj 270 290 curve~;
#X obj 270 170 r \$0-env;
#X obj 270 241 delay;
#X obj 270 191 t b b;
#X obj 297 216 random 1000;
#X msg 270 267 1 2500 0.5 0 2500 0.5;
#X obj 164 359 osc~ 0.5;
#X connect 0 0 7 0;
#X connect 1 0 7 0;
#X connect 2 0 1 0;
#X connect 3 0 6 0;
#X connect 4 0 5 0;
#X connect 5 0 2 1;
#X connect 6 0 0 0;
#X connect 6 0 2 0;
#X connect 7 0 9 0;
#X connect 9 0 8 0;
#X connect 9 1 10 0;
#X connect 11 0 7 1;
#X connect 12 0 14 0;
#X connect 13 0 16 0;
#X connect 14 0 13 0;
#X connect 14 1 15 0;
#X connect 15 0 13 1;
#X connect 16 0 11 0;
#X connect 17 0 9 1;
#X restore 173 259 pd parcial;
#N canvas 425 108 497 548 parcial 0;
#X obj 94 179 osc~;
#X obj 144 201 osc~;
#X obj 144 173 +~;
#X obj 276 118 *~ 100;
#X obj 94 76 noisi~ 1.5;
#X obj 276 93 noisi~ 0.5;
#X obj 94 111 expr~ fund * 6.7 + $v1 * 120;
#X obj 145 362 *~;
#X obj 145 473 throw~ \$0-osc-L;
#X obj 145 406 pansig~;
#X obj 184 442 throw~ \$0-osc-R;
#X obj 290 310 curve~;
#X obj 290 190 r \$0-env;
#X obj 290 261 delay;
#X obj 290 211 t b b;
#X obj 317 236 random 1000;
#X msg 290 287 1 1500 -0.8 0 1500 -0.8;
#X obj 184 379 osc~ 1.1;
#X connect 0 0 7 0;
#X connect 1 0 7 0;
#X connect 2 0 1 0;
#X connect 3 0 2 1;
#X connect 4 0 6 0;
#X connect 5 0 3 0;
#X connect 6 0 0 0;
#X connect 6 0 2 0;
#X connect 7 0 9 0;
#X connect 9 0 8 0;
#X connect 9 1 10 0;
#X connect 11 0 7 1;
#X connect 12 0 14 0;
#X connect 13 0 16 0;
#X connect 14 0 13 0;
#X connect 14 1 15 0;
#X connect 15 0 13 1;
#X connect 16 0 11 0;
#X connect 17 0 9 1;
#X restore 173 279 pd parcial;
#N canvas 425 108 528 522 parcial 0;
#X obj 94 179 osc~;
#X obj 144 201 osc~;
#X obj 144 173 +~;
#X obj 271 93 noisi~ 0.1;
#X obj 94 76 noisi~ 1.3;
#X obj 271 118 *~ 200;
#X obj 94 111 expr~ fund * 7.5 + $v1 * 200;
#X obj 155 372 *~;
#X obj 155 483 throw~ \$0-osc-L;
#X obj 155 416 pansig~;
#X obj 194 452 throw~ \$0-osc-R;
#X obj 300 320 curve~;
#X obj 300 200 r \$0-env;
#X obj 300 271 delay;
#X obj 300 221 t b b;
#X obj 327 246 random 500;
#X msg 300 297 1 3500 0.5 0 2500 -0.5;
#X obj 194 389 osc~ 0.7;
#X connect 0 0 7 0;
#X connect 1 0 7 0;
#X connect 2 0 1 0;
#X connect 3 0 5 0;
#X connect 4 0 6 0;
#X connect 5 0 2 1;
#X connect 6 0 0 0;
#X connect 6 0 2 0;
#X connect 7 0 9 0;
#X connect 9 0 8 0;
#X connect 9 1 10 0;
#X connect 11 0 7 1;
#X connect 12 0 14 0;
#X connect 13 0 16 0;
#X connect 14 0 13 0;
#X connect 14 1 15 0;
#X connect 15 0 13 1;
#X connect 16 0 11 0;
#X connect 17 0 9 1;
#X restore 240 279 pd parcial;
#X obj 133 370 /~ 16;
#X obj 133 405 outlet~;
#X obj 149 38 inlet;
#X obj 149 109 v fund;
#X text 79 159 Cada subpatch [pd parcial] contém uma dupla de osciladores
com parâmetros diferentes de controle aleatóreo \, confira.;
#X obj 149 72 t f b;
#X obj 208 109 s \$0-env;
#X obj 266 371 /~ 16;
#X obj 266 406 outlet~;
#X obj 133 333 catch~ \$0-osc-L;
#X obj 266 334 catch~ \$0-osc-R;
#X connect 8 0 9 0;
#X connect 10 0 13 0;
#X connect 13 0 11 0;
#X connect 13 1 14 0;
#X connect 15 0 16 0;
#X connect 17 0 8 0;
#X connect 18 0 15 0;
#X restore 162 382 pd additive;
#X text 57 109 Abra o subpatch [pd additive] para mais detalhes.;
#X obj 163 423 output~;
#X obj 162 274 expr random (36 \, 61) \; random (6000 \, 8000);
#X text 55 32 Levando a ideia do exemplo anterior mais adiante \, temos
agora um envelope independente para cada par de oscilador \, assim
como um controle independente de panorâmico. Os ataques de cada envelope
também ocorrem de forma aletórea dado por um atraso sorteado.;
#X connect 0 0 5 0;
#X connect 1 0 0 0;
#X connect 2 0 8 0;
#X connect 3 0 2 0;
#X connect 4 0 3 0;
#X connect 5 0 7 0;
#X connect 5 1 7 1;
#X connect 8 0 1 0;
#X connect 8 1 2 1;
