#N canvas 463 22 884 616 10;
#X obj 151 268 loadbang;
#X obj 151 320 seq;
#X obj 540 277 pgmin;
#X obj 534 248 bendin;
#X obj 528 310 touchin;
#X obj 505 340 polytouchin;
#X obj 594 483 midiin;
#X obj 609 564 sysexin;
#X obj 579 191 noteout;
#X obj 579 220 ctlout;
#X obj 579 248 bendout;
#X obj 580 310 touchout;
#X obj 580 340 polytouchout;
#X obj 639 483 midiout;
#X obj 580 278 pgmout;
#X obj 534 190 notein;
#X obj 540 220 ctlin;
#X obj 100 332 bng 15 250 50 0 empty empty empty 17 7 0 10 -228856
-1 -1;
#X obj 166 353 spigot;
#X obj 199 328 tgl 15 0 empty loop empty 17 7 0 10 -228856 -1 -1 1
1;
#X text 217 327 loop;
#X obj 151 381 midiparse;
#N canvas 168 86 418 576 voice1 0;
#X obj 200 447 *~;
#X obj 215 409 vline~;
#X obj 57 206 mtof;
#X floatatom 57 236 5 0 0 0 - - -;
#X obj 271 293 t f f;
#X obj 271 348 pack;
#X obj 298 318 * 0.5;
#X obj 271 269 / 127;
#X obj 215 159 t f f;
#X obj 271 243 f;
#X obj 110 68 inlet;
#X floatatom 215 132 5 0 0 0 - - -;
#X floatatom 57 179 5 0 0 0 - - -;
#X obj 200 479 outlet~;
#X msg 215 364 0 10;
#X msg 271 374 \$1 10 \, \$2 40 10;
#X obj 110 99 unpack float float;
#X obj 215 189 != 0;
#X obj 215 214 sel 0 1;
#X obj 57 358 +~;
#X obj 57 382 blosc~ comparator;
#X obj 57 332 triangle~ 1;
#X obj 57 305 phasor~;
#X obj 147 311 osc~ 0.75;
#X obj 147 346 *~ 0.8;
#X connect 0 0 13 0;
#X connect 1 0 0 1;
#X connect 2 0 3 0;
#X connect 3 0 22 0;
#X connect 4 0 5 0;
#X connect 4 1 6 0;
#X connect 5 0 15 0;
#X connect 6 0 5 1;
#X connect 7 0 4 0;
#X connect 8 0 17 0;
#X connect 8 1 9 1;
#X connect 9 0 7 0;
#X connect 10 0 16 0;
#X connect 11 0 8 0;
#X connect 12 0 2 0;
#X connect 14 0 1 0;
#X connect 15 0 1 0;
#X connect 16 0 12 0;
#X connect 16 1 11 0;
#X connect 17 0 18 0;
#X connect 18 0 14 0;
#X connect 18 1 9 0;
#X connect 19 0 20 0;
#X connect 20 0 0 0;
#X connect 21 0 19 0;
#X connect 22 0 21 0;
#X connect 23 0 24 0;
#X connect 24 0 19 1;
#X restore 113 503 pd voice1;
#N canvas 674 66 463 550 voice2 0;
#X obj 200 447 *~;
#X obj 215 409 vline~;
#X obj 56 218 mtof;
#X floatatom 56 248 5 0 0 0 - - -;
#X obj 271 293 t f f;
#X obj 271 348 pack;
#X obj 298 318 * 0.5;
#X obj 271 269 / 127;
#X obj 215 159 t f f;
#X obj 271 243 f;
#X obj 110 58 inlet;
#X floatatom 215 132 5 0 0 0 - - -;
#X floatatom 56 191 5 0 0 0 - - -;
#X obj 200 480 outlet~;
#X msg 271 374 \$1 10 \, \$2 40 10;
#X msg 215 364 0 10;
#X obj 110 89 unpack float float;
#X obj 215 214 sel 0 1;
#X obj 215 189 != 0;
#X obj 56 354 +~;
#X obj 56 378 blosc~ comparator;
#X obj 56 328 triangle~ 1;
#X obj 146 307 osc~ 0.25;
#X obj 146 342 *~ 0.5;
#X obj 56 301 phasor~;
#X connect 0 0 13 0;
#X connect 1 0 0 1;
#X connect 2 0 3 0;
#X connect 3 0 24 0;
#X connect 4 0 5 0;
#X connect 4 1 6 0;
#X connect 5 0 14 0;
#X connect 6 0 5 1;
#X connect 7 0 4 0;
#X connect 8 0 18 0;
#X connect 8 1 9 1;
#X connect 9 0 7 0;
#X connect 10 0 16 0;
#X connect 11 0 8 0;
#X connect 12 0 2 0;
#X connect 14 0 1 0;
#X connect 15 0 1 0;
#X connect 16 0 12 0;
#X connect 16 1 11 0;
#X connect 17 0 15 0;
#X connect 17 1 9 0;
#X connect 18 0 17 0;
#X connect 19 0 20 0;
#X connect 20 0 0 0;
#X connect 21 0 19 0;
#X connect 22 0 23 0;
#X connect 23 0 19 1;
#X connect 24 0 21 0;
#X restore 176 503 pd voice2;
#X obj 151 467 route 1 2;
#X obj 151 412 poly 2 1;
#X obj 205 537 hsl 128 15 0 1 0 0 empty ganho empty -2 -6 0 10 -240877
-1 -1 5080 0;
#N canvas 232 59 419 353 output 0;
#X obj 146 200 *~;
#X obj 205 150 line~;
#X msg 205 124 \$1 10;
#X obj 205 98 pow 4;
#X obj 205 61 inlet;
#X obj 146 60 inlet~;
#X obj 89 201 *~;
#X obj 89 61 inlet~;
#X obj 105 282 dac~;
#X obj 89 101 /~ 2;
#X obj 146 99 /~ 2;
#N canvas 118 33 450 300 panning 0;
#X obj 68 176 pansig~;
#X obj 190 179 pansig~;
#X obj 133 223 +~;
#X obj 188 221 +~;
#X obj 229 106 osc~ 0.1;
#X obj 107 139 *~ 0.5;
#X obj 229 140 *~ 0.5;
#X obj 274 45 loadbang;
#X obj 68 19 inlet~;
#X obj 190 20 inlet~;
#X obj 188 261 outlet~;
#X obj 133 261 outlet~;
#X msg 152 77 0;
#X obj 107 103 osc~ 0.1;
#X msg 274 78 0.5;
#X connect 0 0 2 0;
#X connect 0 1 3 0;
#X connect 1 0 2 1;
#X connect 1 1 3 1;
#X connect 2 0 11 0;
#X connect 3 0 10 0;
#X connect 4 0 6 0;
#X connect 5 0 0 1;
#X connect 6 0 1 1;
#X connect 7 0 14 0;
#X connect 7 0 12 0;
#X connect 8 0 0 0;
#X connect 9 0 1 0;
#X connect 12 0 13 1;
#X connect 13 0 5 0;
#X connect 14 0 4 1;
#X restore 89 245 pd panning;
#X connect 0 0 11 1;
#X connect 1 0 0 1;
#X connect 1 0 6 1;
#X connect 2 0 1 0;
#X connect 3 0 2 0;
#X connect 4 0 3 0;
#X connect 5 0 10 0;
#X connect 6 0 11 0;
#X connect 7 0 9 0;
#X connect 9 0 6 0;
#X connect 10 0 0 0;
#X connect 11 0 8 0;
#X connect 11 1 8 1;
#X restore 151 564 pd output;
#X obj 151 438 pack f f f;
#X obj 269 374 loadbang;
#X obj 584 72 mrpeach/midifile;
#X text 477 22 Outro objeto que trabalha com MIDI é o [midifile] da
biblioteca "mrpeach".;
#X text 680 191 Notas;
#X text 679 219 Controle;
#X text 679 248 Bend Wheel;
#X text 680 278 Program;
#X text 681 311 Aftertouch;
#X text 681 339 Aftertouch polifônico;
#X text 478 452 Há também os objetos que lidam com mensagens MIDI "cruas".
;
#X text 480 521 Por fim \, o [sysexin] recebe mensagens de "sysex"
enviadas ao Pd. Porém \, o Pd não as envia.;
#X msg 151 294 read ./files/bach.mid \, bang;
#X text 47 104 Neste patch usamos o outlet esquerdo que são as mensagens
de notas MIDI \, que usamos para controlar duas vozes. O [seq] envia
um bang no outlet direito quando termina a sequência e usamos isso
para um loop. O [seq] também permite que você grave sequências MIDI
a partir do seu controlador. Abra o help para mais detalhes.;
#X text 47 25 O objeto [seq] nos permite ler uma sequência MIDI no
Pd. Porém ele envia mensagens MIDI "cruas" \, que significa que não
estão separadas em tipos diferentes de mensagens. Usamos o objeto [midiparse]
para ler e rotear as mensagens cruas. Abra seu help para mais detalhes.
;
#X text 49 195 As formas de onda das duas vozes são ondas quadradas
de banda limitada \, com o tamanho do pulso sendo modulado por um LFO.
Outro LFO controla um panorâmico na saída.;
#X msg 269 401 \; loop 1 \; ganho 0.4 \; pd dsp 1;
#X text 478 104 O Pd possui diversos objetos nativos que lidam com
mensagens MIDI \, gerenciando a entrada e saída de um dispositivo MIDI
conectado ao computador. A seguir \, uma série de objetos que trabalham
com mensagens MIDI específicas.;
#X text 482 384 Do cyclone \, temos como acessar o "Release Velocity"
;
#X obj 532 412 cyclone/xnotein;
#X obj 650 412 cyclone/xnoteout;
#X connect 0 0 40 0;
#X connect 1 0 21 0;
#X connect 1 1 18 0;
#X connect 17 0 40 0;
#X connect 18 0 17 0;
#X connect 19 0 18 1;
#X connect 21 0 25 0;
#X connect 22 0 27 0;
#X connect 23 0 27 1;
#X connect 24 0 22 0;
#X connect 24 1 23 0;
#X connect 25 0 28 0;
#X connect 25 1 28 1;
#X connect 25 2 28 2;
#X connect 26 0 27 2;
#X connect 28 0 24 0;
#X connect 29 0 44 0;
#X connect 40 0 1 0;
