#N canvas 304 23 848 638 10;
#X obj 208 209 vline~;
#X obj 193 245 *~;
#X obj 114 182 blosc~ saw;
#X obj 193 327 delwrite~ \$0-tap-delay 3000;
#X obj 70 435 *~ 0.7;
#X obj 57 544 *~ 0.7;
#X obj 70 463 throw~ \$0-tapL;
#X obj 244 463 throw~ \$0-tapR;
#X obj 57 572 throw~ \$0-tapL;
#X obj 236 572 throw~ \$0-tapR;
#X obj 430 567 throw~ \$0-tapL;
#X obj 604 567 throw~ \$0-tapR;
#X obj 463 224 catch~ \$0-tapL;
#X obj 521 251 catch~ \$0-tapR;
#X obj 463 282 output~;
#X obj 244 435 *~ 0.9;
#X obj 413 435 *~ 0.8;
#X obj 600 437 *~ 1;
#X obj 236 544 *~ 0.8;
#X obj 430 539 *~ 0.6;
#X obj 604 539 *~ 0.9;
#X obj 212 299 throw~ \$0-tapL;
#X obj 222 276 throw~ \$0-tapR;
#X obj 70 408 delread~ \$0-tap-delay 150;
#X obj 244 408 delread~ \$0-tap-delay 250;
#X obj 413 408 delread~ \$0-tap-delay 400;
#X obj 600 410 delread~ \$0-tap-delay 600;
#X obj 57 517 delread~ \$0-tap-delay 700;
#X obj 236 517 delread~ \$0-tap-delay 850;
#X obj 430 511 delread~ \$0-tap-delay 1000;
#X obj 604 512 delread~ \$0-tap-delay 1200;
#X msg 208 182 1 20 \, 0 30 40;
#X obj 114 32 bng 40 250 50 0 empty empty empty 17 7 0 10 -262130 -1
-1;
#X obj 114 93 expr random(30 \, 61);
#X obj 114 117 t f b;
#X obj 114 140 mtof;
#X text 365 67 O delay "Multi-Tap" é apenas uma linha de delay sendo
lida em diversos pontos \, podendo gerar ritmos complexos diversos.
;
#X obj 413 463 throw~ \$0-tapR;
#X obj 600 465 throw~ \$0-tapL;
#X text 367 121 Neste exemplo temos uma versão em estéreo.;
#X text 367 155 Versões mais sofisticadas são possíveis com feedback.
;
#X connect 0 0 1 1;
#X connect 1 0 3 0;
#X connect 1 0 21 0;
#X connect 1 0 22 0;
#X connect 2 0 1 0;
#X connect 4 0 6 0;
#X connect 5 0 8 0;
#X connect 12 0 14 0;
#X connect 13 0 14 1;
#X connect 15 0 7 0;
#X connect 16 0 37 0;
#X connect 17 0 38 0;
#X connect 18 0 9 0;
#X connect 19 0 10 0;
#X connect 20 0 11 0;
#X connect 23 0 4 0;
#X connect 24 0 15 0;
#X connect 25 0 16 0;
#X connect 26 0 17 0;
#X connect 27 0 5 0;
#X connect 28 0 18 0;
#X connect 29 0 19 0;
#X connect 30 0 20 0;
#X connect 31 0 0 0;
#X connect 32 0 33 0;
#X connect 33 0 34 0;
#X connect 34 0 35 0;
#X connect 34 1 31 0;
#X connect 35 0 2 0;
