#N canvas 96 64 652 523 10;
#X obj 120 328 +~;
#X obj 120 427 output~;
#X obj 175 323 +~;
#X obj 136 376 delwrite~ ping 1000;
#X obj 175 353 delwrite~ pong 1000;
#X obj 190 261 vd~ ping;
#X obj 306 375 vd~ pong;
#X obj 190 293 *~;
#X obj 351 250 line~;
#X msg 351 226 \$1 10;
#X obj 354 184 hsl 128 15 -1 1 0 0 empty fb empty -2 -8 0 10 -262130
-1 -1 11430 1;
#X floatatom 351 206 5 0 0 0 - - -;
#X floatatom 306 174 5 0 0 0 - - -;
#X obj 306 228 / 2;
#X floatatom 306 294 5 0 0 0 - - -;
#X obj 309 150 hsl 128 15 50 500 0 0 empty tempo empty -2 -8 0 10 -261682
-1 -1 5644 1;
#X obj 135 199 vline~;
#X obj 120 235 *~;
#X obj 61 193 blosc~ saw;
#X msg 135 172 1 20 \, 0 30 40;
#X obj 61 54 bng 40 250 50 0 empty empty empty 17 7 0 10 -204786 -1
-1;
#X obj 61 115 expr random(30 \, 61);
#X obj 61 139 t f b;
#X obj 61 170 mtof;
#X msg 190 212 \$1 100;
#X obj 190 237 line~;
#X msg 306 319 \$1 100;
#X obj 306 344 line~;
#X obj 448 312 loadbang;
#X msg 448 341 \; tempo 250 \; fb 0.8;
#X text 225 50 Ping-pong delay é um tipo de delay duplo e em estéreo
em que os ecos alternam entre os canais direito e esquerdo. Não a toa
\, o nome do efeito faz uma alusão a uma partida de ping pong.;
#X text 356 149 Tempo;
#X text 389 183 Feedback;
#X connect 0 0 3 0;
#X connect 0 0 1 0;
#X connect 2 0 4 0;
#X connect 5 0 7 0;
#X connect 6 0 1 1;
#X connect 7 0 0 1;
#X connect 7 0 2 1;
#X connect 8 0 7 1;
#X connect 9 0 8 0;
#X connect 10 0 11 0;
#X connect 11 0 9 0;
#X connect 12 0 13 0;
#X connect 12 0 24 0;
#X connect 13 0 14 0;
#X connect 14 0 26 0;
#X connect 15 0 12 0;
#X connect 16 0 17 1;
#X connect 17 0 0 0;
#X connect 17 0 2 0;
#X connect 18 0 17 0;
#X connect 19 0 16 0;
#X connect 20 0 21 0;
#X connect 21 0 22 0;
#X connect 22 0 23 0;
#X connect 22 1 19 0;
#X connect 23 0 18 0;
#X connect 24 0 25 0;
#X connect 25 0 5 0;
#X connect 26 0 27 0;
#X connect 27 0 6 0;
#X connect 28 0 29 0;
