#N canvas 183 23 468 683 10;
#X obj 96 449 +~;
#X obj 111 472 delwrite~ L 1000;
#X obj 244 471 +~;
#X obj 256 498 delwrite~ R 1000;
#X obj 96 559 +~;
#X obj 244 571 +~;
#X obj 129 558 s~ \$0-LtoR;
#X obj 281 392 r~ \$0-LtoR;
#X obj 274 572 s~ \$0-RtoL;
#X obj 129 379 r~ \$0-RtoL;
#X obj 111 524 vd~ L;
#X obj 259 546 vd~ R;
#X obj 103 199 s~ \$0-tempo;
#X obj 103 176 line~;
#X msg 103 153 \$1 500;
#X obj 111 501 r~ \$0-tempo;
#X obj 259 524 r~ \$0-tempo;
#X obj 281 437 *~;
#X obj 129 412 *~;
#X obj 244 235 line~;
#X msg 244 212 \$1 500;
#X obj 244 259 s~ \$0-fb;
#X obj 296 414 r~ \$0-fb;
#X obj 162 408 r~ \$0-fb;
#X obj 96 366 *~;
#X obj 37 324 blosc~ saw;
#X obj 111 242 bng 40 250 50 0 empty empty empty 17 7 0 10 -204786
-1 -1;
#X obj 111 330 ead~ 50 150;
#X obj 243 385 *~;
#X obj 258 349 ead~ 50 150;
#X obj 169 612 output~;
#X obj 243 309 osc~ 400;
#X obj 37 301 sig~ 100;
#X obj 248 168 hsl 128 15 -1 1 0 1 empty empty empty -2 -8 0 10 -261682
-1 -1 3400 1;
#X floatatom 245 192 5 0 0 0 - - -;
#X obj 103 126 nbx 5 16 -1e+37 1e+37 0 1 empty empty empty 0 -8 0 12
-262130 -1 -1 500 256;
#X text 174 126 ms;
#X text 285 167 Feedback;
#X text 58 26 Essa outra implementação de Ping Pong Delay aceita um
sinal estéreo e troca os canais a cada iteração do delay. Perceba abaixo
como a saída do delay de um canal é alimentada no outro canal e vice-versa.
;
#X connect 0 0 1 0;
#X connect 0 0 4 0;
#X connect 2 0 3 0;
#X connect 2 0 5 0;
#X connect 4 0 30 0;
#X connect 5 0 30 1;
#X connect 7 0 17 0;
#X connect 9 0 18 0;
#X connect 10 0 4 1;
#X connect 10 0 6 0;
#X connect 11 0 5 1;
#X connect 11 0 8 0;
#X connect 13 0 12 0;
#X connect 14 0 13 0;
#X connect 15 0 10 0;
#X connect 16 0 11 0;
#X connect 17 0 2 1;
#X connect 18 0 0 1;
#X connect 19 0 21 0;
#X connect 20 0 19 0;
#X connect 22 0 17 1;
#X connect 23 0 18 1;
#X connect 24 0 0 0;
#X connect 25 0 24 0;
#X connect 26 0 27 0;
#X connect 26 0 29 0;
#X connect 27 0 24 1;
#X connect 28 0 2 0;
#X connect 29 0 28 1;
#X connect 31 0 28 0;
#X connect 32 0 25 0;
#X connect 33 0 34 0;
#X connect 34 0 20 0;
#X connect 35 0 14 0;
