#N canvas 43 46 1348 746 10;
#X text 70 85 Um filtro crossover apenas separa o áudio em faixas de
frequências distintas. Em áudio \, o crossover costuma ser aplicado
em sistemas de difusão com diferentes alto falantes (como: woofer \,
tweeter) \, de modo que cada alto falante recebe uma faixa de frequência
própria para ele (grave no woofer \, agudo no tweeter).;
#X text 71 178 Temos aqui neste exemplo um filtro crossover formado
a partir de um cruzamento de filtros passa baixa e passa alta. Uma
mesma frequência de corte é dada para os dois filtros \, de modo que
a saída da esquerda é a saída de passa baixa com as frequências abaixo
da frequência de corte e a saída da direita é o passa alta com as frequências
acima.;
#X obj 80 438 cnv 15 250 80 empty empty Crossover 5 12 0 14 -233017
-66577 0;
#X obj 222 386 noise~;
#X obj 285 403 nbx 5 14 -1e+37 1e+37 0 0 empty hz empty 0 -8 0 10 -261682
-1 -1 500 256;
#X obj 199 598 hsl 128 15 0 1 0 0 empty \$0-gain empty -2 -8 0 10 -204786
-1 -1 0 1;
#N canvas 0 22 450 300 output 0;
#X obj 206 206 *~;
#X obj 225 175 line~;
#X msg 225 149 \$1 10;
#X obj 225 113 pow 4;
#X obj 190 245 dac~;
#X obj 226 60 inlet;
#X obj 177 60 inlet~;
#X connect 0 0 4 0;
#X connect 0 0 4 1;
#X connect 1 0 0 1;
#X connect 2 0 1 0;
#X connect 3 0 2 0;
#X connect 5 0 3 0;
#X connect 6 0 0 0;
#X restore 145 632 pd output;
#X obj 276 532 hsl 128 15 0 1 0 0 empty \$0-gain empty -2 -8 0 10 -204786
-1 -1 0 1;
#N canvas 0 22 450 300 output 0;
#X obj 206 206 *~;
#X obj 225 175 line~;
#X msg 225 149 \$1 10;
#X obj 225 113 pow 4;
#X obj 226 60 inlet;
#X obj 177 60 inlet~;
#X obj 206 245 dac~ 2;
#X connect 0 0 6 0;
#X connect 1 0 0 1;
#X connect 2 0 1 0;
#X connect 3 0 2 0;
#X connect 4 0 3 0;
#X connect 5 0 0 0;
#X restore 222 566 pd output;
#X text 347 402 HZ;
#X obj 386 411 loadbang;
#N canvas 125 85 481 301 lowpass 0;
#X obj 91 137 lop~;
#X obj 102 163 lop~;
#X obj 115 189 lop~;
#X floatatom 136 101 5 0 0 0 - - -;
#X obj 91 52 inlet~;
#X obj 115 223 outlet~;
#X obj 136 52 inlet;
#X text 170 140 3 filtros [lop~] em cascata;
#X connect 0 0 1 0;
#X connect 1 0 2 0;
#X connect 2 0 5 0;
#X connect 3 0 0 1;
#X connect 3 0 1 1;
#X connect 3 0 2 1;
#X connect 4 0 0 0;
#X connect 6 0 3 0;
#X restore 145 474 pd lowpass;
#N canvas 125 85 440 317 highpass 0;
#X floatatom 141 101 5 0 0 0 - - -;
#X obj 91 52 inlet~;
#X obj 120 226 outlet~;
#X obj 141 52 inlet;
#X obj 91 137 hip~;
#X obj 104 164 hip~;
#X obj 120 194 hip~;
#X text 192 179 3 filtros [hip~] em cascata;
#X connect 0 0 4 1;
#X connect 0 0 5 1;
#X connect 0 0 6 1;
#X connect 1 0 4 0;
#X connect 3 0 0 0;
#X connect 4 0 5 0;
#X connect 5 0 6 0;
#X connect 6 0 2 0;
#X restore 222 475 pd highpass;
#X text 74 324 Abra os subpatches [pd lowpass] e [pd highpass] para
mais detalhes.;
#X msg 386 443 \; hz 500 \; pd dsp 1;
#X text 72 267 A base do patch são os objetos [lop~] e [hip~] \, porém
três deles em cascata \, para que o decaimento do filtro seja mair
(em torno de 18 dB por oitava).;
#X obj 654 464 nbx 5 14 -1e+37 1e+37 0 0 empty hz empty 0 -8 0 10 -261682
-1 -1 500 256;
#X text 716 463 HZ;
#X obj 639 623 hsl 128 15 0 1 0 0 empty \$0-gain empty -2 -8 0 10 -204786
-1 -1 0 1;
#N canvas 0 22 450 300 output 0;
#X obj 206 206 *~;
#X obj 225 175 line~;
#X msg 225 149 \$1 10;
#X obj 225 113 pow 4;
#X obj 226 60 inlet;
#X obj 177 60 inlet~;
#X obj 206 252 dac~;
#X connect 0 0 6 0;
#X connect 0 0 6 1;
#X connect 1 0 0 1;
#X connect 2 0 1 0;
#X connect 3 0 2 0;
#X connect 4 0 3 0;
#X connect 5 0 0 0;
#X restore 585 657 pd output;
#N canvas 119 86 369 298 crossover 0;
#X obj 49 121 cnv 15 250 80 empty empty Crossover 5 12 0 14 -233017
-66577 0;
#N canvas 125 85 481 301 lowpass 0;
#X obj 91 137 lop~;
#X obj 102 163 lop~;
#X obj 115 189 lop~;
#X floatatom 136 101 5 0 0 0 - - -;
#X obj 91 52 inlet~;
#X obj 115 223 outlet~;
#X obj 136 52 inlet;
#X text 170 140 3 filtros [lop~] em cascata;
#X connect 0 0 1 0;
#X connect 1 0 2 0;
#X connect 2 0 5 0;
#X connect 3 0 0 1;
#X connect 3 0 1 1;
#X connect 3 0 2 1;
#X connect 4 0 0 0;
#X connect 6 0 3 0;
#X restore 114 157 pd lowpass;
#N canvas 125 85 440 317 highpass 0;
#X floatatom 141 101 5 0 0 0 - - -;
#X obj 91 52 inlet~;
#X obj 120 226 outlet~;
#X obj 141 52 inlet;
#X obj 91 137 hip~;
#X obj 104 164 hip~;
#X obj 120 194 hip~;
#X text 192 179 3 filtros [hip~] em cascata;
#X connect 0 0 4 1;
#X connect 0 0 5 1;
#X connect 0 0 6 1;
#X connect 1 0 4 0;
#X connect 3 0 0 0;
#X connect 4 0 5 0;
#X connect 5 0 6 0;
#X connect 6 0 2 0;
#X restore 191 158 pd highpass;
#X obj 191 69 inlet~;
#X obj 254 69 inlet;
#X obj 114 219 outlet~;
#X obj 191 220 outlet~;
#X connect 1 0 5 0;
#X connect 2 0 6 0;
#X connect 3 0 1 0;
#X connect 3 0 2 0;
#X connect 4 0 2 1;
#X connect 4 0 1 1;
#X restore 585 497 pd crossover;
#X obj 654 572 *~;
#X obj 585 617 +~;
#X text 288 564 falante direito;
#X text 209 633 falante esquerdo;
#X obj 657 437 hsl 128 15 200 2000 1 0 empty empty empty -2 -8 0 10
-261682 -1 -1 0 1;
#X obj 585 355 loadbang;
#X obj 585 405 readsf~;
#X msg 585 380 open ../../../samples/bubul.wav \, start;
#X obj 669 546 osc~ 75;
#X text 552 513 low;
#X text 621 515 high;
#X obj 585 545 *~ 10;
#X obj 585 578 tanh~;
#X text 68 42 Filtro Crossover:;
#X text 524 30 Processamento Multibanda:;
#X text 524 60 Processamento multibanda consiste apenas em gerir processamentos
diferentes para bandas de frequências diferentes.;
#X text 525 111 Portanto \, no mundo do Live Electronics \, o crossover
pode ser uma porta para processamento multibanda ao aplicarmos processamentos
diferentes em cada saída.;
#X text 652 410 Frequência de Crossover;
#X text 525 167 Abaixo \, temos o mesmo exemplo de crossover ao lado.
Na saída da esquerda \, na banda grave \, aplicamos um ganho e um soft
clipping via waveshaping com a função "tanh". Já na banda aguda \,
aplicamos uma modulação em anel.;
#X text 525 234 As possibilidades de processamento multibanda são inúmeras
\, claramente. Em Live Electronics podemos soltar a imaginação e combinar
os mais diferentes e disparatados processos. Porém \, isso não é tão
comum e encontramos normalmente apenas ajustes diferentes de um mesmo
processamento para cada faixa de frequência \, ou ainda ajustes de
equalização.;
#X obj 1114 321 nbx 5 14 -1e+37 1e+37 0 0 empty hz empty 0 -8 0 10
-261682 -1 -1 500 256;
#X text 1176 320 HZ;
#N canvas 119 86 369 298 crossover 0;
#X obj 49 121 cnv 15 250 80 empty empty Crossover 5 12 0 14 -233017
-66577 0;
#N canvas 125 85 481 301 lowpass 0;
#X obj 91 137 lop~;
#X obj 102 163 lop~;
#X obj 115 189 lop~;
#X floatatom 136 101 5 0 0 0 - - -;
#X obj 91 52 inlet~;
#X obj 115 223 outlet~;
#X obj 136 52 inlet;
#X text 170 140 3 filtros [lop~] em cascata;
#X connect 0 0 1 0;
#X connect 1 0 2 0;
#X connect 2 0 5 0;
#X connect 3 0 0 1;
#X connect 3 0 1 1;
#X connect 3 0 2 1;
#X connect 4 0 0 0;
#X connect 6 0 3 0;
#X restore 114 157 pd lowpass;
#N canvas 125 85 440 317 highpass 0;
#X floatatom 141 101 5 0 0 0 - - -;
#X obj 91 52 inlet~;
#X obj 120 226 outlet~;
#X obj 141 52 inlet;
#X obj 91 137 hip~;
#X obj 104 164 hip~;
#X obj 120 194 hip~;
#X text 192 179 3 filtros [hip~] em cascata;
#X connect 0 0 4 1;
#X connect 0 0 5 1;
#X connect 0 0 6 1;
#X connect 1 0 4 0;
#X connect 3 0 0 0;
#X connect 4 0 5 0;
#X connect 5 0 6 0;
#X connect 6 0 2 0;
#X restore 191 158 pd highpass;
#X obj 191 69 inlet~;
#X obj 254 69 inlet;
#X obj 114 219 outlet~;
#X obj 191 220 outlet~;
#X connect 1 0 5 0;
#X connect 2 0 6 0;
#X connect 3 0 1 0;
#X connect 3 0 2 0;
#X connect 4 0 2 1;
#X connect 4 0 1 1;
#X restore 1045 354 pd crossover;
#X obj 1117 294 hsl 128 15 200 2000 1 0 empty empty empty -2 -8 0 10
-261682 -1 -1 8300 1;
#X obj 1183 390 nbx 5 14 -1e+37 1e+37 0 0 empty empty empty 0 -8 0
10 -261682 -1 -1 1000 256;
#X text 1245 389 HZ;
#N canvas 119 86 369 298 crossover 0;
#X obj 49 121 cnv 15 250 80 empty empty Crossover 5 12 0 14 -233017
-66577 0;
#N canvas 125 85 481 301 lowpass 0;
#X obj 91 137 lop~;
#X obj 102 163 lop~;
#X obj 115 189 lop~;
#X floatatom 136 101 5 0 0 0 - - -;
#X obj 91 52 inlet~;
#X obj 115 223 outlet~;
#X obj 136 52 inlet;
#X text 170 140 3 filtros [lop~] em cascata;
#X connect 0 0 1 0;
#X connect 1 0 2 0;
#X connect 2 0 5 0;
#X connect 3 0 0 1;
#X connect 3 0 1 1;
#X connect 3 0 2 1;
#X connect 4 0 0 0;
#X connect 6 0 3 0;
#X restore 114 157 pd lowpass;
#N canvas 125 85 440 317 highpass 0;
#X floatatom 141 101 5 0 0 0 - - -;
#X obj 91 52 inlet~;
#X obj 120 226 outlet~;
#X obj 141 52 inlet;
#X obj 91 137 hip~;
#X obj 104 164 hip~;
#X obj 120 194 hip~;
#X text 192 179 3 filtros [hip~] em cascata;
#X connect 0 0 4 1;
#X connect 0 0 5 1;
#X connect 0 0 6 1;
#X connect 1 0 4 0;
#X connect 3 0 0 0;
#X connect 4 0 5 0;
#X connect 5 0 6 0;
#X connect 6 0 2 0;
#X restore 191 158 pd highpass;
#X obj 191 69 inlet~;
#X obj 254 69 inlet;
#X obj 114 219 outlet~;
#X obj 191 220 outlet~;
#X connect 1 0 5 0;
#X connect 2 0 6 0;
#X connect 3 0 1 0;
#X connect 3 0 2 0;
#X connect 4 0 2 1;
#X connect 4 0 1 1;
#X restore 1114 423 pd crossover;
#X obj 987 490 output~;
#X obj 1088 488 output~;
#X obj 1183 488 output~;
#X obj 1045 318 noise~;
#X obj 1183 358 + 500;
#X text 1099 535 Médio;
#X text 1000 536 Grave;
#X text 1194 536 Agudo;
#X text 957 180 Para obtermos mais bandas \, podemos colocar mais de
um filtro crossover em cascata \, e assim controlar o tamanho de cada
banda. Temos aqui \, com dois filtros crossovers \, 3 bandas de áudio:
grave \, médio e agudo.;
#X connect 3 0 11 0;
#X connect 3 0 12 0;
#X connect 4 0 11 1;
#X connect 4 0 12 1;
#X connect 5 0 6 1;
#X connect 7 0 8 1;
#X connect 10 0 14 0;
#X connect 11 0 6 0;
#X connect 12 0 8 0;
#X connect 16 0 20 1;
#X connect 18 0 19 1;
#X connect 20 0 32 0;
#X connect 20 1 21 0;
#X connect 21 0 22 1;
#X connect 22 0 19 0;
#X connect 25 0 16 0;
#X connect 26 0 28 0;
#X connect 27 0 20 0;
#X connect 27 1 28 0;
#X connect 28 0 27 0;
#X connect 29 0 21 1;
#X connect 32 0 33 0;
#X connect 33 0 22 0;
#X connect 41 0 43 1;
#X connect 41 0 52 0;
#X connect 43 0 48 0;
#X connect 43 0 48 1;
#X connect 43 1 47 0;
#X connect 44 0 41 0;
#X connect 45 0 47 1;
#X connect 47 0 49 0;
#X connect 47 0 49 1;
#X connect 47 1 50 0;
#X connect 47 1 50 1;
#X connect 51 0 43 0;
#X connect 52 0 45 0;
