#N canvas 248 99 1069 587 10;
#X obj 573 183 mtof;
#X floatatom 573 207 0 0 0 0 - - -;
#X obj 606 236 / 2.05;
#X floatatom 606 262 0 0 0 0 - - -;
#X obj 606 287 cycle~;
#X obj 606 313 *~ 0.1;
#X obj 573 338 cycle~;
#X obj 573 362 *~ 0.5;
#X obj 530 386 cycle~;
#X obj 530 410 *~ 0.8;
#X obj 526 262 / 2.01;
#X obj 476 262 / 2.02;
#X obj 497 436 cycle~;
#X obj 573 101 metro 1000;
#X obj 573 65 tgl 30 1 empty empty empty 17 7 0 10 -261234 -1 -1 1
1;
#X text 554 203 Hz;
#X text 651 313 índice;
#X text 616 361 índice;
#X text 575 410 índice;
#X floatatom 526 298 0 0 0 0 - - -;
#X floatatom 476 321 0 0 0 0 - - -;
#X obj 480 475 output~;
#X obj 870 190 mtof;
#X floatatom 870 214 0 0 0 0 - - -;
#X obj 936 289 cycle~;
#X obj 903 340 cycle~;
#X obj 827 292 cycle~;
#X obj 794 342 cycle~;
#X obj 870 138 metro 1000;
#X obj 870 102 tgl 30 1 empty empty empty 17 7 0 10 -261234 -1 -1 1
1;
#X text 849 214 Hz;
#X obj 827 316 *~ 0.9;
#X obj 828 453 output~;
#X obj 871 391 cycle~;
#X obj 761 390 cycle~;
#X obj 573 132 expr random(35 \, 60);
#X text 580 154 Valores aleatóreos de 35 a 60;
#X obj 839 424 +~;
#X obj 936 315 *~ 0.8;
#X text 560 37 Em série:;
#X text 848 68 Em paralelo:;
#X text 54 289 Neste exemplo \, mantemos algumas relações harmônicas
\, ou quase harmônicas (gerndo batimentos) entre os osciladores para
que o resultado sonoro seja também harmônico.;
#X text 52 144 Vimos apenas exemplos de modulação de fase e frequência
com dois osciladores \, mas é comum que patches de FM/PM usem bem mais
osciladores. O clássico DX7 tinha 6 osciladores \, por exemplo.;
#X text 53 210 Neste exemplo temos dois patch de modulação de fase.
Em um deles temos 4 osciladores em série. No outro temos 6 osciladores
\, sendo que há um processamento em paralelo \, em que há 3 osciladores
em série em duas cadeias paralelas que depois se somam.;
#X obj 794 366 *~ 0.6;
#X obj 903 363 *~ 0.5;
#X obj 748 287 / 3.01;
#X obj 871 265 * 2.01;
#X obj 870 164 expr random(35 \, 47);
#X obj 936 257 * 3.01;
#X text 55 344 Sobre a sonoridade \, é evidente que quanto mais osciladores
em série temos \, mais complexo é o resultado sonoro.;
#X connect 0 0 1 0;
#X connect 1 0 2 0;
#X connect 1 0 10 0;
#X connect 1 0 11 0;
#X connect 1 0 6 0;
#X connect 2 0 3 0;
#X connect 3 0 4 0;
#X connect 4 0 5 0;
#X connect 5 0 6 1;
#X connect 6 0 7 0;
#X connect 7 0 8 1;
#X connect 8 0 9 0;
#X connect 9 0 12 1;
#X connect 10 0 19 0;
#X connect 11 0 20 0;
#X connect 12 0 21 0;
#X connect 12 0 21 1;
#X connect 13 0 35 0;
#X connect 14 0 13 0;
#X connect 19 0 8 0;
#X connect 20 0 12 0;
#X connect 22 0 23 0;
#X connect 23 0 46 0;
#X connect 23 0 47 0;
#X connect 23 0 26 0;
#X connect 23 0 49 0;
#X connect 24 0 38 0;
#X connect 25 0 45 0;
#X connect 26 0 31 0;
#X connect 27 0 44 0;
#X connect 28 0 48 0;
#X connect 29 0 28 0;
#X connect 31 0 27 1;
#X connect 33 0 37 1;
#X connect 34 0 37 0;
#X connect 35 0 0 0;
#X connect 37 0 32 1;
#X connect 37 0 32 0;
#X connect 38 0 25 1;
#X connect 44 0 34 1;
#X connect 45 0 33 1;
#X connect 46 0 27 0;
#X connect 46 0 34 0;
#X connect 47 0 33 0;
#X connect 47 0 25 0;
#X connect 48 0 22 0;
#X connect 49 0 24 0;
