#N canvas 397 43 550 535 10;
#X obj 111 219 blosc~ saw;
#X obj 111 198 sig~ 100;
#X obj 177 318 output~;
#X text 110 176 Entrada;
#X obj 190 178 nbx 5 14 -1e+37 1e+37 0 0 empty empty empty 0 -8 0 10
-204800 -1 -1 910.236 256;
#X obj 204 236 nbx 5 14 0 4 0 0 empty empty empty 0 -8 0 10 -4032 -1
-1 3.9685 256;
#X obj 193 153 hsl 128 15 100 5000 0 0 empty cutoff empty -2 -8 0 10
-204800 -1 -1 2100 1;
#X obj 207 215 hsl 128 15 0 4 0 0 empty Q empty -2 -8 0 10 -4032 -1
-1 12600 1;
#X obj 312 270 loadbang;
#X msg 312 300 \; cutoff 500 \; Q 3;
#X text 229 215 Q/Resonância;
#X text 221 152 Frequência;
#X text 69 26 O filtro de Passa Baixa Ressonante analógico presente
nos sintetizadores modulares da Moog é um dos filtros mais icônicos
do mundo da síntese. O external [moog~] apresenta uma implementação
digital que tenta emular a resposta desse filtro. Os parâmetros são
de Frequência Ressonante e Ressonância (de 0 a 4).;
#X text 95 410 ============================================================
;
#X text 104 434 Veja também o novo objeto [bob~] \, disponível a partir
da versão 0.46-6 do Pd Vanilla!;
#X text 96 469 ============================================================
;
#X obj 177 282 moog~;
#X connect 0 0 16 0;
#X connect 1 0 0 0;
#X connect 4 0 16 1;
#X connect 5 0 16 2;
#X connect 6 0 4 0;
#X connect 7 0 5 0;
#X connect 8 0 9 0;
#X connect 16 0 2 0;
#X connect 16 0 2 1;
