#N canvas 105 23 925 704 10;
#X obj 497 354 noise~;
#X obj 583 371 nbx 5 14 -1e+37 1e+37 0 0 empty empty empty 0 -8 0 10
-228856 -1 -1 2000.69 256;
#X obj 586 351 hsl 128 15 20 20000 0 0 empty hz empty -2 -8 0 10 -228856
-1 -1 1259 1;
#X obj 627 467 output~;
#X obj 497 440 output~;
#X obj 656 433 blop~ 4;
#N canvas 469 56 464 253 butterworth8 0;
#X obj 83 25 inlet;
#X obj 32 25 inlet~;
#X obj 110 106 clip 0 1;
#X obj 110 162 v r;
#X obj 110 137 expr tan($f1 * pi/2);
#X obj 110 81 expr $f1 / nyquist;
#X obj 83 51 t b f;
#X obj 32 199 outlet~;
#N canvas 53 23 333 262 biquad 0;
#X obj 37 29 inlet~;
#N canvas 594 99 531 367 coeficientes 0;
#X obj 378 248 v sign_\$0;
#X obj 50 257 pack float float float float float;
#X obj 50 82 expr $f1 + $f3 \; -sqrt($f1*$f1 + $f2*$f2) * sqrt($f3*$f3
+ $f4*$f4) * sign_\$0 \; if($f1 > 0 != $f3 > 0 \, -1 \, 1) \; $f9 \;
-$f9 * ($f5 + $f7) \; $f9 * sqrt($f5*$f5 + $f6*$f6) * sqrt($f7*$f7
+ $f8*$f8) * sign_\$0 \; if($f5 > 0 != $f7 > 0 \, -1 \, 1) \;;
#X obj 50 298 outlet;
#X obj 50 47 inlet;
#X connect 1 0 3 0;
#X connect 2 0 1 0;
#X connect 2 1 1 1;
#X connect 2 2 0 0;
#X connect 2 3 1 2;
#X connect 2 4 1 3;
#X connect 2 5 1 4;
#X connect 2 6 0 0;
#X connect 4 0 2 0;
#X restore 89 113 pd coeficientes;
#X obj 89 160 biquad~;
#X obj 89 188 outlet~;
#N canvas 51 23 585 364 polos-zeros 0;
#X obj 218 158 * -1;
#X obj 273 215 expr (pow($f1-1 \, 2) + pow($f2 \, 2)) / 4;
#X obj 108 240 pack float float float float;
#X obj 88 40 inlet;
#X obj 349 127 v theta;
#X obj 108 307 outlet;
#X obj 88 74 expr (1 - r*r) / (1 + r*r + 2*r*cos(theta)) \; 2*r*sin(theta)
/ (1 + r*r + 2*r*cos(theta)) \; pi/2 * (1/8.);
#X text 253 158 conjugado;
#X text 362 74 re;
#X text 363 88 im;
#X text 515 214 ganho;
#X msg 108 274 \$1 \$2 \$1 \$3 -1 0 -1 0 \$4;
#X obj 88 136 t f f;
#X connect 0 0 2 2;
#X connect 1 0 2 3;
#X connect 2 0 11 0;
#X connect 3 0 6 0;
#X connect 6 0 12 0;
#X connect 6 1 0 0;
#X connect 6 1 1 1;
#X connect 6 1 2 1;
#X connect 6 2 4 0;
#X connect 11 0 5 0;
#X connect 12 0 2 0;
#X connect 12 1 1 0;
#X restore 89 85 pd polos-zeros;
#X obj 89 29 inlet;
#X obj 205 188 outlet;
#X obj 89 58 trigger bang bang;
#X connect 0 0 2 0;
#X connect 1 0 2 0;
#X connect 2 0 3 0;
#X connect 4 0 1 0;
#X connect 5 0 7 0;
#X connect 7 0 4 0;
#X connect 7 1 6 0;
#X restore 32 79 pd biquad;
#N canvas 53 23 333 262 biquad 0;
#X obj 37 29 inlet~;
#N canvas 594 99 531 367 coeficientes 0;
#X obj 378 248 v sign_\$0;
#X obj 50 257 pack float float float float float;
#X obj 50 82 expr $f1 + $f3 \; -sqrt($f1*$f1 + $f2*$f2) * sqrt($f3*$f3
+ $f4*$f4) * sign_\$0 \; if($f1 > 0 != $f3 > 0 \, -1 \, 1) \; $f9 \;
-$f9 * ($f5 + $f7) \; $f9 * sqrt($f5*$f5 + $f6*$f6) * sqrt($f7*$f7
+ $f8*$f8) * sign_\$0 \; if($f5 > 0 != $f7 > 0 \, -1 \, 1) \;;
#X obj 50 298 outlet;
#X obj 50 47 inlet;
#X connect 1 0 3 0;
#X connect 2 0 1 0;
#X connect 2 1 1 1;
#X connect 2 2 0 0;
#X connect 2 3 1 2;
#X connect 2 4 1 3;
#X connect 2 5 1 4;
#X connect 2 6 0 0;
#X connect 4 0 2 0;
#X restore 89 113 pd coeficientes;
#X obj 89 160 biquad~;
#X obj 89 188 outlet~;
#X obj 89 29 inlet;
#X obj 205 188 outlet;
#X obj 89 58 trigger bang bang;
#N canvas 51 23 585 364 polos-zeros 0;
#X obj 218 158 * -1;
#X obj 273 215 expr (pow($f1-1 \, 2) + pow($f2 \, 2)) / 4;
#X obj 108 240 pack float float float float;
#X obj 88 40 inlet;
#X obj 349 127 v theta;
#X obj 108 307 outlet;
#X text 253 158 conjugado;
#X text 362 74 re;
#X text 363 88 im;
#X text 515 214 ganho;
#X msg 108 274 \$1 \$2 \$1 \$3 -1 0 -1 0 \$4;
#X obj 88 136 t f f;
#X obj 88 74 expr (1 - r*r) / (1 + r*r + 2*r*cos(theta)) \; 2*r*sin(theta)
/ (1 + r*r + 2*r*cos(theta)) \; pi/2 * (3/8.);
#X connect 0 0 2 2;
#X connect 1 0 2 3;
#X connect 2 0 10 0;
#X connect 3 0 12 0;
#X connect 10 0 5 0;
#X connect 11 0 2 0;
#X connect 11 1 1 0;
#X connect 12 0 11 0;
#X connect 12 1 0 0;
#X connect 12 1 1 1;
#X connect 12 1 2 1;
#X connect 12 2 4 0;
#X restore 89 84 pd polos-zeros;
#X connect 0 0 2 0;
#X connect 1 0 2 0;
#X connect 2 0 3 0;
#X connect 4 0 6 0;
#X connect 6 0 7 0;
#X connect 6 1 5 0;
#X connect 7 0 1 0;
#X restore 32 107 pd biquad;
#N canvas 53 23 333 262 biquad 0;
#X obj 37 29 inlet~;
#N canvas 594 99 531 367 coeficientes 0;
#X obj 378 248 v sign_\$0;
#X obj 50 257 pack float float float float float;
#X obj 50 82 expr $f1 + $f3 \; -sqrt($f1*$f1 + $f2*$f2) * sqrt($f3*$f3
+ $f4*$f4) * sign_\$0 \; if($f1 > 0 != $f3 > 0 \, -1 \, 1) \; $f9 \;
-$f9 * ($f5 + $f7) \; $f9 * sqrt($f5*$f5 + $f6*$f6) * sqrt($f7*$f7
+ $f8*$f8) * sign_\$0 \; if($f5 > 0 != $f7 > 0 \, -1 \, 1) \;;
#X obj 50 298 outlet;
#X obj 50 47 inlet;
#X connect 1 0 3 0;
#X connect 2 0 1 0;
#X connect 2 1 1 1;
#X connect 2 2 0 0;
#X connect 2 3 1 2;
#X connect 2 4 1 3;
#X connect 2 5 1 4;
#X connect 2 6 0 0;
#X connect 4 0 2 0;
#X restore 89 113 pd coeficientes;
#X obj 89 160 biquad~;
#X obj 89 188 outlet~;
#X obj 89 29 inlet;
#X obj 205 188 outlet;
#X obj 89 58 trigger bang bang;
#N canvas 51 23 585 364 polos-zeros 0;
#X obj 218 158 * -1;
#X obj 273 215 expr (pow($f1-1 \, 2) + pow($f2 \, 2)) / 4;
#X obj 108 240 pack float float float float;
#X obj 88 40 inlet;
#X obj 349 127 v theta;
#X obj 108 307 outlet;
#X text 253 158 conjugado;
#X text 362 74 re;
#X text 363 88 im;
#X text 515 214 ganho;
#X msg 108 274 \$1 \$2 \$1 \$3 -1 0 -1 0 \$4;
#X obj 88 136 t f f;
#X obj 88 74 expr (1 - r*r) / (1 + r*r + 2*r*cos(theta)) \; 2*r*sin(theta)
/ (1 + r*r + 2*r*cos(theta)) \; pi/2 * (5/8.);
#X connect 0 0 2 2;
#X connect 1 0 2 3;
#X connect 2 0 10 0;
#X connect 3 0 12 0;
#X connect 10 0 5 0;
#X connect 11 0 2 0;
#X connect 11 1 1 0;
#X connect 12 0 11 0;
#X connect 12 1 0 0;
#X connect 12 1 1 1;
#X connect 12 1 2 1;
#X connect 12 2 4 0;
#X restore 89 83 pd polos-zeros;
#X connect 0 0 2 0;
#X connect 1 0 2 0;
#X connect 2 0 3 0;
#X connect 4 0 6 0;
#X connect 6 0 7 0;
#X connect 6 1 5 0;
#X connect 7 0 1 0;
#X restore 32 139 pd biquad;
#N canvas 53 23 333 262 biquad 0;
#X obj 37 29 inlet~;
#N canvas 594 99 531 367 coeficientes 0;
#X obj 378 248 v sign_\$0;
#X obj 50 257 pack float float float float float;
#X obj 50 82 expr $f1 + $f3 \; -sqrt($f1*$f1 + $f2*$f2) * sqrt($f3*$f3
+ $f4*$f4) * sign_\$0 \; if($f1 > 0 != $f3 > 0 \, -1 \, 1) \; $f9 \;
-$f9 * ($f5 + $f7) \; $f9 * sqrt($f5*$f5 + $f6*$f6) * sqrt($f7*$f7
+ $f8*$f8) * sign_\$0 \; if($f5 > 0 != $f7 > 0 \, -1 \, 1) \;;
#X obj 50 298 outlet;
#X obj 50 47 inlet;
#X connect 1 0 3 0;
#X connect 2 0 1 0;
#X connect 2 1 1 1;
#X connect 2 2 0 0;
#X connect 2 3 1 2;
#X connect 2 4 1 3;
#X connect 2 5 1 4;
#X connect 2 6 0 0;
#X connect 4 0 2 0;
#X restore 89 113 pd coeficientes;
#X obj 89 160 biquad~;
#X obj 89 188 outlet~;
#X obj 89 29 inlet;
#N canvas 51 23 585 364 polos-zeros 0;
#X obj 218 158 * -1;
#X obj 273 215 expr (pow($f1-1 \, 2) + pow($f2 \, 2)) / 4;
#X obj 108 240 pack float float float float;
#X obj 88 40 inlet;
#X obj 349 127 v theta;
#X obj 108 307 outlet;
#X text 253 158 conjugado;
#X text 362 74 re;
#X text 363 88 im;
#X text 515 214 ganho;
#X msg 108 274 \$1 \$2 \$1 \$3 -1 0 -1 0 \$4;
#X obj 88 136 t f f;
#X obj 88 74 expr (1 - r*r) / (1 + r*r + 2*r*cos(theta)) \; 2*r*sin(theta)
/ (1 + r*r + 2*r*cos(theta)) \; pi/2 * (7/8.);
#X connect 0 0 2 2;
#X connect 1 0 2 3;
#X connect 2 0 10 0;
#X connect 3 0 12 0;
#X connect 10 0 5 0;
#X connect 11 0 2 0;
#X connect 11 1 1 0;
#X connect 12 0 11 0;
#X connect 12 1 0 0;
#X connect 12 1 1 1;
#X connect 12 1 2 1;
#X connect 12 2 4 0;
#X restore 89 76 pd polos-zeros;
#X connect 0 0 2 0;
#X connect 1 0 2 0;
#X connect 2 0 3 0;
#X connect 4 0 5 0;
#X connect 5 0 1 0;
#X restore 32 167 pd biquad;
#X obj 280 104 pi;
#X obj 280 133 v pi;
#X obj 328 92 samplerate~;
#X obj 328 116 / 2;
#X obj 328 67 loadbang;
#X obj 328 141 v nyquist;
#X connect 0 0 6 0;
#X connect 1 0 8 0;
#X connect 2 0 4 0;
#X connect 4 0 3 0;
#X connect 5 0 2 0;
#X connect 6 0 8 1;
#X connect 6 1 5 0;
#X connect 8 0 9 0;
#X connect 8 1 9 1;
#X connect 9 0 10 0;
#X connect 9 1 10 1;
#X connect 10 0 11 0;
#X connect 10 1 11 1;
#X connect 11 0 7 0;
#X connect 12 0 13 0;
#X connect 14 0 15 0;
#X connect 15 0 17 0;
#X connect 16 0 14 0;
#X restore 497 410 pd butterworth8;
#X text 31 130 Essa qualidade é mais evidentes em função da ordem do
sistema - quanto maior a ordem do sistema \, mais proeminente serão
essas características. A ordem do filtro também indica o decaimento
por oitava. A cada ordem temos um decaimento de 6dB por oitava \, de
modo que um sistema de terceira ordem decai 18dB por oitava \, um de
quarta ordem decai 24dB \, outro de oitava ordem 48dB e assim por diante.
;
#X text 241 275 3 polos = (0 & 2/3) * pi/2 \; 4 polos = (1/4 & 3/4)
* pi/2 \; 5 polos = (0 \, 2/5 \, 4/5) * pi/2 \; 6 polos = (1/6 \, 3/6
& 5/6) * pi/2;
#X text 34 242 Os polos desse filtro se dispõem de modo conjugado em
ângulos igualmente espaçados (entre -pi/2 e pi/2) na seguinte lógica
progressiva:;
#X text 34 351 Abaixo temos uma figura (Figure 8.17) do livro do Miller
Pukcette que plotando um filtro Butterworth de 4 Polos.;
#X text 641 94 (1/4 & 3/4) * pi/2;
#X text 492 124 O que nos dá pares conjugados em +/- pi/8 e +/- 3pi/8
como descrito na figura.;
#X text 491 170 Implementaremos \, entretanto \, um filtro Passa Baixa
de oitava ordem \, com polos nos seguintes ângulos:;
#X text 589 211 (1/8 \, 3/8 \, 5/8 & 7/8) * pi/2;
#X obj 723 467 output~;
#X obj 723 433 lp8_butt~ 2000 10;
#X obj 809 465 loadbang;
#X msg 809 494 \; hz 2000;
#X text 564 371 Hz;
#X text 619 350 cutoff;
#X obj 723 387 noise~;
#X text 487 46 O "r" na figura depende da frequência de corte. Os zeros
\, no Passa Baixa \, então em -1! Os quatro polos complexos formam
dois pares conjugados e são representados por pontos em ângulos que
são:;
#X text 493 240 A implementação será a partir de sistemas de segunda
ordem \, com o objeto [biquad~] (temos então 4 estágios). Primeiro
calculamos os polos e zeros e depois convertemos para coeficientes
de biquad. Compare o resultado com filtros Passa Baixa Butterworth
de oitava ordem com os objetos [blop~] e [lp8_butt~].;
#X text 498 546 O pd também traz um exemplo de filtro butterworth de
3 polos (H13.butterworth) \, e demonstra como calcular os Polos e Zeros.
Aliás \, o exemplo do Pd é implementado com objetos de Polos e Zeros
em vez de objetos [biquad~]. A escolha de usar [biquad~] aqui é porque
ele é um pouco mais eficiente. Para mais informações deste exemplo
do Pd e a teoria de filtros butterworth \, consulte o livro de Miller
Puckette.;
#X text 31 5 Implementamos aqui um Passa Baixa Butterworth de oitava
ordem \, já usado nos filtros anti-aliasing para geração de formas
de onda com banda limitada. A topologia Butterworth possui a resposta
de frequência mais plana possível em torno da frequência de corte \,
após a qual há uma transição estreita contínua ao negativo infinito.
Em outras palavras \, ela promove um corte mais "perfeito" \, interferindo
e atenuando menos na região de frequências fora da região de corte.
;
#X obj 246 535 image files/butterw.gif;
#X connect 0 0 6 0;
#X connect 1 0 6 1;
#X connect 1 0 5 1;
#X connect 1 0 16 1;
#X connect 2 0 1 0;
#X connect 5 0 3 0;
#X connect 5 0 3 1;
#X connect 6 0 4 0;
#X connect 6 0 4 1;
#X connect 16 0 15 0;
#X connect 16 0 15 1;
#X connect 17 0 18 0;
#X connect 21 0 16 0;
#X connect 21 0 5 0;
