#N canvas 125 27 995 654 10;
#X obj 58 477 +~;
#X obj 610 411 *~;
#X obj 195 201 nbx 5 14 -1e+37 1e+37 0 0 empty moduladora empty 0 -8
0 10 -204800 -1 -1 1 256;
#X obj 358 209 nbx 8 14 -1e+37 1e+37 0 0 empty indice_pm empty 0 -8
0 10 -261682 -1 -1 10 256;
#X obj 195 236 t b f;
#X obj 243 233 v mod;
#X obj 241 266 s \$0-mod;
#X obj 595 445 +~;
#X obj 85 210 nbx 5 14 -1e+37 1e+37 0 0 empty portadora empty 0 -8
0 10 -262130 -1 -1 440 256;
#X obj 85 239 s \$0-carrier;
#X obj 523 330 r \$0-carrier;
#X obj 58 422 r \$0-carrier;
#X obj 58 452 phasor~;
#X text 82 182 Portadora;
#X text 192 178 Moduladora;
#X text 362 184 Índice PM;
#X obj 358 237 s \$0-i_pm;
#X obj 467 209 nbx 8 14 -1e+37 1e+37 0 0 empty indice_fm empty 0 -8
0 10 -261234 -1 -1 200 256;
#X text 471 184 Índice FM;
#X obj 467 237 s \$0-i_fm;
#X obj 195 296 s indice_pm;
#X obj 106 540 hsl 128 15 0 1 0 0 empty empty ganho -2 -6 0 10 -203904
-1 -1 0 0;
#N canvas 316 79 505 438 ganho 0;
#X obj 274 212 *~;
#X obj 303 182 line~;
#X msg 303 156 \$1 10;
#X obj 303 130 pow 4;
#X obj 303 103 inlet;
#X obj 274 72 inlet~;
#X obj 262 244 dac~ 1;
#X connect 0 0 6 0;
#X connect 1 0 0 1;
#X connect 2 0 1 0;
#X connect 3 0 2 0;
#X connect 4 0 3 0;
#X connect 5 0 0 0;
#X restore 58 564 pd ganho;
#X obj 643 545 hsl 128 15 0 1 0 0 empty empty ganho -2 -6 0 10 -203904
-1 -1 0 0;
#N canvas 316 79 466 387 ganho 0;
#X obj 227 227 *~;
#X obj 256 197 line~;
#X msg 256 171 \$1 10;
#X obj 256 145 pow 4;
#X obj 256 118 inlet;
#X obj 227 87 inlet~;
#X obj 215 259 dac~ 2;
#X connect 0 0 6 0;
#X connect 1 0 0 1;
#X connect 2 0 1 0;
#X connect 3 0 2 0;
#X connect 4 0 3 0;
#X connect 5 0 0 0;
#X restore 595 569 pd ganho;
#X text 72 598 CANAL ESQUERDO;
#X text 590 601 CANAL DIREITO;
#X obj 265 485 line~;
#X obj 334 401 r \$0-i_fm;
#X floatatom 334 460 0 0 0 0 - - -;
#X msg 334 487 \; indice_pm set \$1;
#X obj 265 422 r \$0-i_pm;
#X obj 708 481 line~;
#X obj 776 376 r \$0-i_pm;
#X msg 776 456 \; indice_fm set \$1;
#X floatatom 776 427 0 0 0 0 - - -;
#X obj 708 404 r \$0-i_fm;
#X obj 52 40 loadbang;
#X msg 265 460 \$1 100;
#X msg 708 456 \$1 100;
#X obj 58 509 cos~;
#X text 716 376 índices:;
#X text 277 399 índices:;
#X obj 776 401 expr pow($f1 \, 2) * 2 * mod;
#N canvas 135 37 647 290 Parabola 0;
#X obj 205 52 inlet~;
#X obj 205 92 *~;
#X obj 205 169 -~;
#X obj 205 124 expr~ pow($v1 \, 2) / 2;
#X obj 511 126 change~;
#X obj 347 52 inlet~;
#X obj 205 239 outlet~;
#X text 43 203 Muda direção da Parábola;
#X text 61 168 Corrige DC Offset/amp;
#X text 145 123 Parábola;
#X text 204 28 freq;
#X text 350 30 indice;
#X obj 205 202 *~;
#X obj 347 127 expr~ pow($v1 \, 2) / 2;
#X connect 0 0 1 0;
#X connect 0 0 4 0;
#X connect 1 0 3 0;
#X connect 2 0 12 0;
#X connect 3 0 2 0;
#X connect 4 0 12 1;
#X connect 5 0 1 1;
#X connect 5 0 13 0;
#X connect 12 0 6 0;
#X connect 13 0 2 1;
#X restore 154 483 pd Parabola;
#X obj 673 104 r \$0-mod;
#X obj 673 131 phasor~;
#X obj 673 222 s~ modulador;
#X obj 736 117 tgl 30 0 empty tgl empty 17 7 0 10 -204786 -1 -1 0 1
;
#X text 775 124 serra invertida;
#X obj 154 454 r~ modulador;
#X obj 610 372 r~ modulador;
#X text 117 359 Modulação de Fase (Parábola);
#X text 579 293 Modulação de Frequência (Dente de Serra);
#X text 613 43 O oscilador modulador está aqui abaixo \, a direção
da dente de serra pode ser controlada pelo toggle.;
#X obj 673 161 triangle~ 0;
#X obj 595 512 osc~;
#X msg 52 64 \; portadora 440 \; moduladora 1 \; indice_pm 10 \; pd
dsp 1;
#X obj 334 426 expr sqrt($f1 / (2 * mod));
#X text 205 42 No caso de uma moduladora dente de serra na FM \, precisamos
de uma parabóla na PM cuja polaridade depende da polaridade da dente
de serra. Como anteriormente \, o ajuste de índice na FM também multiplica
pela frequência moduladora. Fora isso \, há uma relação de quadrado
por causa da equação de parábola. Por fim \, multiplica-se por 2 porque
o ciclo de uma dente de serra (indo de -1 a 1) reflete no dobro de
ciclos de um phasor (como ir de 0 a 1 duas vezes).;
#X connect 0 0 40 0;
#X connect 1 0 7 1;
#X connect 2 0 4 0;
#X connect 3 0 16 0;
#X connect 4 0 20 0;
#X connect 4 1 5 0;
#X connect 4 1 6 0;
#X connect 7 0 56 0;
#X connect 8 0 9 0;
#X connect 10 0 7 0;
#X connect 11 0 12 0;
#X connect 12 0 0 0;
#X connect 17 0 19 0;
#X connect 21 0 22 1;
#X connect 23 0 24 1;
#X connect 27 0 44 1;
#X connect 28 0 58 0;
#X connect 29 0 30 0;
#X connect 31 0 38 0;
#X connect 32 0 1 1;
#X connect 33 0 43 0;
#X connect 35 0 34 0;
#X connect 35 0 39 0;
#X connect 36 0 39 0;
#X connect 37 0 57 0;
#X connect 38 0 27 0;
#X connect 39 0 32 0;
#X connect 40 0 22 0;
#X connect 43 0 35 0;
#X connect 44 0 0 1;
#X connect 45 0 46 0;
#X connect 46 0 55 0;
#X connect 48 0 55 1;
#X connect 50 0 44 0;
#X connect 51 0 1 0;
#X connect 55 0 47 0;
#X connect 56 0 24 0;
#X connect 58 0 29 0;
#X connect 58 0 38 0;
