#N canvas 274 23 1021 668 10;
#X obj 578 530 osc~;
#X obj 70 478 +~;
#X obj 593 469 *~;
#X obj 207 202 nbx 5 14 -1e+37 1e+37 0 0 empty moduladora empty 0 -8
0 10 -204800 -1 -1 1 256;
#X obj 370 210 nbx 8 14 -1e+37 1e+37 0 0 empty indice_pm empty 0 -8
0 10 -261682 -1 -1 5 256;
#X obj 207 237 t b f;
#X obj 255 234 v mod;
#X obj 253 267 s \$0-mod;
#X obj 593 347 r \$0-mod;
#X obj 166 397 r \$0-mod;
#X obj 578 503 +~;
#X obj 97 211 nbx 5 14 -1e+37 1e+37 0 0 empty portadora empty 0 -8
0 10 -262130 -1 -1 440 256;
#X obj 97 240 s \$0-carrier;
#X obj 506 348 r \$0-carrier;
#X obj 70 423 r \$0-carrier;
#X obj 70 453 phasor~;
#X text 94 183 Portadora;
#X text 204 179 Moduladora;
#X text 374 185 Índice PM;
#X obj 370 238 s \$0-i_pm;
#X obj 479 210 nbx 8 14 -1e+37 1e+37 0 0 empty indice_fm empty 0 -8
0 10 -261234 -1 -1 100 256;
#X text 483 185 Índice FM;
#X obj 479 238 s \$0-i_fm;
#X obj 207 297 s indice_pm;
#X obj 118 541 hsl 128 15 0 1 0 0 empty empty ganho -2 -6 0 10 -203904
-1 -1 0 0;
#N canvas 316 79 505 438 ganho 0;
#X obj 274 212 *~;
#X obj 303 182 line~;
#X msg 303 156 \$1 10;
#X obj 303 130 pow 4;
#X obj 303 103 inlet;
#X obj 274 72 inlet~;
#X obj 262 244 dac~ 1;
#X connect 0 0 6 0;
#X connect 1 0 0 1;
#X connect 2 0 1 0;
#X connect 3 0 2 0;
#X connect 4 0 3 0;
#X connect 5 0 0 0;
#X restore 70 565 pd ganho;
#X obj 626 563 hsl 128 15 0 1 0 0 empty empty ganho -2 -6 0 10 -203904
-1 -1 0 0;
#N canvas 316 79 466 387 ganho 0;
#X obj 227 227 *~;
#X obj 256 197 line~;
#X msg 256 171 \$1 10;
#X obj 256 145 pow 4;
#X obj 256 118 inlet;
#X obj 227 87 inlet~;
#X obj 215 259 dac~ 2;
#X connect 0 0 6 0;
#X connect 1 0 0 1;
#X connect 2 0 1 0;
#X connect 3 0 2 0;
#X connect 4 0 3 0;
#X connect 5 0 0 0;
#X restore 578 587 pd ganho;
#X text 84 599 CANAL ESQUERDO;
#X text 573 619 CANAL DIREITO;
#X obj 277 486 line~;
#X obj 346 402 r \$0-i_fm;
#X floatatom 346 461 0 0 0 0 - - -;
#X msg 346 488 \; indice_pm set \$1;
#X obj 277 423 r \$0-i_pm;
#X obj 777 484 line~;
#X obj 845 379 r \$0-i_pm;
#X msg 845 459 \; indice_fm set \$1;
#X floatatom 845 430 0 0 0 0 - - -;
#X obj 777 407 r \$0-i_fm;
#X obj 642 188 loadbang;
#X msg 277 461 \$1 100;
#X msg 777 459 \$1 100;
#X obj 70 510 cos~;
#X obj 166 424 phasor~;
#X obj 593 373 phasor~;
#X msg 642 212 \; portadora 440 \; moduladora 1 \; indice_pm 5;
#X text 785 379 índices:;
#X text 289 400 índices:;
#N canvas 322 36 721 362 Parabolica 0;
#X obj 109 50 inlet~;
#X obj 109 80 triangle~ 0.5;
#X obj 109 264 *~;
#X obj 251 174 expr~ pow($v1 \, 2) / 2;
#X obj 109 140 *~;
#X obj 109 230 -~;
#X obj 109 172 expr~ pow($v1 \, 2) / 2;
#X obj 474 183 change~;
#X obj 251 50 inlet~;
#X obj 109 306 outlet~;
#X text 145 266 Muda direção da Parábola;
#X text 528 184 transforma em onda quadrada;
#X text 8 79 onda triangular;
#X text 251 197 Corrige DC Offset/amp;
#X text 49 171 Parábola;
#X text 108 26 freq;
#X text 254 28 indice;
#X connect 0 0 1 0;
#X connect 1 0 4 0;
#X connect 1 0 7 0;
#X connect 2 0 9 0;
#X connect 3 0 5 1;
#X connect 4 0 6 0;
#X connect 5 0 2 0;
#X connect 6 0 5 0;
#X connect 7 0 2 1;
#X connect 8 0 4 1;
#X connect 8 0 3 0;
#X restore 166 484 pd Parabolica;
#X text 129 360 Modulação de Fase (Moduladora parabólica);
#X text 562 311 Modulação de Frequência (Moduladora triangular);
#X obj 593 406 triangle~ 0.5;
#X text 608 428 onda triangular;
#X obj 845 404 expr pow($f1 \, 2) * 4 * mod;
#X obj 346 427 expr sqrt($f1 / (4 * mod));
#X text 317 33 A forma de onda na PM é a de duas parábolas concatenadas
\, com polaridade alternada. A onda triangular pode ser compreendida
como uma onda dente de serra com o dobro de frequência e que alterna
a polaridade a cada ciclo. Por isso \, o ajuste de índice é similar
ao do exemplo passado \, porém multiplicamos por 4 - porque a relação
de frequência é de dobro em relação à dente de serra. O ajuste de índice
também depende da frequência moduladora.;
#X connect 0 0 27 0;
#X connect 1 0 43 0;
#X connect 2 0 10 1;
#X connect 3 0 5 0;
#X connect 4 0 19 0;
#X connect 5 0 23 0;
#X connect 5 1 6 0;
#X connect 5 1 7 0;
#X connect 8 0 45 0;
#X connect 9 0 44 0;
#X connect 10 0 0 0;
#X connect 11 0 12 0;
#X connect 13 0 10 0;
#X connect 14 0 15 0;
#X connect 15 0 1 0;
#X connect 20 0 22 0;
#X connect 24 0 25 1;
#X connect 26 0 27 1;
#X connect 30 0 49 1;
#X connect 31 0 55 0;
#X connect 32 0 33 0;
#X connect 34 0 41 0;
#X connect 35 0 2 1;
#X connect 36 0 54 0;
#X connect 38 0 37 0;
#X connect 38 0 42 0;
#X connect 39 0 42 0;
#X connect 40 0 46 0;
#X connect 41 0 30 0;
#X connect 42 0 35 0;
#X connect 43 0 25 0;
#X connect 44 0 49 0;
#X connect 45 0 52 0;
#X connect 49 0 1 1;
#X connect 52 0 2 0;
#X connect 54 0 38 0;
#X connect 55 0 32 0;
#X connect 55 0 41 0;
