#N canvas 233 26 968 572 10;
#X obj 554 443 osc~;
#X obj 56 391 +~;
#X obj 569 382 *~;
#X obj 183 115 nbx 5 14 -1e+37 1e+37 0 0 empty moduladora empty 0 -8
0 10 -204800 -1 -1 1 256;
#X obj 346 123 nbx 8 14 -1e+37 1e+37 0 0 empty indice_pm empty 0 -8
0 10 -261682 -1 -1 5 256;
#X obj 183 150 t b f;
#X obj 231 147 v mod;
#X obj 229 180 s \$0-mod;
#X obj 569 260 r \$0-mod;
#X obj 162 310 r \$0-mod;
#X obj 554 416 +~;
#X obj 73 124 nbx 5 14 -1e+37 1e+37 0 0 empty portadora empty 0 -8
0 10 -262130 -1 -1 440 256;
#X obj 73 153 s \$0-carrier;
#X obj 482 261 r \$0-carrier;
#X obj 56 336 r \$0-carrier;
#X obj 56 366 phasor~;
#X text 70 96 Portadora;
#X text 180 92 Moduladora;
#X text 350 98 Índice PM;
#X obj 346 151 s \$0-i_pm;
#X obj 162 396 *~;
#X obj 455 123 nbx 8 14 -1e+37 1e+37 0 0 empty indice_fm empty 0 -8
0 10 -261234 -1 -1 20 256;
#X text 459 98 Índice FM;
#X obj 455 151 s \$0-i_fm;
#X obj 183 210 s indice_pm;
#X obj 104 454 hsl 128 15 0 1 0 0 empty empty ganho -2 -6 0 10 -203904
-1 -1 0 0;
#N canvas 316 79 505 438 ganho 0;
#X obj 274 212 *~;
#X obj 303 182 line~;
#X msg 303 156 \$1 10;
#X obj 303 130 pow 4;
#X obj 303 103 inlet;
#X obj 274 72 inlet~;
#X obj 262 244 dac~ 1;
#X connect 0 0 6 0;
#X connect 1 0 0 1;
#X connect 2 0 1 0;
#X connect 3 0 2 0;
#X connect 4 0 3 0;
#X connect 5 0 0 0;
#X restore 56 478 pd ganho;
#X obj 602 476 hsl 128 15 0 1 0 0 empty empty ganho -2 -6 0 10 -203904
-1 -1 0 0;
#N canvas 316 79 466 387 ganho 0;
#X obj 227 227 *~;
#X obj 256 197 line~;
#X msg 256 171 \$1 10;
#X obj 256 145 pow 4;
#X obj 256 118 inlet;
#X obj 227 87 inlet~;
#X obj 215 259 dac~ 2;
#X connect 0 0 6 0;
#X connect 1 0 0 1;
#X connect 2 0 1 0;
#X connect 3 0 2 0;
#X connect 4 0 3 0;
#X connect 5 0 0 0;
#X restore 554 500 pd ganho;
#X text 70 512 CANAL ESQUERDO;
#X text 549 532 CANAL DIREITO;
#X obj 253 399 line~;
#X obj 322 315 r \$0-i_fm;
#X floatatom 322 374 0 0 0 0 - - -;
#X msg 322 401 \; indice_pm set \$1;
#X obj 253 336 r \$0-i_pm;
#X obj 753 397 line~;
#X obj 821 292 r \$0-i_pm;
#X msg 821 372 \; indice_fm set \$1;
#X floatatom 821 343 0 0 0 0 - - -;
#X obj 753 320 r \$0-i_fm;
#X obj 740 129 pi;
#X obj 740 158 v pi;
#X obj 618 101 loadbang;
#X msg 253 374 \$1 100;
#X msg 753 372 \$1 100;
#X obj 56 423 cos~;
#X obj 162 337 phasor~;
#X obj 162 362 triangle~ 0.5;
#X obj 569 286 phasor~;
#X msg 618 125 \; portadora 440 \; moduladora 1 \; indice_pm 5;
#X obj 569 319 expr~ if($v1 < 0.5 \, 1 \, -1);
#X text 538 224 Modulação de Frequência (Moduladora quadrada);
#X text 105 273 Modulação de Fase (Moduladora triangular);
#X text 108 28 Já no caso de uma moduladora quadrada na FM \, precisamos
de uma moduladora triangular na PM para obter o mesmo resultado.;
#X text 584 341 onda quadrada;
#X text 761 292 índices:;
#X text 265 313 índices:;
#X obj 821 317 expr $f1 * 4 * mod;
#X obj 322 340 expr $f1 / (4 * mod);
#X text 484 20 A equivalência dos índices se dá de modo parecido ao
exemplo anterior \, sem a relação de quadrado. Como em todos os outros
exemplo \, o ajuste de índice também depende da frequência moduladora.
;
#X connect 0 0 28 0;
#X connect 1 0 46 0;
#X connect 2 0 10 1;
#X connect 3 0 5 0;
#X connect 4 0 19 0;
#X connect 5 0 24 0;
#X connect 5 1 6 0;
#X connect 5 1 7 0;
#X connect 8 0 49 0;
#X connect 9 0 47 0;
#X connect 10 0 0 0;
#X connect 11 0 12 0;
#X connect 13 0 10 0;
#X connect 14 0 15 0;
#X connect 15 0 1 0;
#X connect 20 0 1 1;
#X connect 21 0 23 0;
#X connect 25 0 26 1;
#X connect 27 0 28 1;
#X connect 31 0 20 1;
#X connect 32 0 59 0;
#X connect 33 0 34 0;
#X connect 35 0 44 0;
#X connect 36 0 2 1;
#X connect 37 0 58 0;
#X connect 39 0 38 0;
#X connect 39 0 45 0;
#X connect 40 0 45 0;
#X connect 41 0 42 0;
#X connect 43 0 50 0;
#X connect 44 0 31 0;
#X connect 45 0 36 0;
#X connect 46 0 26 0;
#X connect 47 0 48 0;
#X connect 48 0 20 0;
#X connect 49 0 51 0;
#X connect 51 0 2 0;
#X connect 58 0 39 0;
#X connect 59 0 33 0;
#X connect 59 0 44 0;
